<?xml version="1.0" standalone="no"?>
<!DOCTYPE svg PUBLIC "-//W3C//DTD SVG 1.1//EN" "http://www.w3.org/Graphics/SVG/1.1/DTD/svg11.dtd" >
<svg xmlns="http://www.w3.org/2000/svg" xmlns:xlink="http://www.w3.org/1999/xlink" version="1.1">
<metadata>
Created by FontForge 20170731 at Sun Jan 26 10:49:58 2020
 By Aleksey,,,
Copyright by Hugo Chargois - Licensed under the WTFPL - Converted by Guilherme Maeda
</metadata>
<defs>
<font id="GohuFontNerdFontComplete-Medium" horiz-adv-x="1117" >
  <font-face 
    font-family="GohuFont Nerd Font"
    font-weight="500"
    font-stretch="normal"
    units-per-em="2048"
    panose-1="2 0 6 3 0 0 0 0 0 0"
    ascent="1638"
    descent="-410"
    x-height="935"
    cap-height="1307"
    bbox="-0.5 -802 3133 2112"
    underline-thickness="102"
    underline-position="-202"
    unicode-range="U+0020-FFFD"
  />
<missing-glyph horiz-adv-x="748" 
d="M68 0v1365h544v-1365h-544zM136 68h408v1229h-408v-1229z" />
    <glyph glyph-name="map-marker-plus" unicode="&#x671;" arabic-form="isolated" 
d="M596 699q92 0 152 60t60 152t-60 152t-152 60t-152 -60t-60 -152t60 -152t152 -60zM596 1507q252 -4 422 -172t174 -424q-36 -364 -298 -722t-298 -386q-36 28 -298 386t-298 722q4 256 172 424t424 172zM1108 227h256v256h172v-256h256v-168h-256v-256h-172v256h-256
v168z" />
    <glyph glyph-name="marker" unicode="&#x671;" arabic-form="final" 
d="M1524 1501q-72 4 -124 -48l-496 -496l484 -484l496 496q48 52 48 120t-48 124l-244 240q-52 52 -116 48zM824 877l-508 -508q-52 -56 -52 -124t52 -120l-316 -316h484l72 72q52 -48 120 -48t120 52l508 508z" />
    <glyph glyph-name="message-plus" unicode="&#x67b;" arabic-form="isolated" 
d="M1536 1507q72 0 120 -48t48 -120v-1024q0 -72 -48 -122t-120 -50h-1196l-340 -340v1536q0 72 48 120t120 48h1368zM768 1167v-256h-256v-172h256v-256h168v256h256v172h-256v256h-168z" />
    <glyph glyph-name="microscope" unicode="&#x67b;" arabic-form="final" 
d="M508 1145l136 -232q-168 -20 -276 -138t-112 -290q4 -180 124 -300t300 -124q136 0 238 70t154 186h-220v168h684v-168h-192q-56 -204 -212 -344h232v-168h-1364v168h228q-104 96 -166 228t-62 284q4 240 142 418t366 242zM788 1505l64 -112l72 44l300 -520l-296 -168
l-300 516l76 44l-64 112z" />
    <glyph glyph-name="move-resize" unicode="&#x67b;" arabic-form="initial" 
d="M684 1595v-88h84v-256h-84v-84h256v84h-84v256h84v88h-256zM684 1083q-72 -4 -120 -52t-52 -120v-1024q4 -72 52 -120t120 -52h1024q72 4 120 52t52 120v1024q-4 72 -52 120t-120 52h-1024zM0 911v-256h88v84h256v-84h84v256h-84v-84h-256v84h-88zM684 911h1024v-1024
h-1024v1024zM1112 827v-88h84v-424h-340v84h-88v-256h88v84h340v-168h-84v-88h256v88h-88v168h256v-84h88v256h-88v-84h-256v424h88v88h-256z" />
    <glyph glyph-name="move-resize-variant" unicode="&#x67b;" arabic-form="medial" 
d="M120 1617l-120 -120l436 -436h-304v-172h596v596h-172v-304zM900 1061v-172h852v-512h172v512q-4 72 -52 120t-120 52h-852zM556 717v-852q4 -72 52 -120t120 -52h512v172h-512v852h-172zM1316 425l-124 -124l440 -436h-220v-172h512v512h-172v-220z" />
    <glyph glyph-name="paw-off" unicode="&#x67e;" arabic-form="isolated" 
d="M5 1379l108 108l1556 -1556l-108 -108l-172 172q-20 -12 -36 -24q-116 -40 -246 12t-258 64q-132 -12 -260 -66t-244 -10q-64 36 -102 106t-30 142q16 92 100 156t156 132q48 48 92 110t88 118zM545 1487q80 8 146 -62t90 -184t-8 -198l-340 340q36 88 112 104z
M1157 1487q76 -16 112 -100t12 -202t-92 -186t-146 -56t-112 96t-10 200t90 186t146 62zM89 1095q76 28 160 -18t136 -150t36 -194t-90 -122t-156 16t-134 150t-38 192t86 126zM1625 1095q72 -36 86 -126t-38 -192t-134 -150t-156 -16t-90 122t36 194t136 150t160 18z" />
    <glyph glyph-name="phone-minus" unicode="&#x67e;" arabic-form="final" 
d="M84 1423q-36 0 -60 -24t-24 -60q16 -616 426 -1026t1026 -426q36 0 60 24t24 60v300q0 36 -24 60t-60 24q-160 0 -304 48q-48 16 -88 -20l-188 -188q-184 96 -326 238t-238 326l188 188q36 36 20 88q-48 144 -48 304q0 36 -24 60t-60 24h-300zM852 1167v-172h684v172
h-684z" />
    <glyph glyph-name="phone-plus" unicode="&#x67e;" arabic-form="initial" 
d="M84 1423q-36 0 -60 -24t-24 -60q16 -616 426 -1026t1026 -426q36 0 60 24t24 60v300q0 36 -24 60t-60 24q-160 0 -304 48q-48 16 -88 -20l-188 -188q-184 96 -326 238t-238 326l188 188q36 36 20 88q-48 144 -48 304q0 36 -24 60t-60 24h-300zM1108 1423v-256h-256v-172
h256v-256h172v256h256v172h-256v256h-172z" />
    <glyph glyph-name="pot" unicode="&#x67e;" arabic-form="medial" 
d="M1364 59q0 -72 -48 -122t-120 -50h-856q-72 0 -120 50t-48 122v512h-172v256h1536v-256h-172v-512zM256 1167h172v-172h-172v172zM684 1167h168v-172h-168v172zM1108 1167h172v-172h-172v172zM1280 1423h172v-172h-172v172zM852 1423h172v-172h-172v172zM428 1423h168
v-172h-168v172z" />
    <glyph glyph-name="pot-mix" unicode="&#x680;" arabic-form="isolated" 
d="M1364 61q0 -72 -48 -122t-120 -50h-856q-72 0 -120 50t-48 122v512h-172v256h940l340 592l148 -88l-292 -504h400v-256h-172v-512z" />
    <glyph glyph-name="serial-port" unicode="&#x680;" arabic-form="final" 
d="M168 1465h856v-172h168v-256h-256v-512h-680v512h-256v256h168v172zM1024 953h168v-428h-168v428zM512 441h168v-596h-168v596zM0 953h168v-428h-168v428z" />
    <glyph glyph-name="shape-circle-plus" unicode="&#x680;" arabic-form="initial" 
d="M684 17q216 4 360 148t152 364h168q-4 -292 -198 -484t-482 -200q-292 8 -484 200t-200 484q8 288 200 482t484 198v-168q-220 -8 -364 -152t-148 -360q4 -220 148 -364t364 -148zM1364 1209h256v-168h-256v-256h-168v256h-256v168h256v256h168v-256z" />
    <glyph glyph-name="shape-polygon-plus" unicode="&#x680;" arabic-form="medial" 
d="M1196 297v232h168v-344l-768 -340l-596 596l340 768h344v-168h-232l-248 -564l428 -428zM1620 1209v-168h-256v-256h-168v256h-256v168h256v256h168v-256h256z" />
    <glyph glyph-name="shape-rectangle-plus" unicode="&#x67a;" arabic-form="isolated" 
d="M1364 1081h256v-172h-256v-256h-168v256h-256v172h256v256h168v-256zM1196 141v256h168v-424h-1364v1108h684v-172h-512v-768h1024z" />
    <glyph glyph-name="shape-square-plus" unicode="&#x67a;" arabic-form="final" 
d="M1364 1209h256v-168h-256v-256h-168v256h-256v168h256v256h168v-256zM1196 17v512h168v-684h-1364v1364h684v-168h-512v-1024h1024z" />
    <glyph glyph-name="skip-next-circle" unicode="&#x67a;" arabic-form="initial" 
d="M852 1507q-364 -8 -604 -248t-248 -604q8 -364 248 -604t604 -248q364 8 604 248t248 604q-8 364 -248 604t-604 248zM512 995l424 -340l-424 -340v680zM1024 995h168v-680h-168v680z" />
    <glyph glyph-name="skip-next-circle-outline" unicode="&#x67a;" arabic-form="medial" 
d="M852 1507q-364 -8 -604 -248t-248 -604q8 -364 248 -604t604 -248q364 8 604 248t248 604q-8 364 -248 604t-604 248zM852 1339q288 -8 482 -202t202 -482q-8 -288 -202 -482t-482 -202q-288 8 -482 202t-202 482q8 288 202 482t482 202zM512 995v-680l424 340zM1024 995
v-680h168v680h-168z" />
    <glyph glyph-name="skip-previous-circle" unicode="&#x67f;" arabic-form="isolated" 
d="M852 1507q-364 -8 -604 -248t-248 -604q8 -364 248 -604t604 -248q364 8 604 248t248 604q-8 364 -248 604t-604 248zM512 995h168v-680h-168v680zM1192 995v-680l-424 340z" />
    <glyph glyph-name="skip-previous-circle-outline" unicode="&#x67f;" arabic-form="final" 
d="M852 1507q364 -8 604 -248t248 -604q-8 -364 -248 -604t-604 -248q-364 8 -604 248t-248 604q8 364 248 604t604 248zM852 1339q-288 -8 -482 -202t-202 -482q8 -288 202 -482t482 -202q288 8 482 202t202 482q-8 288 -202 482t-482 202zM1192 995v-680l-424 340z
M680 995v-680h-168v680h168z" />
    <glyph glyph-name="spray" unicode="&#x67f;" arabic-form="initial" 
d="M512 1339h172v-172h-172v172zM256 1423h172v-172h-172v172zM256 1167h172v-172h-172v172zM172 995v-168h-172v168h172zM172 1251v-168h-172v168h172zM172 1507v-168h-172v168h172zM768 -197q-72 0 -120 48t-48 120v856q0 72 48 120t120 48v88h88v256h256v-256h84v-88
q72 0 120 -48t52 -120v-856q-4 -72 -52 -120t-120 -48h-428zM768 827v-856h428v856h-428z" />
    <glyph glyph-name="stop-circle" unicode="&#x67f;" arabic-form="medial" 
d="M852 1507q-364 -8 -604 -248t-248 -604q8 -364 248 -604t604 -248q364 8 604 248t248 604q-8 364 -248 604t-604 248zM596 911h512v-512h-512v512z" />
    <glyph glyph-name="stop-circle-outline" unicode="&#x679;" arabic-form="isolated" 
d="M852 1507q-364 -8 -604 -248t-248 -604q8 -364 248 -604t604 -248q364 8 604 248t248 604q-8 364 -248 604t-604 248zM852 1339q288 -8 482 -202t202 -482q-8 -288 -202 -482t-482 -202q-288 8 -482 202t-202 482q8 288 202 482t482 202zM596 911v-512h512v512h-512z" />
    <glyph glyph-name="test-tube" unicode="&#x679;" arabic-form="final" 
d="M130 1505v-168h88v-1196q4 -144 100 -240t240 -96t240 96t100 240v1196h88v168h-856zM474 313q-40 0 -64 22t-24 62t24 62t62 22t62 -22t24 -62t-24 -62t-60 -22zM642 653q-36 0 -60 24t-24 62t24 62t62 24t62 -24t24 -62t-24 -62t-64 -24zM730 1081h-344v256h344v-256z
" />
    <glyph glyph-name="text-shadow" unicode="&#x679;" arabic-form="initial" 
d="M0 1423h1108v-256h-424v-1024h-256v1024h-428v256zM768 1083h172v-172h-172v172zM1024 1083h172v-172h-172v172zM1280 1083h172v-172h-172v172zM768 827h172v-172h-172v172zM768 571h172v-172h-172v172zM768 315h172v-172h-172v172zM768 59h172v-172h-172v172z" />
    <glyph glyph-name="tune-vertical" unicode="&#x679;" arabic-form="medial" 
d="M172 1423v-768h-172v-172h172v-596h168v596h172v172h-172v768h-168zM684 1423v-428h-172v-168h172v-940h168v940h172v168h-172v428h-168zM1196 1423v-940h-172v-168h172v-428h168v428h172v168h-172v940h-168z" />
    <glyph glyph-name="cart-off" unicode="&#x6a4;" arabic-form="isolated" 
d="M1940 -207l-1832 1832l-108 -108l376 -376l188 -396l-116 -212q-20 -36 -20 -80q0 -72 48 -120t120 -52h636l120 -116q-68 -48 -72 -140q0 -72 50 -120t122 -48q88 0 136 72l244 -244zM632 453q-20 0 -20 20l4 12l76 140h200l172 -172h-432zM1328 625q48 0 86 24t62 64
l304 552q12 20 12 40q0 36 -24 60t-60 28h-1148zM596 197q-72 0 -120 -50t-48 -122t48 -120t120 -48t122 48t50 120t-50 122t-122 50z" />
    <glyph glyph-name="chart-gantt" unicode="&#x6a4;" arabic-form="final" 
d="M0 1251h680v256h172v-1704h-172v340h-340v256h340v172h-512v256h512v168h-680v256zM1024 1251h256v-256h-256v256zM1024 827h424v-256h-424v256zM1024 399h680v-256h-680v256z" />
    <glyph glyph-name="chart-scatterplot-hexbin" unicode="&#x6a4;" arabic-form="initial" 
d="M0 1507h168v-1536h1536v-168h-1704v1704zM1024 443l-172 -300h-348l-172 300l172 296h348zM1028 1123l-172 -296h-344l-172 296l172 300h344zM1640 783l-172 -300h-344l-172 300l172 300h344z" />
    <glyph glyph-name="chart-timeline" unicode="&#x6a4;" arabic-form="medial" 
d="M0 1507h168v-1536h1536v-168h-1704v1704zM424 827h856v-256h-856v256zM768 399h852v-256h-852v256zM340 1339h1364v-344h-168v172h-1024v-172h-172v344z" />
    <glyph glyph-name="discord" unicode="&#x6a6;" arabic-form="isolated" 
d="M1704 -327l-448 428l56 -172h-1100q-92 4 -152 64t-60 148v1280q0 92 60 152t152 64h1280q92 -4 152 -64t60 -152v-1748zM852 1141q-176 -8 -282 -50t-106 -50q72 60 152 92t88 32l-16 16q-108 -8 -188 -52t-84 -52q-104 -236 -124 -400t-16 -168q100 -112 196 -132
t104 -12l60 76q-80 24 -126 68t-50 48q4 -4 110 -52t282 -56q176 8 282 56t110 52q-4 -4 -50 -48t-126 -68l60 -76q8 -8 104 12t196 132q4 4 -16 168t-124 400q-4 8 -84 52t-188 52l-16 -16q8 0 88 -32t152 -92q0 8 -106 50t-282 50zM676 817q44 0 72 -32t28 -76t-28 -76
t-72 -32t-72 32t-28 76t28 76t72 32zM1032 817q40 0 70 -32t30 -76t-30 -76t-72 -32t-70 32t-28 76t28 76t72 32z" />
    <glyph glyph-name="file-restore" unicode="&#x6a6;" arabic-form="final" 
d="M856 1507h-684q-72 0 -120 -48t-52 -120v-1368q4 -72 52 -120t120 -48h1024q72 0 120 48t52 120v1024zM684 143q-132 0 -236 70t-156 186h148q40 -60 104 -94t140 -34q128 4 212 88t84 210t-84 212t-212 86q-88 0 -156 -44t-108 -116l136 -136h-340v340l108 -112
q60 92 152 144t208 52q180 -4 302 -124t126 -300q-4 -184 -126 -304t-302 -124z" />
    <glyph glyph-name="language-c" unicode="&#x6a6;" arabic-form="initial" 
d="M940 315l36 -208q-36 -16 -108 -32t-172 -16q-280 4 -424 166t-144 414q4 292 172 452t420 160q96 0 166 -16t102 -32l-52 -212l-88 28q-52 12 -120 12q-148 0 -244 -94t-100 -286q0 -172 92 -272t256 -100l112 8q56 12 96 28z" />
    <glyph glyph-name="language-cpp" unicode="&#x6a6;" arabic-form="medial" 
d="M812 315l36 -208q-36 -16 -108 -32t-172 -16q-280 4 -424 166t-144 414q8 292 174 452t418 160q96 0 166 -16t102 -32l-48 -212l-92 28q-48 12 -116 12q-148 0 -246 -94t-102 -286q0 -172 92 -272t256 -100l116 8q52 12 92 28zM856 739h168v172h172v-172h172v-168h-172
v-172h-172v172h-168v168zM1452 739h172v172h168v-172h172v-168h-172v-172h-168v172h-172v168z" />
    <glyph glyph-name="xaml" unicode="&#x684;" arabic-form="isolated" 
d="M1596 655l-296 -512h-592l-296 512l296 512h592zM2008 655l-344 -596l-148 84l296 512l-296 512l148 84zM0 655l344 596l148 -84l-296 -512l296 -512l-148 -84z" />
    <glyph glyph-name="bandcamp" unicode="&#x684;" arabic-form="final" 
d="M1704 1167l-552 -1024h-1152l552 1024h1152z" />
    <glyph glyph-name="credit-card-plus" unicode="&#x684;" arabic-form="initial" 
d="M1708 271h256v-172h-256v-256h-172v256h-256v172h256v256h172v-256zM1536 1123v172h-1364v-172h1364zM1536 783h-1364v-512h940v-172h-940q-72 4 -120 52t-52 120v1024q4 72 52 120t120 52h1364q72 -4 122 -52t50 -120v-596h-172v84z" />
    <glyph glyph-name="itunes" unicode="&#x684;" arabic-form="medial" 
d="M323 223q-68 -4 -204 -58t-116 -214q64 -192 266 -158t226 266v836q-4 4 2 30t50 38l660 136q4 4 28 0t28 -44v-588q0 -4 -8 -30t-52 -38q-68 0 -204 -48t-132 -208q48 -196 258 -174t238 254v1232q0 8 -12 42t-84 22l-800 -164q-4 4 -36 -14t-36 -70v-968q0 -4 -10 -36
t-62 -44z" />
    <glyph glyph-name="bow-tie" unicode="&#x683;" arabic-form="isolated" 
d="M1024 483l512 -256v856l-512 -256v-344zM512 483l-512 -256v856l512 -256v-344zM596 827h344v-344h-344v344z" />
    <glyph glyph-name="calendar-range" unicode="&#x683;" arabic-form="final" 
d="M512 741h-172v-172h172v172zM852 741h-168v-172h168v172zM1196 741h-172v-172h172v172zM1364 1337h-84v172h-172v-172h-680v172h-172v-172h-84q-76 0 -124 -50t-48 -122v-1192q0 -72 50 -122t122 -50h1192q72 0 122 50t50 122v1192q0 72 -50 122t-122 50zM1364 -27h-1192
v936h1192v-936z" />
    <glyph glyph-name="currency-usd-off" unicode="&#x683;" arabic-form="initial" 
d="M720 1091q112 0 160 -50t52 -130h188q-4 112 -72 202t-200 122v188h-256v-184q-68 -16 -128 -48l128 -124q48 24 128 24zM108 1331l-108 -108l292 -292q4 -132 92 -212t240 -124l300 -296q-20 -32 -70 -56t-134 -24q-132 4 -192 54t-64 126h-188q12 -140 100 -220
t216 -108v-184h256v184q124 24 208 96l188 -192l108 108z" />
    <glyph glyph-name="flash-red-eye" unicode="&#x683;" arabic-form="medial" 
d="M1108 1295q-36 0 -60 -24t-24 -60t24 -60t62 -24t60 24t22 60t-22 60t-62 24zM1108 1551q-176 0 -312 -94t-200 -246q64 -152 200 -246t314 -94t314 94t196 246q-60 152 -196 246t-316 94zM1108 1423q92 0 152 -60t60 -152t-60 -152t-150 -60t-150 60t-60 152t60 152
t148 60zM0 1551v-1024h256v-768l596 1024h-340l96 216q-88 92 -140 212q48 112 126 198t182 142h-776z" />
    <glyph glyph-name="oar" unicode="&#x686;" arabic-form="isolated" 
d="M1472 386q-104 108 -296 246t-344 90l-704 704l-128 -128l708 -708q-48 -152 94 -336t252 -288t194 -76t168 124q100 92 120 186t-64 186z" />
    <glyph glyph-name="piano" unicode="&#x686;" arabic-form="final" 
d="M168 1423h1368q72 0 120 -50t48 -122v-1192q0 -72 -48 -122t-120 -50h-1368q-72 0 -120 50t-48 122v1192q0 72 48 122t120 50zM168 1251v-1192h344v512h-108v680h-236zM596 59h512v512h-108v680h-296v-680h-108v-512zM1192 59h344v1192h-236v-680h-108v-512z" />
    <glyph glyph-name="weather-lightning-rainy" unicode="&#x686;" arabic-form="initial" 
d="M300 519q32 -20 40 -52t-10 -64t-50 -40t-64 8q-100 56 -156 152t-60 216q4 184 126 304t302 124q68 152 202 246t310 94q224 -4 378 -148t178 -364h40q148 -4 244 -100t96 -240t-96 -240t-244 -100q-36 0 -60 24t-24 60t24 60t60 24q72 4 122 52t50 120t-50 120t-122 52
h-168v84q-4 180 -126 302t-302 126q-164 -4 -278 -104t-142 -256q-44 16 -92 16q-108 0 -180 -72t-76 -184q0 -72 34 -130t94 -90v0zM728 739h256l-172 -340h172l-320 -596l64 424h-216zM1408 87q0 -84 -54 -140t-136 -56t-136 56t-58 140q12 108 96 226t96 130
q12 -12 96 -130t96 -226z" />
    <glyph glyph-name="weather-snowy-rainy" unicode="&#x686;" arabic-form="medial" 
d="M1496 46q-4 -84 -58 -140t-136 -56t-136 56t-54 140q12 108 96 226t96 130q12 -12 96 -130t96 -226zM256 158q-8 36 10 66t54 38l192 52l-140 140q-28 28 -28 64t26 62t62 26t64 -28l140 -140l52 192q8 36 40 54t68 8t52 -40t8 -66l-52 -192l192 48q36 12 68 -6t40 -54
t-8 -66t-52 -38l-192 -52l140 -140q24 -28 24 -64t-26 -62t-62 -26t-60 24l-140 144l-52 -192q-12 -40 -42 -56t-66 -6t-54 40t-10 66l52 192l-192 -52q-36 -8 -66 10t-42 54zM0 698q4 184 126 304t302 124q68 152 202 246t310 94q224 -4 378 -148t178 -364h40
q148 -4 244 -100t96 -240t-96 -240t-244 -100q-36 0 -60 24t-24 60t24 60t60 24q72 4 122 52t50 120t-50 120t-122 52h-168v84q-4 180 -126 302t-302 126q-164 -4 -278 -104t-142 -256q-44 16 -92 16q-108 0 -180 -72t-72 -184t72 -184q24 -24 24 -58t-26 -58t-60 -24
t-58 24q-60 60 -94 136t-34 164z" />
    <glyph glyph-name="yin-yang" unicode="&#x687;" arabic-form="isolated" 
d="M852 1507q364 -8 604 -248t248 -604q-8 -364 -248 -604t-604 -248q-364 8 -604 248t-248 604q8 364 248 604t604 248zM852 1339q-292 -8 -484 -200t-200 -484q8 -292 200 -484t484 -200q-144 4 -240 100t-96 242t96 242t240 100t240 100t96 242t-96 242t-240 100z
M852 1123q56 0 92 -36t36 -90t-36 -90t-92 -36t-92 36t-36 90t36 90t92 36zM852 443q-56 -4 -92 -40t-36 -90t36 -90t92 -36t92 36t36 90t-36 90t-92 40z" />
    <glyph glyph-name="tower-beach" unicode="&#x687;" arabic-form="final" 
d="M1196 1339v-344h84v-168h-32l288 -1112h-176l-48 188l-544 312l-544 -312l-48 -188h-176l288 1112h-32v168h84v344h-84v84l1024 172v-256h-84zM364 447l-80 -316l312 184zM1072 827h-608l-56 -208l360 -208l360 208zM1252 131l-80 316l-232 -132z" />
    <glyph glyph-name="tower-fire" unicode="&#x687;" arabic-form="initial" 
d="M1196 1339v-344h84v-168h-32l288 -1112h-176l-48 188l-544 312l-544 -312l-48 -188h-176l288 1112h-32v168h84v344h-84v84l512 172l512 -172v-84h-84zM364 447l-80 -316l312 184zM1072 827h-608l-56 -208l360 -208l360 208zM1252 131l-80 316l-232 -132z" />
    <glyph glyph-name="delete-circle" unicode="&#x687;" arabic-form="medial" 
d="M852 1507q364 -8 604 -248t248 -604q-8 -364 -248 -604t-604 -248q-364 8 -604 248t-248 604q8 364 248 604t604 248zM1280 1083h-216l-84 84h-256l-84 -84h-216v-172h856v172zM596 143h512q36 0 60 24t24 60v600h-680v-600q0 -36 24 -60t60 -24z" />
    <glyph glyph-name="dna" unicode="&#x68d;" arabic-form="isolated" 
d="M0 1507h172v-168q0 -92 42 -170t118 -154q116 -104 276 -208l-156 -100q-132 84 -236 188q-96 88 -154 198t-62 246v168zM1196 1507h172v-168q-4 -136 -62 -246t-152 -198t-202 -164t-222 -148t-216 -142t-180 -146t-120 -154t-42 -170v-168h-172v168q4 136 62 246
t152 198t202 164t222 148t216 142t180 146t120 154t42 170v168zM916 603q132 -84 236 -188q96 -88 154 -198t62 -246v-168h-172v168q0 92 -42 170t-118 154q-116 104 -276 208zM256 1423h856v-84l-8 -44h-840l-8 44v84zM316 1167h736q-28 -44 -76 -92l-44 -36h-500l-40 36
q-48 48 -76 92zM436 271h500l40 -36q48 -48 76 -92h-736q28 44 76 92zM264 15h840l8 -44v-84h-856v84z" />
    <glyph glyph-name="hamburger" unicode="&#x68d;" arabic-form="final" 
d="M0 315h1704v-172q0 -72 -48 -120t-120 -52h-1368q-72 4 -120 52t-48 120v172zM340 1339h1024q144 -4 240 -100t100 -244v-168h-1704v168q4 148 100 244t240 100zM168 739h940l172 -168l168 168h88q72 0 120 -48t48 -122t-48 -122t-120 -48h-1368q-72 0 -120 48t-48 122
t48 122t120 48z" />
    <glyph glyph-name="gondola" unicode="&#x68c;" arabic-form="isolated" 
d="M1376 807h-428v204l780 132l-20 124l-468 -76q8 20 8 40q0 56 -36 92t-92 36t-92 -36t-36 -86t28 -86l-72 -8v88h-168v-120l-52 -8q8 20 8 44q0 56 -36 92t-92 36t-92 -36t-36 -88t28 -84l-508 -84l20 -128l760 128v-176h-428q-72 -4 -120 -52t-52 -120v-512
q4 -72 52 -120t120 -52h1024q72 4 120 52t52 120v512q-4 72 -52 120t-120 52zM352 635h192v-340h-192v340zM672 295v340h384v-340h-384zM1376 295h-192v340h192v-340z" />
    <glyph glyph-name="inbox" unicode="&#x68c;" arabic-form="final" 
d="M1364 399h-340q-4 -108 -76 -180t-180 -72t-180 72t-76 180h-340v852h1192v-852zM1364 1423h-1192q-76 0 -124 -50t-48 -122v-1192q0 -72 50 -122t122 -50h1192q72 0 122 50t50 122v1192q0 72 -50 122t-122 50z" />
    <glyph glyph-name="reorder-horizontal" unicode="&#x68e;" arabic-form="isolated" 
d="M0 399h1536v172h-1536v-172zM0 59h1536v168h-1536v-168zM0 739h1536v172h-1536v-172zM0 1251v-168h1536v168h-1536z" />
    <glyph glyph-name="reorder-vertical" unicode="&#x68e;" arabic-form="final" 
d="M340 1423v-1536h172v1536h-172zM0 1423v-1536h168v1536h-168zM680 1423v-1536h172v1536h-172zM1192 1423h-168v-1536h168v1536z" />
    <glyph glyph-name="security-home" unicode="&#x688;" arabic-form="isolated" 
d="M684 571h168v-256h256v424h172l-512 428l-512 -428h172v-424h256v256zM768 1595l768 -344v-512q-8 -364 -220 -648t-548 -376q-336 92 -548 376t-220 648v512z" />
    <glyph glyph-name="tag-heart" unicode="&#x688;" arabic-form="final" 
d="M1656 691l-768 768q-48 48 -120 48h-600q-72 0 -120 -48t-48 -120v-600q0 -72 48 -120l768 -768q48 -48 120 -48t120 48l600 600q48 48 48 120t-48 120zM296 1083q-52 0 -88 36t-36 90t36 90t90 36t90 -36t36 -90t-36 -90t-92 -36zM1300 375l-364 -364l-364 364
q-60 60 -60 152t60 152t152 60t152 -60l60 -64l64 64q60 60 150 60t150 -60t60 -152t-60 -152z" />
    <glyph glyph-name="skull" unicode="&#x698;" arabic-form="isolated" 
d="M768 1507q-328 -8 -544 -224t-224 -544q0 -196 90 -362t250 -274v-300h172v256h172v-256h168v256h172v-256h172v300q160 108 250 276t90 360q-8 328 -224 544t-544 224zM428 739q72 0 120 -48t48 -120t-48 -122t-120 -50t-122 50t-50 122t50 120t122 48zM1108 739
q72 0 122 -48t50 -120t-50 -122t-122 -50t-120 50t-48 122t48 120t120 48zM768 483l128 -256h-256z" />
    <glyph glyph-name="solid" unicode="&#x698;" arabic-form="final" 
d="M0 1679h2048v-2048h-2048v2048z" />
    <glyph glyph-name="alarm-snooze" unicode="&#x691;" arabic-form="isolated" 
d="M500 1385l-108 128l-392 -328l108 -128zM1704 1185l-392 328l-108 -128l392 -332zM852 1333q-328 -8 -544 -226t-224 -542q8 -328 224 -544t544 -224q328 8 544 224t224 544q-8 324 -224 542t-544 226zM852 -35q-256 8 -424 176t-172 424q4 252 172 420t424 176
q256 -8 424 -176t172 -420q-4 -256 -172 -424t-424 -176zM596 733h308l-308 -356v-156h512v172h-308l308 360v152h-512v-172z" />
    <glyph glyph-name="baby-buggy" unicode="&#x691;" arabic-form="final" 
d="M936 1507v-680h684q-8 288 -200 482t-484 198zM1476 323q68 88 106 194t38 222h-1244l-80 172h-296v-172h188l84 -176q72 -156 96 -200q-72 -40 -114 -108t-42 -156q4 -124 88 -210t212 -86q112 0 194 72t98 184h180q16 -112 98 -184t198 -72q124 0 210 86t86 210
q-4 140 -100 224zM512 -29q-56 4 -92 40t-36 90t36 90t90 36t90 -36t36 -90t-36 -90t-88 -40zM1280 -29q-56 4 -92 40t-36 90t36 90t90 36t90 -36t36 -90t-36 -90t-88 -40z" />
    <glyph glyph-name="beaker" unicode="&#x6a9;" arabic-form="isolated" 
d="M0 1423h1536v-172q-72 0 -120 -48t-52 -120v-1024q0 -72 -48 -122t-120 -50h-856q-72 0 -120 50t-48 122v1024q-4 72 -52 120t-120 48v172zM340 1251v-168h428v-88h-428v-84h256v-84h-256v-88h256v-84h-256v-84h428v-88h-428v-84h256v-84h-256v-256h856v1192h-856z" />
    <glyph glyph-name="bomb" unicode="&#x6a9;" arabic-form="final" 
d="M532 1125q4 116 82 196t196 80t196 -80t82 -196q0 -28 18 -46t46 -18t46 18t18 46v64h128v-64q-4 -80 -58 -134t-136 -54t-136 54t-54 134q-4 64 -46 106t-106 42t-106 -42t-42 -106h108v-112q188 -56 304 -210t120 -362q-4 -252 -172 -420t-424 -176q-256 8 -424 176
t-172 420q4 208 120 362t304 210v112h108zM1448 1125h172v-84h-172v84zM1192 1297v168h88v-168h-88zM1356 1265l120 120l64 -60l-124 -124z" />
    <glyph glyph-name="calendar-question" unicode="&#x6a9;" arabic-form="initial" 
d="M256 1509v-172h-84q-76 0 -124 -50t-48 -122v-1192q0 -72 50 -122t122 -50h1192q72 0 122 50t50 122v1192q0 72 -50 122t-122 50h-84v172h-172v-172h-680v172h-172zM172 909h1192v-936h-1192v936zM784 825q-112 0 -180 -50t-64 -150v-4h164q0 40 24 60t60 20t60 -26
t24 -66t-20 -68t-52 -48q-68 -44 -92 -80t-24 -100h168q0 40 12 64t44 44q56 28 94 78t38 114q0 96 -68 154t-188 58zM684 229v-172h168v172h-168z" />
    <glyph glyph-name="camera-burst" unicode="&#x6a9;" arabic-form="medial" 
d="M0 1251h172v-1192h-172v1192zM344 1251h168v-1192h-168v1192zM1792 1251h-1024q-36 0 -60 -24t-24 -60v-1024q0 -36 24 -60t60 -24h1024q36 0 60 24t28 60v1024q-4 36 -28 60t-60 24zM856 227l212 272l152 -184l216 272l272 -360h-852z" />
    <glyph glyph-name="code-tags-check" unicode="&#x6af;" arabic-form="isolated" 
d="M392 1469l-392 -392l392 -392l120 120l-272 272l272 272zM888 1469l-120 -120l272 -272l-272 -272l120 -120l392 392zM1672 773l-692 -692l-312 316l-120 -120l432 -436l812 812z" />
    <glyph glyph-name="coins" unicode="&#x6af;" arabic-form="final" 
d="M1192 1339q292 -8 484 -200t200 -484q-8 -292 -200 -484t-484 -200q-292 8 -484 200t-200 484q8 292 200 484t484 200zM1192 143q216 4 362 150t150 362q-4 216 -150 362t-362 150q-216 -4 -362 -150t-150 -362q4 -216 150 -362t362 -150zM168 655q4 -168 96 -298
t244 -186v-176q-224 60 -366 238t-142 422t142 422t366 238v-176q-152 -56 -244 -186t-96 -298z" />
    <glyph glyph-name="crop-rotate" unicode="&#x6af;" arabic-form="initial" 
d="M636 -157q-212 104 -348 294t-160 434h-128q40 -404 324 -668t696 -272q28 0 56 4l-324 324zM1028 1679q-28 0 -56 -4l324 -324l116 116q212 -104 348 -294t160 -434h128q-40 404 -324 668t-696 272zM1364 483h172v512q0 76 -50 124t-122 48h-512v-172h512v-512zM684 315
v1024h-172v-172h-172v-172h172v-680q0 -72 50 -122t122 -50h680v-172h172v172h172v172h-1024z" />
    <glyph glyph-name="developer-board" unicode="&#x6af;" arabic-form="medial" 
d="M1704 911v172h-168v168q-4 72 -52 122t-120 50h-1196q-72 0 -120 -50t-48 -122v-1192q0 -72 48 -122t120 -50h1196q72 0 120 50t52 122v168h168v172h-168v172h168v168h-168v172h168zM1364 59h-1196v1192h1196v-1192zM340 571h428v-344h-428v344zM852 1083h340v-256h-340
v256zM340 1083h428v-428h-428v428zM852 739h340v-512h-340v512z" />
    <glyph glyph-name="do-not-disturb" unicode="&#x6b3;" arabic-form="isolated" 
d="M852 1507q-364 -8 -604 -248t-248 -604q8 -364 248 -604t604 -248q364 8 604 248t248 604q-8 364 -248 604t-604 248zM1280 571h-856v168h856v-168z" />
    <glyph glyph-name="do-not-disturb-off" unicode="&#x6b3;" arabic-form="final" 
d="M1368 783v-168h-124l396 -400q72 104 112 226t40 258q-8 364 -248 604t-604 248q-136 0 -258 -40t-226 -112l616 -616h296zM108 1531l-108 -112l240 -236q-72 -104 -112 -226t-40 -258q8 -364 248 -604t604 -248q136 0 258 40t226 112l236 -240l112 108zM512 615v168h124
l172 -168h-296z" />
    <glyph glyph-name="douban" unicode="&#x6b3;" arabic-form="initial" 
d="M1368 1167h-1368v172h1368v-172zM1368 143v-172h-1368v172h284l-88 340h-108v512h1192v-512h-108l-88 -340h284zM256 655h856v172h-856v-172zM464 143h440l92 340h-624z" />
    <glyph glyph-name="emoticon-dead" unicode="&#x6b3;" arabic-form="medial" 
d="M852 1507q-364 -8 -604 -248t-248 -604q8 -364 248 -604t604 -248q364 8 604 248t248 604q-8 364 -250 604t-602 248zM852 -29q-292 8 -484 200t-200 484q8 292 200 484t484 200q292 -8 484 -200t200 -484q-8 -292 -200 -484t-484 -200zM1208 1015l-88 -88l-92 88
l-92 -88l92 -92l-92 -88l92 -92l92 92l88 -92l92 92l-92 88l92 92zM496 655l88 92l92 -92l92 92l-92 88l92 92l-92 88l-92 -88l-88 88l-92 -88l92 -92l-92 -88zM852 483q-152 0 -268 -82t-168 -214h872q-52 132 -168 214t-268 82z" />
    <glyph glyph-name="emoticon-excited" unicode="&#x6b1;" arabic-form="isolated" 
d="M852 1507q-364 -8 -604 -248t-248 -604q8 -364 248 -604t604 -248q364 8 604 248t248 604q-8 364 -250 604t-602 248zM852 -29q-292 8 -484 200t-200 484q8 292 200 484t484 200q292 -8 484 -200t200 -484q-8 -292 -200 -484t-484 -200zM936 831l92 -92l92 92l88 -92
l92 92l-180 180zM584 831l92 -92l92 92l-184 180l-180 -180l92 -92zM852 187q152 0 268 82t168 214h-872q52 -132 168 -214t268 -82z" />
    <glyph glyph-name="folder-star" unicode="&#x6b1;" arabic-form="final" 
d="M1536 1167h-684l-172 172h-512q-72 -4 -120 -52t-48 -120v-1024q0 -72 48 -120t120 -52h1368q72 4 120 52t48 120v852q0 72 -48 122t-120 50zM1360 227l-252 148l-252 -148l68 284l-220 192l288 24l116 268l116 -268l288 -24l-220 -192z" />
    <glyph glyph-name="format-color-text" unicode="&#x6b1;" arabic-form="initial" 
d="M354 485l204 540l204 -540h-408zM474 1253l-472 -1196h192l96 256h536l96 -256h192l-472 1196h-168z" />
    <glyph glyph-name="format-section" unicode="&#x6b1;" arabic-form="medial" 
d="M870 1303q-124 72 -272 72q-104 0 -170 -46t-70 -126q4 -84 80 -132t204 -88q164 -48 268 -128t108 -232q-4 -84 -44 -156t-108 -120q84 -84 84 -200q-8 -180 -138 -262t-298 -82q-188 -4 -352 96l56 128q136 -92 300 -92q112 0 182 48t74 140q4 76 -60 130t-220 106
q-180 60 -286 140t-110 224q4 84 50 156t118 112q-80 76 -84 192q4 152 122 238t298 86q168 0 316 -76zM502 535q136 -44 260 -112q88 68 88 176q0 64 -48 120t-160 96q-140 48 -280 116q-48 -28 -76 -76t-28 -108t56 -114t188 -98z" />
    <glyph glyph-name="gradient" unicode="&#x6ba;" arabic-form="isolated" 
d="M684 911h168v-172h-168v172zM512 739h172v-168h-172v168zM852 739h172v-168h-172v168zM1024 911h172v-172h-172v172zM340 911h172v-172h-172v172zM1364 1423h-1192q-72 0 -122 -50t-50 -122v-1192q0 -72 50 -122t122 -50h1192q72 0 122 50t50 122v1192q0 72 -50 122
t-122 50zM512 143h-172v172h172v-172zM852 143h-168v172h168v-172zM1196 143h-172v172h172v-172zM1364 739h-168v-168h168v-172h-168v172h-172v-172h-172v172h-168v-172h-172v172h-172v-172h-168v172h168v168h-168v512h1192v-512z" />
    <glyph glyph-name="home-outline" unicode="&#x6ba;" arabic-form="final" 
d="M588 21v512h512v-512h256v688l-512 512l-512 -512v-688h256zM844 1461l844 -844h-160v-768h-600v512h-168v-512h-600v768h-160z" />
    <glyph glyph-name="message-bulleted" unicode="&#x6bb;" arabic-form="isolated" 
d="M1536 1507h-1368q-72 0 -120 -48t-48 -120v-1536l340 340h1196q72 0 120 50t48 122v1024q0 72 -48 120t-120 48zM512 483h-172v172h172v-172zM512 739h-172v172h172v-172zM512 995h-172v172h172v-172zM1108 483h-428v172h428v-172zM1364 739h-684v172h684v-172zM1364 995
h-684v172h684v-172z" />
    <glyph glyph-name="message-bulleted-off" unicode="&#x6bb;" arabic-form="final" 
d="M108 1593l-108 -108l172 -172v-1448l340 340h768l488 -488l108 108zM684 545h-172v172h172v-172zM512 801v172l172 -172h-172zM1708 1569h-1360l504 -504v164h684v-172h-676l84 -84h592v-172h-420l596 -596q72 4 118 52t46 120v1024q0 72 -48 120t-120 48z" />
    <glyph glyph-name="nuke" unicode="&#x6bb;" arabic-form="initial" 
d="M1028 655h-348v84h-384q-124 4 -210 88t-86 212t86 212t210 88q136 -4 224 -100q28 120 118 194t214 74t214 -74t118 -194q88 96 224 100q124 -4 210 -88t86 -212t-86 -212t-210 -88h-380v-84zM680 235v100h-424v168h1192v-168h-420v-100l508 -184q36 -16 60 -48t24 -72
q0 -56 -36 -92t-92 -36h-1280q-56 0 -92 36t-36 92q0 40 24 72t60 48z" />
    <glyph glyph-name="power-plug" unicode="&#x6bb;" arabic-form="medial" 
d="M898 1083v340h-168v-340h-344v340h-168v-340q-68 -4 -118 -54t-54 -118v-468l300 -300v-256h424v256l300 300v468q-4 68 -54 118t-118 54z" />
    <glyph glyph-name="power-plug-off" unicode="&#x6c0;" arabic-form="isolated" 
d="M512 1467v-272q392 -392 784 -776q12 16 34 34t34 42v476q-4 72 -62 110t-110 58v328h-168v-340h-344v340h-168zM108 1383l-108 -108l340 -344v-444l300 -300v-256h424v256q16 12 30 -8t30 -28l296 -308q64 56 112 112q-720 712 -1424 1424v4z" />
    <glyph glyph-name="publish" unicode="&#x6c0;" arabic-form="final" 
d="M0 1339v-172h1192v172h-1192zM0 483h340v-512h512v512h340l-596 600z" />
    <glyph glyph-name="restore" unicode="&#x6c1;" arabic-form="isolated" 
d="M1024 1423q-324 -8 -542 -224t-226 -544h-256l332 -332l8 -12l344 344h-256q8 256 176 424t420 172q256 -4 424 -172t176 -424q-8 -256 -176 -424t-424 -172q-124 0 -232 46t-188 130l-120 -124q104 -104 242 -164t298 -60q328 8 544 224t224 544q-8 328 -224 544
t-544 224zM940 995v-424l364 -220l64 104l-300 180v360h-128z" />
    <glyph glyph-name="robot" unicode="&#x6c1;" arabic-form="final" 
d="M940 1507q72 0 120 -48t52 -120q0 -48 -24 -88t-64 -60v-108h88q252 -8 420 -176t176 -424h84q36 0 60 -24t28 -60v-256q-4 -36 -28 -60t-60 -24h-84v-88q0 -72 -50 -120t-122 -48h-1192q-72 0 -122 48t-50 120v88h-84q-36 0 -60 24t-28 60v256q4 36 28 60t60 24h84
q8 256 176 424t420 176h88v108q-40 20 -64 60t-24 88q4 72 52 120t120 48zM556 571q-92 -4 -152 -64t-60 -150t60 -150t152 -60t152 60t60 150t-60 150t-152 64zM1324 571q-92 -4 -152 -64t-60 -150t60 -150t152 -60t152 60t60 150t-60 150t-152 64z" />
    <glyph glyph-name="format-rotate-90" unicode="&#x6c1;" arabic-form="initial" 
d="M556 1077l-556 -552l556 -552l552 552zM244 525l312 312l312 -312l-312 -312zM1580 1057q-112 116 -252 172t-292 56v276l-360 -364l360 -360v276q116 0 226 -44t198 -132q176 -184 176 -422t-176 -422q-88 -88 -198 -132t-226 -44q-124 0 -240 52l-128 -124
q172 -96 368 -96q152 0 292 56t252 168q224 236 224 542t-224 542z" />
    <glyph glyph-name="scanner" unicode="&#x6c1;" arabic-form="medial" 
d="M1432 811l-1328 484l-60 -160l1200 -436h-1072q-72 0 -122 -50t-50 -122v-340q0 -72 50 -120t122 -52h1192q72 4 122 52t50 120v468q0 56 -28 98t-76 58zM340 271h-168v172h168v-172zM1364 271h-852v172h852v-172z" />
    <glyph glyph-name="subway" unicode="&#x6be;" arabic-form="isolated" 
d="M552 397q36 0 60 -24t24 -60t-24 -60t-60 -24t-60 24t-24 60t24 60t60 24zM424 909h856v-428h-856v428zM1152 397q36 0 60 -24t24 -60t-24 -60t-60 -24t-60 24t-24 60t24 60t60 24zM1364 321v588q-4 164 -150 212t-362 44q-200 4 -352 -44t-160 -212v-588q4 -96 66 -158
t158 -66l-96 -96v-32h144l128 128h240l128 -128h128v32l-96 96q96 4 158 66t66 158zM1348 1437q172 -68 264 -202t92 -314v-1120h-1704v1120q0 180 92 314t264 202q116 44 246 58t250 14t250 -14t246 -58z" />
    <glyph glyph-name="timer-sand-empty" unicode="&#x6be;" arabic-form="final" 
d="M46 1507v-512l340 -340l-340 -340v-512h1024v512l-340 340l340 340v512h-1024zM898 271v-300h-680v300l340 340zM558 699l-340 340v300h680v-300z" />
    <glyph glyph-name="transit-transfer" unicode="&#x6be;" arabic-form="initial" 
d="M1236 377h468v-128h-468v-148l-212 212l212 216v-152zM1492 17v148l212 -212l-212 -216v152h-468v128h468zM640 1233q-72 0 -122 48t-50 120t50 122t122 50t120 -50t48 -122t-48 -120t-120 -48zM320 941l-152 -64v-284h-168v400l448 184q32 12 64 12q92 -4 144 -80
l80 -136q60 -96 156 -152t216 -60v-168q-140 0 -260 58t-204 162l-52 -256l176 -176v-644h-172v512l-184 172l-148 -684h-180z" />
    <glyph glyph-name="unity" unicode="&#x6be;" arabic-form="medial" 
d="M640 227h-220l-420 428l420 428h220l112 192l580 148l160 -576l-112 -192l112 -192l-160 -576l-580 148zM652 251l440 -120l-252 440h-508zM1240 219l116 436l-116 436l-252 -436zM652 1059l-320 -320h508l252 440z" />
    <glyph glyph-name="update" unicode="&#x6d2;" arabic-form="isolated" 
d="M1536 815h-580l236 240q-184 176 -422 178t-422 -170q-176 -180 -176 -416t176 -420q184 -172 422 -172t422 172q172 172 172 420h172q0 -132 -56 -278t-168 -258q-236 -224 -544 -224t-544 224q-224 232 -224 536t224 536q236 224 540 224t540 -224l232 240v-608z
M812 995v-360l296 -180l-60 -104l-364 220v424h128z" />
    <glyph glyph-name="watch-vibrate" unicode="&#x6d2;" arabic-form="final" 
d="M256 225v856h172v-856h-172zM1620 225v856h172v-856h-172zM1876 909h172v-512h-172v512zM0 397v512h172v-512h-172zM1532 657q0 -124 -52 -228t-140 -176l-64 -364h-508l-64 364q-88 72 -140 176t-52 226t52 226t140 176l64 364h508l64 -364q88 -72 140 -176t52 -224z
M640 657q4 -164 112 -272t270 -108t270 108t108 270t-108 270t-270 108t-270 -108t-112 -268z" />
    <glyph glyph-name="angular" unicode="&#x6d3;" arabic-form="isolated" 
d="M756 1467l756 -272l-116 -996l-640 -356l-640 356l-116 996zM756 1287l-472 -1060h176l96 240h400l96 -240h172zM896 611h-276l136 332z" />
    <glyph glyph-name="dolby" unicode="&#x6d3;" arabic-form="final" 
d="M0 1251v-1192h1704v1192h-1704zM340 227h-172v856h172q188 -12 308 -132t120 -296t-120 -296t-308 -132zM1536 227h-172q-188 12 -308 132t-120 296t120 296t308 132h172v-856z" />
    <glyph glyph-name="flash-outline" unicode="&#x6ad;" arabic-form="isolated" 
d="M130 1507h856l-300 -596h300l-600 -1108v680h-256v1024zM302 1339v-684h256v-228l172 312h-324l304 600h-408z" />
    <glyph glyph-name="format-font" unicode="&#x6ad;" arabic-form="final" 
d="M1196 995h256v-1024h84v-84h-340v84h84v256h-340l-128 -256h128v-84h-344v84h88zM1280 911l-300 -596h300v596zM172 1423h424q76 0 124 -48t48 -124v-936h-256v424h-256v-424h-256v936q0 76 48 124t124 48zM256 1251v-340h256v340h-256z" />
    <glyph glyph-name="format-page-break" unicode="&#x6ad;" arabic-form="initial" 
d="M340 739h172v-168h-172v168zM684 739h168v-168h-168v168zM1364 227h-340v500l512 -512v-412h-1536v768h172v-600h1192v256zM0 1507h1536v-768h-172v600h-1192v-600h-172v768z" />
    <glyph glyph-name="format-pilcrow" unicode="&#x6ad;" arabic-form="medial" 
d="M384 739q-144 4 -240 100t-96 242t96 242t240 100h684v-172h-172v-1364h-168v1364h-172v-1364h-172v852z" />
    <glyph glyph-name="garage" unicode="&#x6c7;" arabic-form="isolated" 
d="M1192 15h-168v768h-856v-768h-168v940l596 340l596 -340v-940zM256 699h680v-172h-680v172zM256 443h680v-172h-680v172zM936 187v-172h-680v172h680z" />
    <glyph glyph-name="garage-open" unicode="&#x6c7;" arabic-form="final" 
d="M1192 15h-168v768h-856v-768h-168v940l596 340l596 -340v-940zM256 699h680v-172h-680v172z" />
    <glyph glyph-name="github-face" unicode="&#x6c6;" arabic-form="isolated" 
d="M1568 993q12 28 24 122t-40 230q0 8 -88 -4t-280 -132q-160 36 -332 32q-172 4 -332 -32q-192 124 -280 134t-88 2q-52 -136 -40 -230t24 -122q-132 -140 -136 -356q4 -404 238 -544t614 -132q376 -8 612 132t240 544q-4 216 -136 356zM852 69q-272 -12 -452 48t-184 308
q0 124 108 220q88 72 224 64t304 -16q168 8 304 16t224 -64q108 -96 112 -220q-8 -244 -188 -306t-452 -50zM584 601q-52 0 -90 -54t-38 -134t38 -136t92 -56t90 54t36 136t-36 136t-92 54zM1120 601q-56 0 -92 -54t-36 -136t36 -136t90 -54t92 54t38 136t-36 136t-92 54z
" />
    <glyph glyph-name="google-keep" unicode="&#x6c6;" arabic-form="final" 
d="M168 1507h1368q72 0 120 -48t48 -120v-1140l-396 -396h-1140q-72 0 -120 48t-48 120v1368q0 72 48 120t120 48zM1280 227v-276l276 276h-276zM680 59h344v84h84v428q80 56 124 146t48 194q-4 180 -126 302t-302 126q-180 -4 -302 -126t-126 -302q4 -104 48 -194t124 -146
v-428h84v-84zM1024 227h-344v88h344v-88zM1024 399h-344v84h344v-84zM852 1251q144 -4 240 -100t100 -240q0 -96 -46 -174t-122 -122v-44h-344v44q-76 44 -122 122t-46 174q4 144 100 240t240 100z" />
    <glyph glyph-name="google-photos" unicode="&#x6c8;" arabic-form="isolated" 
d="M1280 655v428l-428 424v-424h-428l-424 -428h424v-428l428 -424v424h428l424 428h-424zM928 579l-76 -224l-76 224l-224 76l224 76l76 228l76 -228l224 -76z" />
    <glyph glyph-name="heart-half-full" unicode="&#x6c8;" arabic-form="final" 
d="M1236 1265q-100 0 -180 -52t-120 -136v-896q276 244 436 430t164 358q-4 128 -86 212t-214 84zM1236 1437q200 -4 332 -136t136 -332q-4 -236 -200 -464t-528 -520l-124 -112l-124 112q-332 292 -528 520t-200 464q4 200 136 332t332 136q112 0 212 -48t172 -128
q72 80 172 128t212 48z" />
    <glyph glyph-name="heart-half" unicode="&#x677;" arabic-form="isolated" 
d="M1026 1077v-1128l-84 -76l-124 112q-332 292 -528 520t-200 464q4 200 136 332t332 136q168 -4 314 -108t154 -252z" />
    <glyph glyph-name="heart-half-outline" unicode="&#x6cb;" arabic-form="isolated" 
d="M258 969q4 -172 164 -358t436 -430v896q-40 84 -120 136t-180 52q-132 0 -214 -84t-86 -212zM1026 1077v-1128l-84 -76l-124 112q-332 292 -528 520t-200 464q4 200 136 332t332 136q168 -4 314 -108t154 -252z" />
    <glyph glyph-name="hexagon-multiple" unicode="&#x6cb;" arabic-form="final" 
d="M620 1507q24 0 36 -20l188 -340l8 -24l-8 -24l-188 -336q-12 -20 -36 -24h-384q-28 4 -40 24l-188 336l-8 24l8 24l188 340q12 20 40 20h384zM620 571q24 -4 36 -24l188 -336l8 -24l-8 -24l-188 -340q-12 -20 -36 -20h-384q-28 0 -40 20l-188 340l-8 24l8 24l188 336
q12 20 40 24h384zM1408 1039q24 0 36 -24l192 -336l8 -24l-8 -24l-192 -336q-12 -24 -36 -24h-384q-24 0 -36 24l-192 336l-8 24l8 24l192 336q12 24 36 24h384z" />
    <glyph glyph-name="hook" unicode="&#x6c5;" arabic-form="isolated" 
d="M1112 1169q0 -120 -70 -210t-186 -118v-612q-4 -180 -124 -300t-304 -124q-180 4 -300 124t-124 300v428l424 -428h-256q4 -108 76 -180t182 -72t182 72t72 180v612q-112 32 -182 122t-74 210q4 144 102 238t242 94t240 -96t100 -240zM772 997q72 4 120 52t48 120
t-48 120t-120 48t-122 -48t-50 -120t50 -120t122 -52z" />
    <glyph glyph-name="hook-off" unicode="&#x6c5;" arabic-form="final" 
d="M936 839v-116l172 -168v284q140 40 210 156t32 256t-154 210t-258 34t-210 -154t-36 -258q24 -92 90 -156t154 -88zM1024 1339q72 -4 120 -52t48 -120t-48 -120t-120 -48t-122 48t-50 120t50 120t122 52zM1428 -197l-332 328q-48 -172 -194 -262t-322 -50
q-144 36 -234 148t-90 260v428l424 -428h-256q4 -108 76 -180t182 -72t182 72t72 180v64l-936 940l108 108l1428 -1428z" />
    <glyph glyph-name="infinity" unicode="&#x6c9;" arabic-form="isolated" 
d="M1588 1115q196 -4 326 -134t134 -326q-4 -196 -134 -324t-326 -136q-192 4 -328 136l-236 208l-240 -212q-64 -64 -148 -98t-176 -34q-196 4 -326 134t-134 326q4 196 134 326t326 134q192 -4 328 -136l236 -208l240 212q64 64 148 98t176 34zM664 451l232 204l-228 200
q-88 88 -210 86t-204 -82t-82 -204t82 -204t204 -82t206 82zM1384 859l-232 -204l228 -200q88 -88 210 -86t204 82t82 204t-82 204t-204 82t-206 -82z" />
    <glyph glyph-name="language-swift" unicode="&#x6c9;" arabic-form="final" 
d="M1288 -5q-156 -88 -352 -92t-404 84q-172 72 -308 190t-224 266q84 -72 196 -120q216 -100 418 -98t358 98q-216 168 -396 366t-320 378q-52 60 -96 128q524 -404 546 -426t-338 510q324 -316 558 -486t246 -174l32 -16q12 32 20 64q48 184 0 380t-176 372
q296 -184 442 -472t78 -572q-4 -12 -4 -32q136 -192 140 -332t-24 -116q-84 144 -200 142t-192 -42z" />
    <glyph glyph-name="language-typescript" unicode="&#x6d0;" arabic-form="isolated" 
d="M0 1423h1536v-1536h-1536v1536zM912 155q32 -64 98 -106t170 -42t170 52t66 148q0 88 -50 140t-142 88l-36 16q-44 20 -66 38t-22 50q4 56 66 60t98 -60l108 72q-68 120 -204 116q-96 -4 -152 -56t-56 -138t46 -134t126 -80l36 -16q48 -20 76 -40t28 -54t-26 -54t-76 -20
t-82 24t-56 64zM852 719h-424v-128h128v-620h148v620h148v128z" />
    <glyph glyph-name="laptop-off" unicode="&#x6d0;" arabic-form="final" 
d="M84 1357l112 108l1512 -1512l-108 -108l-172 168h-1428v172h340q-72 0 -120 50t-48 122v852q0 28 8 52zM340 357h748l-748 744v-744zM1708 357v852h-1040l-172 172h1212q72 -4 120 -52t48 -120v-852q0 -72 -48 -122t-120 -50h340v-172h-188l-340 344h188z" />
    <glyph glyph-name="lightbulb-on" unicode="&#x6d0;" arabic-form="initial" 
d="M940 1167q216 -4 362 -150t150 -362q0 -144 -70 -260t-186 -184v-152q0 -36 -24 -60t-60 -28h-344q-36 4 -60 28t-24 60v152q-116 68 -186 184t-70 260q4 216 150 362t362 150zM1112 -113v-84q-4 -36 -28 -60t-60 -28h-168q-36 4 -60 28t-28 60v84h344zM1624 739h256
v-168h-256v168zM0 739h256v-168h-256v168zM1024 1595v-256h-168v256h168zM336 1379l180 -180l-120 -120l-180 180zM1364 1199l180 180l120 -120l-180 -180z" />
    <glyph glyph-name="lightbulb-on-outline" unicode="&#x6d0;" arabic-form="medial" 
d="M1624 739h256v-168h-256v168zM0 739h256v-168h-256v168zM1024 1595v-256h-168v256h168zM336 1379l180 -180l-120 -120l-180 180zM1364 1199l180 180l120 -120l-180 -180zM940 1167q216 -4 362 -150t150 -362q0 -144 -70 -260t-186 -184v-152q0 -36 -24 -60t-60 -28h-344
q-36 4 -60 28t-24 60v152q-116 68 -186 184t-70 260q4 216 150 362t362 150zM1112 -113v-84q-4 -36 -28 -60t-60 -28h-168q-36 4 -60 28t-28 60v84h344zM856 143h168v180q116 32 186 122t70 210q-4 144 -100 240t-240 96t-240 -96t-100 -240q0 -120 70 -210t186 -122v-180z
" />
    <glyph glyph-name="lock-pattern" unicode="&#x649;" arabic-form="initial" 
d="M340 1421q148 -4 244 -100t100 -240q-4 -124 -74 -212t-182 -120v-192q48 -12 88 -36l384 384q-44 80 -48 176q4 144 100 240t242 96t242 -96t96 -242t-96 -242t-240 -100q-96 4 -172 48l-388 -388q44 -76 48 -172q-4 -144 -100 -240t-242 -96t-242 96t-100 240
q4 124 74 212t182 120v192q-112 32 -182 120t-74 212q4 144 100 240t240 100zM1196 569q144 -4 240 -100t96 -242t-96 -242t-242 -96t-242 96t-96 242t96 242t244 100zM1196 397q-72 0 -122 -50t-50 -122t50 -120t122 -48t120 48t48 120t-48 122t-120 50z" />
    <glyph glyph-name="loop" unicode="&#x649;" arabic-form="medial" 
d="M596 525v-596h-596v172h304q-104 108 -162 250t-58 302q8 348 238 576t574 236q344 -8 572 -236t236 -576q-8 -344 -236 -572t-572 -236h-44v168h44q272 8 452 188t188 452q-8 272 -188 454t-452 186q-272 -4 -454 -186t-186 -454q0 -124 44 -236t124 -196v304h172z" />
    <glyph glyph-name="magnify-minus-outline" unicode="&#xfbea;" arabic-form="isolated" 
d="M1068 461h-68l-24 24q64 72 98 164t34 196q-4 236 -160 394t-392 162q-236 -4 -394 -162t-162 -394q4 -236 162 -392t394 -160q104 0 196 34t164 98l24 -24v-68l424 -424l128 128zM556 461q-164 4 -272 112t-108 272t108 272t272 108t272 -108t108 -272t-108 -272
t-272 -112zM340 889h428v-84h-428v84z" />
    <glyph glyph-name="magnify-plus-outline" unicode="&#xfbeb;" arabic-form="final" 
d="M1068 461l424 -424l-128 -128l-424 424v68l-24 24q-72 -64 -164 -98t-196 -34q-236 4 -394 160t-162 392q4 236 162 394t394 162q236 -4 392 -162t160 -394q0 -104 -34 -196t-98 -164l24 -24h68zM556 461q164 4 272 112t108 272t-108 272t-272 108t-272 -108t-108 -272
t108 -272t272 -112zM768 805h-172v-172h-84v172h-172v84h172v172h84v-172h172v-84z" />
    <glyph glyph-name="mailbox" unicode="&#xfbec;" arabic-form="isolated" 
d="M1536 1081h-856v-512h-168v684h512v340h-684v-512h-172q-72 0 -120 -50t-48 -122v-1024q0 -72 48 -120t120 -48h1368q72 0 120 48t48 120v1024q0 72 -48 122t-120 50z" />
    <glyph glyph-name="medical-bag" unicode="&#xfbed;" arabic-form="final" 
d="M681 1423l-168 -172v-168h-256q-76 -4 -120 -54t-52 -118l-84 -852q-8 -68 34 -118t134 -54h1368q92 4 134 54t34 118l-84 852q-8 68 -54 118t-118 54h-256v168l-168 172h-344zM681 1251h344v-168h-344v168zM769 827h168v-256h256v-172h-256v-256h-168v256h-256v172h256
v256z" />
    <glyph glyph-name="message-settings" unicode="&#xfbee;" arabic-form="isolated" 
d="M1536 1593h-1368q-72 0 -120 -48t-48 -120v-1536l340 340h1196q72 0 120 50t48 122v1024q0 72 -48 120t-120 48zM768 -283h168v172h-168v-172zM424 -283h172v172h-172v-172zM1108 -283h172v172h-172v-172z" />
    <glyph glyph-name="message-settings-variant" unicode="&#xfbef;" arabic-form="final" 
d="M980 827q0 -56 -36 -92t-92 -36t-92 36t-36 90t36 90t92 36t92 -36t36 -88zM1704 1339v-1024q0 -72 -48 -122t-120 -50h-1196l-340 -340v1536q0 72 48 120t120 48h1368q72 0 120 -48t48 -120zM1260 715l-92 68q0 20 2 42t-2 42l92 72q12 12 4 28l-88 148q-8 16 -24 8
l-108 -40q-32 24 -72 40l-16 112q-4 16 -20 16h-168q-20 0 -24 -16l-16 -112q-36 -16 -72 -40l-108 40q-16 8 -24 -8l-84 -148q-8 -16 4 -28l88 -72q-4 -40 0 -84l-88 -68q-12 -12 -4 -28l84 -148q8 -16 24 -12l108 44q32 -28 72 -44l16 -112q4 -16 24 -16h168q20 0 24 16
l16 116q36 16 72 40l104 -44q20 -4 28 12l84 148q8 16 -4 28z" />
    <glyph glyph-name="minus-box-outline" unicode="&#xfbf0;" arabic-form="isolated" 
d="M1364 59v1192h-1192v-1192h1192zM1364 1423q72 0 122 -50t50 -122v-1192q0 -72 -50 -122t-122 -50h-1192q-72 0 -122 50t-50 122v1192q0 76 50 124t122 48h1192zM1196 739v-168h-856v168h856z" />
    <glyph glyph-name="network" unicode="&#xfbf1;" arabic-form="final" 
d="M1280 1509q72 0 120 -50t48 -122v-852q0 -72 -48 -120t-120 -52h-344v-168h88q36 -4 60 -28t24 -60h596v-168h-596q0 -36 -24 -60t-60 -28h-344q-36 4 -60 28t-24 60h-596v168h596q0 36 24 60t60 28h88v168h-344q-72 4 -120 52t-48 120v852q0 72 48 122t120 50h856z" />
    <glyph glyph-name="download-network" unicode="&#xfbf2;" arabic-form="isolated" 
d="M1280 1509q72 0 120 -50t48 -122v-852q0 -72 -48 -120t-120 -52h-344v-168h88q36 -4 60 -28t24 -60h596v-168h-596q0 -36 -24 -60t-60 -28h-344q-36 4 -60 28t-24 60h-596v168h596q0 36 24 60t60 28h88v168h-344q-72 4 -120 52t-48 120v852q0 72 48 122t120 50h856z
M852 529l384 384h-300v340h-168v-340h-300z" />
    <glyph glyph-name="help-network" unicode="&#xfbf3;" arabic-form="final" 
d="M1280 1509q72 0 120 -50t48 -122v-852q0 -72 -48 -120t-120 -52h-344v-168h88q36 -4 60 -28t24 -60h596v-168h-596q0 -36 -24 -60t-60 -28h-344q-36 4 -60 28t-24 60h-596v168h596q0 36 24 60t60 28h88v168h-344q-72 4 -120 52t-48 120v852q0 72 48 122t120 50h856z
M868 1337q-112 0 -180 -50t-64 -150v-4h164q0 40 24 60t60 20t60 -24t24 -64t-20 -70t-52 -50q-68 -44 -92 -78t-24 -102h168q0 40 12 64t44 44q56 32 94 80t38 112q0 96 -68 154t-188 58zM768 741v-172h168v172h-168z" />
    <glyph glyph-name="upload-network" unicode="&#xfbf4;" arabic-form="isolated" 
d="M1280 1509q72 0 120 -50t48 -122v-852q0 -72 -48 -120t-120 -52h-344v-168h88q36 -4 60 -28t24 -60h596v-168h-596q0 -36 -24 -60t-60 -28h-344q-36 4 -60 28t-24 60h-596v168h596q0 36 24 60t60 28h88v168h-344q-72 4 -120 52t-48 120v852q0 72 48 122t120 50h856z
M852 1297l-384 -384h300v-344h168v344h300z" />
    <glyph glyph-name="npm" unicode="&#xfbf5;" arabic-form="final" 
d="M84 869v-344h172v256h84v-256h88v344h-344zM512 869v-428h172v84h168v344h-340zM768 781v-168h-84v168h84zM940 869v-344h168v256h88v-256h84v256h84v-256h88v344h-512zM0 953h1536v-512h-768v-84h-340v84h-428v512z" />
    <glyph glyph-name="nut" unicode="&#xfbf6;" arabic-form="isolated" 
d="M1536 271q-4 -52 -44 -76l-676 -376q-20 -16 -48 -16t-48 16l-676 376q-40 24 -44 76v768q4 52 44 76l676 376q20 16 48 16t48 -16l676 -376q40 -24 44 -76v-768zM768 1083q-180 -4 -302 -126t-126 -302q4 -180 126 -302t302 -126q180 4 302 126t126 302q-4 180 -126 302
t-302 126z" />
    <glyph glyph-name="octagram" unicode="&#xfbf7;" arabic-form="final" 
d="M0 307l144 348l-144 348l348 140l140 348l348 -144l348 144l140 -348l348 -140l-144 -348l144 -348l-348 -140l-140 -348l-348 144l-348 -144l-140 348z" />
    <glyph glyph-name="page-layout-body" unicode="&#xfbf8;" arabic-form="initial" 
d="M172 1507h1024q72 0 120 -48t52 -120v-1368q-4 -72 -52 -120t-120 -48h-1024q-72 0 -120 48t-52 120v1368q4 72 52 120t120 48zM172 995v-680h1024v680h-1024z" />
    <glyph glyph-name="page-layout-footer" unicode="&#xfbf9;" arabic-form="isolated" 
d="M172 1507h1024q72 0 120 -48t52 -120v-1368q-4 -72 -52 -120t-120 -48h-1024q-72 0 -120 48t-52 120v1368q4 72 52 120t120 48zM172 315v-344h1024v344h-1024z" />
    <glyph glyph-name="page-layout-header" unicode="&#xfbfa;" arabic-form="final" 
d="M172 1507h1024q72 0 120 -48t52 -120v-1368q-4 -72 -52 -120t-120 -48h-1024q-72 0 -120 48t-52 120v1368q4 72 52 120t120 48zM172 1339v-344h1024v344h-1024z" />
    <glyph glyph-name="page-layout-sidebar-left" unicode="&#xfbfb;" arabic-form="initial" 
d="M172 1507h1024q72 0 120 -48t52 -120v-1368q-4 -72 -52 -120t-120 -48h-1024q-72 0 -120 48t-52 120v1368q4 72 52 120t120 48zM172 995v-680h340v680h-340z" />
    <glyph glyph-name="page-layout-sidebar-right" unicode="&#x6cc;" arabic-form="isolated" 
d="M172 1507h1024q72 0 120 -48t52 -120v-1368q-4 -72 -52 -120t-120 -48h-1024q-72 0 -120 48t-52 120v1368q4 72 52 120t120 48zM856 995v-680h340v680h-340z" />
    <glyph glyph-name="pencil-circle" unicode="&#x6cc;" arabic-form="final" 
d="M852 1507q-364 -8 -604 -248t-248 -604q8 -364 248 -604t604 -248q364 8 604 248t248 604q-8 364 -248 604t-604 248zM1116 1075q20 0 36 -12l108 -108q28 -36 0 -68l-88 -84l-172 172l84 88q12 12 32 12zM948 927l176 -176l-516 -516h-176v176z" />
    <glyph glyph-name="pentagon" unicode="&#x6cc;" arabic-form="initial" 
d="M852 1467l-852 -624l324 -1000h1056l324 1000z" />
    <glyph glyph-name="pentagon-outline" unicode="&#x6cc;" arabic-form="medial" 
d="M852 1251l648 -468l-248 -760h-800l-248 760zM852 1467l-852 -624l324 -1000h1048l332 1000z" />
    <glyph glyph-name="pillar" unicode="&#xfc00;" arabic-form="isolated" 
d="M256 1251h1024q36 0 60 -24t24 -60t-24 -60t-60 -24h-1024q-36 0 -60 24t-24 60t24 60t60 24zM1536 1507v-168h-1536v168h1536zM1024 995h172v-1192h-172v1192zM340 995h172v-1192h-172v1192zM684 995h168v-1192h-168v1192z" />
    <glyph glyph-name="pistol" unicode="&#xfc01;" arabic-form="isolated" 
d="M522 1252h1368v-340h-88v-84h-512q-36 -4 -60 -28t-24 -60v-84q0 -72 -50 -120t-122 -52h-288q-52 0 -76 -48l-208 -416q-24 -44 -76 -48h-288q-28 -16 -86 64t170 448q28 24 86 172t-170 172v424h84l44 88h256zM1122 656v84q-4 36 -28 60t-60 28h-84q-8 -4 -32 -54
t32 -118q-72 0 -120 50t-52 122q-36 -4 -60 -28t-24 -60v-84q0 -36 24 -60t60 -24h256q36 0 60 24t28 60z" />
    <glyph glyph-name="plus-box-outline" unicode="&#xfc02;" arabic-form="isolated" 
d="M1364 59v1192h-1192v-1192h1192zM1364 1423q72 0 122 -50t50 -122v-1192q0 -72 -50 -122t-122 -50h-1192q-72 0 -122 50t-50 122v1192q0 76 50 124t122 48h1192zM684 1083h168v-344h344v-168h-344v-344h-168v344h-344v168h344v344z" />
    <glyph glyph-name="plus-outline" unicode="&#xfc03;" arabic-form="isolated" 
d="M0 911h428v428h512v-428h428v-512h-428v-428h-512v428h-428v512zM600 571v-428h168v428h428v168h-428v428h-168v-428h-428v-168h428z" />
    <glyph glyph-name="prescription" unicode="&#xfc04;" arabic-form="isolated" 
d="M0 1355v-856h172v344h172l460 -464l-304 -304l120 -120l304 304l308 -304l120 120l-308 304l308 308l-120 120l-308 -308l-340 344h16q108 0 180 72t72 182t-72 182t-180 76h-600zM172 1183h428q36 0 60 -24t24 -60t-24 -60t-60 -28h-428v172z" />
    <glyph glyph-name="printer-settings" unicode="&#xfc05;" arabic-form="isolated" 
d="M1364 1593v-340h-1024v340h1024zM1448 825q36 4 60 28t24 60t-24 60t-60 24t-60 -24t-24 -60t24 -60t60 -28zM1192 229v428h-680v-428h680zM1448 1169q112 -4 184 -76t72 -180v-512h-340v-344h-1024v344h-340v512q0 108 72 180t184 76h1192zM1108 -283v172h172v-172h-172
zM768 -283v172h168v-172h-168zM424 -283v172h172v-172h-172z" />
    <glyph glyph-name="react" unicode="&#xfc06;" arabic-form="isolated" 
d="M916 815q68 0 112 -46t44 -112t-44 -112t-112 -46t-112 46t-44 112t44 112t112 46zM520 -29q44 -24 124 14t184 134q-68 76 -128 160q-108 12 -204 32q-32 -140 -24 -228t48 -112zM580 463l-24 44q-16 -40 -24 -76l76 -12zM1140 527l68 128l-68 128q-40 68 -80 124
q-68 4 -144 4t-144 -4q-40 -56 -80 -124l-68 -128l68 -128q40 -68 80 -124q68 -4 144 -4t144 4q40 56 80 124zM916 1099q-24 -28 -52 -60h104q-28 32 -52 60zM916 211q24 28 52 60h-104q28 -32 52 -60zM1312 1339q-44 24 -124 -14t-184 -134q68 -76 128 -160
q108 -12 204 -32q32 140 24 228t-48 112zM1252 847l24 -44q16 40 24 76l-76 12zM1376 1451q92 -56 108 -186t-24 -294q164 -52 268 -130t104 -186t-104 -186t-268 -130q40 -164 24 -294t-110 -182t-214 -4t-244 168q-124 -120 -244 -168t-214 4t-110 182t24 294
q-164 52 -268 130t-104 186t104 186t268 130q-40 164 -24 294t110 182t214 4t244 -168q124 120 244 168t216 0zM1348 655q44 -96 76 -192q136 40 208 92t72 100t-72 100t-208 92q-32 -96 -76 -192zM484 655q-44 96 -76 192q-136 -40 -208 -92t-72 -100t72 -100t208 -92
q32 96 76 192zM1252 463l-28 -44l76 12q-8 36 -24 76zM1004 119q104 -96 184 -134t122 -14t50 112t-24 228q-96 -20 -204 -32q-60 -84 -128 -160zM580 847l28 44l-76 -12q8 -36 24 -76zM828 1191q-104 96 -184 134t-122 14t-50 -112t24 -228q96 20 204 32q60 84 128 160z
" />
    <glyph glyph-name="restart" unicode="&#xfc07;" arabic-form="isolated" 
d="M683 1198q132 0 256 -50t224 -150q200 -212 200 -484t-200 -480q-120 -120 -270 -168t-306 -28l48 168q108 -12 216 26t192 122q152 156 152 360t-152 364q-76 76 -170 112t-190 36v-392l-424 424l424 420v-280zM199 30q-168 176 -194 402t90 430l124 -128
q-68 -144 -42 -302t142 -278q68 -68 148 -104l-40 -168q-128 52 -228 148z" />
    <glyph glyph-name="rewind-outline" unicode="&#xfc08;" arabic-form="isolated" 
d="M552 835l-256 -180l256 -180v360zM1320 835l-256 -180l256 -180v360zM724 1167v-1024l-724 512zM1492 1167v-1024l-724 512z" />
    <glyph glyph-name="rhombus" unicode="&#xfc09;" arabic-form="isolated" 
d="M1668 759l-708 708q-48 44 -104 44t-104 -44l-708 -708q-44 -48 -44 -104t44 -104l708 -708q48 -44 104 -44t104 44l708 708q36 48 36 104t-36 104z" />
    <glyph glyph-name="rhombus-outline" unicode="&#xfc0a;" arabic-form="isolated" 
d="M1668 759l-708 708q-48 44 -104 44t-104 -44l-708 -708q-44 -48 -44 -104t44 -104l708 -708q48 -44 104 -44t104 44l708 708q36 48 36 104t-36 104zM1564 655l-708 -708l-708 708l708 708z" />
    <glyph glyph-name="roomba" unicode="&#xfc0b;" arabic-form="isolated" 
d="M852 1507q172 0 326 -64t278 -184l-120 -120q-100 96 -224 148t-260 52t-260 -52t-224 -148l-120 120q124 120 278 184t326 64zM140 1123l124 -120q-92 -160 -96 -348q8 -292 200 -484t484 -200q292 8 484 200t200 484q-4 188 -96 348l124 120q140 -212 140 -468
q-8 -364 -248 -604t-604 -248q-364 8 -604 248t-248 604q0 256 140 468zM852 1167q216 -4 362 -150t150 -362q0 -104 -38 -196t-114 -164l-120 120q-100 -100 -240 -100t-240 100l-120 -120q-76 72 -114 164t-38 196q4 216 150 362t362 150zM852 995q-36 0 -60 -24t-24 -60
t24 -60t60 -24t60 24t24 60t-24 60t-60 24z" />
    <glyph glyph-name="run" unicode="&#xfc0c;" arabic-form="isolated" 
d="M904 1233q72 0 120 50t48 122t-48 120t-120 48t-120 -48t-48 -120t48 -122t120 -50zM596 49l84 372l180 -172v-512h172v640l-180 172l52 256q84 -96 206 -154t262 -58v168q-124 4 -218 60t-150 148l-84 136q-52 80 -144 84q-20 0 -34 -4t-34 -4l-444 -188v-400h172v292
l152 60l-136 -696l-420 88l-32 -172z" />
    <glyph glyph-name="search-web" unicode="&#xfc0d;" arabic-form="isolated" 
d="M1068 461l424 -424l-128 -128l-424 424v68l-24 24q-72 -64 -164 -98t-196 -34q-236 4 -394 160t-162 392q4 236 162 394t394 162q236 -4 392 -162t160 -394q0 -104 -34 -196t-98 -164l24 -24h68zM556 1273l-48 -4q-16 -32 -36 -86t-40 -122h244q-16 68 -38 122t-38 86
q-20 4 -44 4zM924 1061q-80 136 -228 188q32 -68 68 -188h160zM184 1061h164q32 120 64 188q-148 -52 -228 -188zM128 845q0 -64 20 -128h184l-12 128l12 128h-184q-20 -60 -20 -128zM960 717q20 64 20 130t-20 126h-180q8 -64 8 -128t-8 -128h180zM416 973l-12 -128
l12 -128h276q12 64 12 128t-12 128h-276zM556 421h44q16 36 38 90t38 122h-244q20 -68 40 -122t36 -90h48zM924 633h-160q-36 -120 -68 -188q148 52 228 188zM184 633q80 -136 228 -188q-32 68 -64 188h-164z" />
    <glyph glyph-name="shovel" unicode="&#xfc0e;" arabic-form="isolated" 
d="M1101 1506l-240 -240q-52 -52 -52 -120t52 -120l120 -120l-388 -392l-240 244l-124 -120q-284 -324 -216 -522t100 -202q4 -32 202 -98t522 218l120 120l-240 240l388 384l120 -116q52 -52 120 -52t120 52l244 240zM1345 786l-120 116l-244 244l124 120l360 -360z" />
    <glyph glyph-name="shovel-off" unicode="&#xfc0f;" arabic-form="isolated" 
d="M1101 1506l-240 -240q-52 -52 -52 -120t52 -120l120 -124l-60 -60l124 -124l64 64l116 -120q52 -52 122 -52t122 52l240 244zM1345 786l-364 360l120 120l364 -360zM1581 -66l-120 -120l-668 664l-84 -84l240 -240l-112 -120q-324 -284 -522 -218t-202 98q-32 4 -100 202
t216 522l124 120l240 -244l84 88l-664 660l120 120z" />
    <glyph glyph-name="signal-2g" unicode="&#xfc10;" arabic-form="isolated" 
d="M768 15h-768v512q0 108 72 180t184 76h256v256h-512v256h512q108 -4 180 -76t76 -180v-256q-4 -108 -76 -180t-180 -76h-256v-256h512v-256zM1704 783h-384v-256h128v-256h-256v768h512v256h-512q-108 -4 -180 -76t-76 -180v-768q4 -108 76 -180t180 -76h256
q112 4 184 76t72 180v512z" />
    <glyph glyph-name="signal-3g" unicode="&#xfc11;" arabic-form="isolated" 
d="M768 271v192q-4 84 -58 138t-134 54q80 4 134 58t58 134v192q-4 108 -76 180t-180 76h-512v-256h512v-256h-256v-256h256v-256h-512v-256h512q108 4 180 76t76 180zM1704 271v512h-384v-256h128v-256h-256v768h512v256h-512q-108 -4 -180 -76t-76 -180v-768
q4 -108 76 -180t180 -76h256q112 4 184 76t72 180z" />
    <glyph glyph-name="signal-4g" unicode="&#xfc12;" arabic-form="isolated" 
d="M1704 271v512h-384v-256h128v-256h-256v768h512v256h-512q-108 -4 -180 -76t-76 -180v-768q4 -108 76 -180t180 -76h256q112 4 184 76t72 180zM512 15h256v1280h-256v-512h-256v512h-256v-768h512v-512z" />
    <glyph glyph-name="signal-hspa" unicode="&#xfc13;" arabic-form="isolated" 
d="M430 783h256v512h256v-1280h-256v512h-256v-512h-256v1280h256v-512z" />
    <glyph glyph-name="signal-hspa-plus" unicode="&#xfc14;" arabic-form="isolated" 
d="M1448 995v-256h256v-256h-256v-256h-256v256h-256v256h256v256h256zM256 783h256v512h256v-1280h-256v512h-256v-512h-256v1280h256v-512z" />
    <glyph glyph-name="snowflake" unicode="&#xfc15;" arabic-form="isolated" 
d="M1544 487l-200 -52l-172 96v248l172 96l200 -52l44 164l-152 40l40 152l-168 44l-52 -200l-168 -96l-212 124v192l148 144l-120 120l-112 -108l-112 108l-120 -120l148 -144v-192l-216 -124l-168 96l-52 200l-164 -44l40 -152l-148 -40l44 -164l196 52l172 -96v-248
l-172 -96l-196 52l-44 -164l148 -40l-40 -152l168 -44l52 200l168 96l212 -124v-192l-148 -144l120 -120l112 108l112 -108l120 120l-148 144v192l216 124l168 -96l56 -196l160 40l-40 152l148 40zM580 779l212 124l212 -124v-248l-212 -124l-212 124v248z" />
    <glyph glyph-name="source-commit" unicode="&#xfc16;" arabic-form="isolated" 
d="M984 655q-4 -156 -98 -270t-246 -150v-348h-168v348q-152 36 -246 150t-94 270t94 270t246 150v348h168v-348q152 -36 246 -150t98 -270zM556 911q-108 -4 -180 -76t-72 -180t72 -180t180 -72t180 72t72 180t-72 180t-180 76z" />
    <glyph glyph-name="source-commit-end" unicode="&#xfc17;" arabic-form="isolated" 
d="M986 485q-4 -180 -126 -302t-302 -126q-180 4 -302 126t-126 302q4 156 98 270t246 150v348h168v-348q152 -36 246 -150t98 -270zM558 741q-108 -4 -180 -76t-72 -180t72 -180t180 -72t180 72t72 180t-72 180t-180 76z" />
    <glyph glyph-name="source-commit-end-local" unicode="&#xfc18;" arabic-form="isolated" 
d="M558 913q180 -4 302 -126t126 -302q-4 -180 -126 -302t-302 -126q-180 4 -302 126t-126 302q4 180 126 302t302 126zM558 741q-108 -4 -180 -76t-72 -180t72 -180t180 -72t180 72t72 180t-72 180t-180 76zM474 1081v172h168v-172h-168z" />
    <glyph glyph-name="source-commit-local" unicode="&#xfc19;" arabic-form="isolated" 
d="M558 1083q180 -4 302 -126t126 -302q-4 -180 -126 -302t-302 -126q-180 4 -302 126t-126 302q4 180 126 302t302 126zM558 911q-108 -4 -180 -76t-72 -180t72 -180t180 -72t180 72t72 180t-72 180t-180 76zM474 1251v172h168v-172h-168zM474 -113v172h168v-172h-168z" />
    <glyph glyph-name="source-commit-next-local" unicode="&#xfc1a;" arabic-form="isolated" 
d="M986 655q-4 -180 -126 -302t-302 -126q-180 4 -302 126t-126 302q4 156 98 270t246 150v348h168v-348q152 -36 246 -150t98 -270zM558 911q-108 -4 -180 -76t-72 -180t72 -180t180 -72t180 72t72 180t-72 180t-180 76zM474 -113v172h168v-172h-168z" />
    <glyph glyph-name="source-commit-start" unicode="&#xfc1b;" arabic-form="isolated" 
d="M558 1253q180 -4 302 -126t126 -302q-4 -156 -98 -270t-246 -150v-348h-168v348q-152 36 -246 150t-98 270q4 180 126 302t302 126zM558 1081q-108 -4 -180 -76t-72 -180t72 -180t180 -72t180 72t72 180t-72 180t-180 76z" />
    <glyph glyph-name="source-commit-start-next-local" unicode="&#xfc1c;" arabic-form="isolated" 
d="M558 1253q180 -4 302 -126t126 -302q-4 -180 -126 -302t-302 -126q-180 4 -302 126t-126 302q4 180 126 302t302 126zM558 1081q-108 -4 -180 -76t-72 -180t72 -180t180 -72t180 72t72 180t-72 180t-180 76zM474 57v172h168v-172h-168z" />
    <glyph glyph-name="speaker-wireless" unicode="&#xfc1d;" arabic-form="isolated" 
d="M1540 51l-120 120q96 96 148 218t52 266t-52 266t-148 218l120 120q116 -116 182 -272t66 -332t-66 -332t-182 -272zM1300 295l-120 120q96 96 96 240t-96 240l120 120q68 -68 108 -160t40 -200t-40 -200t-108 -160zM168 1423h684q72 0 120 -50t52 -122v-1192
q-4 -72 -52 -122t-120 -50h-684q-72 0 -120 50t-48 122v1192q0 72 48 122t120 50zM512 1251q-72 0 -122 -48t-50 -120t50 -122t122 -50t120 50t48 122t-48 120t-120 48zM512 739q-148 -4 -244 -100t-96 -240t96 -240t242 -96t242 96t96 240t-96 240t-240 100zM512 571
q72 -4 120 -52t48 -120t-48 -120t-120 -48t-122 48t-50 120t50 120t122 52z" />
    <glyph glyph-name="stadium" unicode="&#xfc1e;" arabic-form="isolated" 
d="M256 1423h168l256 -172l-256 -168v-116q192 28 428 28t428 -28v456h168l256 -172l-256 -168v-148q120 -28 188 -68t68 -84q-8 -92 -250 -152t-602 -60t-602 60t-250 152q0 44 68 84t188 68v488zM852 867q-212 4 -320 -14t-108 -70t108 -70t320 -18t320 18t108 70t-108 70
t-320 14zM852 419q244 4 452 42t352 106l-120 -680h-428v172q0 72 -50 120t-122 48h-168q-72 0 -122 -48t-50 -120v-172h-428l-120 680q144 -68 352 -106t452 -42z" />
    <glyph glyph-name="svg" unicode="&#xfc1f;" arabic-form="isolated" 
d="M264 767h320l-224 224q-68 0 -112 46t-44 112t44 110t110 44t112 -44t46 -112l224 -224v320q-44 48 -44 110t46 108t110 46t110 -46t46 -108t-44 -110v-320l224 224q4 68 48 112t110 44t110 -44t44 -110t-44 -112t-112 -46l-224 -224h320q48 44 110 44t108 -46t46 -110
t-46 -110t-108 -46t-110 44h-320l224 -224q68 -4 112 -48t44 -110t-44 -110t-110 -44t-110 44t-48 112l-224 224v-320q44 -48 44 -110t-46 -108t-110 -46t-110 46t-46 108t44 110v320l-224 -224q0 -68 -46 -112t-112 -44t-110 44t-44 110t44 110t112 48l224 224h-320
q-48 -44 -110 -44t-108 46t-46 110t46 110t108 46t110 -44z" />
    <glyph glyph-name="tag-plus" unicode="&#xfc20;" arabic-form="isolated" 
d="M1656 691l-768 768q-52 48 -120 48h-600q-72 0 -120 -48t-48 -120v-600q0 -68 48 -120l36 -32q116 68 256 68q216 -4 362 -150t150 -362q0 -136 -68 -256l32 -36q52 -48 122 -48t118 48l600 600q48 48 48 118t-48 122zM296 1083q-52 0 -88 36t-36 90t36 90t90 36t90 -36
t36 -90t-36 -90t-92 -36zM680 59h-256v-256h-168v256h-256v168h256v256h168v-256h256v-168z" />
    <glyph glyph-name="tag-remove" unicode="&#xfc21;" arabic-form="isolated" 
d="M1656 691l-768 768q-52 48 -120 48h-600q-72 0 -120 -48t-48 -120v-600q0 -68 48 -120l36 -32q116 68 256 68q216 -4 362 -150t150 -362q0 -136 -68 -256l32 -36q52 -48 122 -48t118 48l600 600q48 48 48 118t-48 122zM296 1083q-52 0 -88 36t-36 90t36 90t90 36t90 -36
t36 -90t-36 -90t-92 -36zM520 -161l-180 184l-180 -184l-124 124l184 180l-184 180l124 120l180 -180l180 180l120 -120l-180 -180l180 -180z" />
    <glyph glyph-name="ticket-percent" unicode="&#xfc22;" arabic-form="isolated" 
d="M168 1339q-72 -4 -120 -52t-48 -120v-340q72 -4 120 -52t48 -120t-48 -120t-120 -52v-340q0 -72 48 -120t120 -52h1368q72 4 120 52t48 120v340q-72 4 -120 52t-48 120t48 120t120 52v340q0 72 -48 120t-120 52h-1368zM1152 1083l128 -128l-728 -728l-128 128zM580 1079
q64 -4 106 -46t42 -106t-42 -106t-106 -42t-106 42t-42 106t42 106t106 46zM1124 535q64 -4 106 -46t42 -106t-42 -106t-106 -42t-106 42t-42 106t42 106t106 46z" />
    <glyph glyph-name="tilde" unicode="&#xfc23;" arabic-form="isolated" 
d="M3 399q-16 32 64 256t448 256q240 -20 352 -150t288 -150q244 20 298 150t42 150h212q16 -32 -64 -256t-448 -256q-248 20 -384 150t-256 150q-244 -20 -298 -150t-42 -150h-212z" />
    <glyph glyph-name="treasure-chest" unicode="&#xfc24;" arabic-form="isolated" 
d="M256 1339h1192q112 -4 184 -76t72 -180v-344h-596v88h-512v-88h-596v344q0 108 72 180t184 76zM768 739h168v-168h-168v168zM0 655h596v-84l172 -172h168l172 172v84h596v-684h-1704v684z" />
    <glyph glyph-name="truck-trailer" unicode="&#xfc25;" arabic-form="isolated" 
d="M1704 397v-172h-1024q0 -108 -72 -180t-182 -72t-182 72t-76 180h-168v940q0 72 48 120t120 52h1112q72 -4 120 -52t48 -120v-768h256zM424 313q-36 -4 -60 -28t-24 -60t24 -60t60 -24t60 24t24 60t-24 60t-60 28z" />
    <glyph glyph-name="view-parallel" unicode="&#xfc26;" arabic-form="isolated" 
d="M0 -113v1536h344v-1536h-344zM512 -113v1536h344v-1536h-344zM1024 -113v1536h344v-1536h-344z" />
    <glyph glyph-name="view-sequential" unicode="&#xfc27;" arabic-form="isolated" 
d="M0 1339h1536v-344h-1536v344zM0 827h1536v-344h-1536v344zM0 315h1536v-344h-1536v344z" />
    <glyph glyph-name="washing-machine" unicode="&#xfc28;" arabic-form="isolated" 
d="M924 727q100 -108 100 -244t-102 -238t-238 -102t-240 100zM172 1507h1024q72 0 120 -48t52 -120v-1368q-4 -72 -52 -120t-120 -48h-1024q-72 0 -120 48t-52 120v1368q4 72 52 120t120 48zM256 1339q-36 -4 -60 -28t-24 -60t24 -60t60 -24t60 24t24 60t-24 60t-60 28z
M512 1339q-36 -4 -60 -28t-24 -60t24 -60t60 -24t60 24t24 60t-24 60t-60 28zM684 995q-216 -4 -362 -148t-150 -364q4 -216 150 -360t362 -152q216 8 362 152t150 360q-4 220 -150 364t-362 148z" />
    <glyph glyph-name="webpack" unicode="&#xfc29;" arabic-form="isolated" 
d="M1536 271q-4 -52 -44 -76l-676 -376q-20 -16 -48 -16t-48 16l-676 376q-40 24 -44 76v768q4 52 44 76l676 376q20 16 48 16t48 -16l676 -376q40 -24 44 -76v-768zM768 1323l-596 -336v-664l596 -336l596 336v664zM768 1147l420 -240l-420 -244l-420 244zM1196 407
l-344 -196v304l344 200v-308zM684 211l-344 196v308l344 -200v-304z" />
    <glyph glyph-name="widgets" unicode="&#xfc2a;" arabic-form="isolated" 
d="M0 1367h684v-372l480 484l484 -484l-484 -480h372v-684h-684v684h312l-480 480v-312h-684v684zM0 515h684v-684h-684v684z" />
    <glyph glyph-name="wiiu" unicode="&#xfc2b;" arabic-form="isolated" 
d="M0 319q0 -144 88 -224t236 -80h1088q124 0 208 74t84 198v796q0 76 -46 138t-114 66h-252v-656q-56 -376 -436 -376t-432 364v676h-192q-96 0 -164 -54t-68 -146v-776zM624 719q28 -280 228 -274t228 214v636h-456v-576z" />
    <glyph glyph-name="arrow-down-bold" unicode="&#xfc2c;" arabic-form="isolated" 
d="M412 1331h512v-684h412l-668 -668l-668 668h412v684z" />
    <glyph glyph-name="arrow-down-bold-box" unicode="&#xfc2d;" arabic-form="isolated" 
d="M172 1423h1192q72 0 122 -50t50 -122v-1192q0 -72 -50 -122t-122 -50h-1192q-72 0 -122 50t-50 122v1192q0 72 50 122t122 50zM768 227l428 428h-256v340h-344v-340h-256z" />
    <glyph glyph-name="arrow-down-bold-box-outline" unicode="&#xfc2e;" arabic-form="isolated" 
d="M768 227l-428 428h256v340h344v-340h256zM172 1423h1192q72 0 122 -50t50 -122v-1192q0 -72 -50 -122t-122 -50h-1192q-72 0 -122 50t-50 122v1192q0 72 50 122t122 50zM172 1251v-1192h1192v1192h-1192z" />
    <glyph glyph-name="arrow-left-bold" unicode="&#xfc2f;" arabic-form="isolated" 
d="M1352 911v-512h-684v-412l-668 668l668 668v-412h684z" />
    <glyph glyph-name="arrow-left-bold-box" unicode="&#xfc30;" arabic-form="isolated" 
d="M1536 1251v-1192q0 -72 -50 -122t-122 -50h-1192q-72 0 -122 50t-50 122v1192q0 72 50 122t122 50h1192q72 0 122 -50t50 -122zM340 655l428 -428v256h340v344h-340v256z" />
    <glyph glyph-name="arrow-left-bold-box-outline" unicode="&#xfc31;" arabic-form="isolated" 
d="M340 655l428 428v-256h340v-344h-340v-256zM1536 1251v-1192q0 -72 -50 -122t-122 -50h-1192q-72 0 -122 50t-50 122v1192q0 72 50 122t122 50h1192q72 0 122 -50t50 -122zM1364 1251h-1192v-1192h1192v1192z" />
    <glyph glyph-name="arrow-right-bold" unicode="&#xfc32;" arabic-form="isolated" 
d="M0 399v512h684v412l668 -668l-668 -668v412h-684z" />
    <glyph glyph-name="arrow-right-bold-box" unicode="&#xfc33;" arabic-form="isolated" 
d="M0 59v1192q0 72 50 122t122 50h1192q72 0 122 -50t50 -122v-1192q0 -72 -50 -122t-122 -50h-1192q-72 0 -122 50t-50 122zM1196 655l-428 428v-256h-340v-344h340v-256z" />
    <glyph glyph-name="arrow-right-bold-box-outline" unicode="&#xfc34;" arabic-form="isolated" 
d="M1196 655l-428 -428v256h-340v344h340v256zM0 59v1192q0 72 50 122t122 50h1192q72 0 122 -50t50 -122v-1192q0 -72 -50 -122t-122 -50h-1192q-72 0 -122 50t-50 122zM172 59h1192v1192h-1192v-1192z" />
    <glyph glyph-name="arrow-up-bold" unicode="&#xfc35;" arabic-form="isolated" 
d="M924 -21h-512v684h-412l668 668l668 -668h-412v-684z" />
    <glyph glyph-name="arrow-up-bold-box" unicode="&#xfc36;" arabic-form="isolated" 
d="M1364 -113h-1192q-72 0 -122 50t-50 122v1192q0 72 50 122t122 50h1192q72 0 122 -50t50 -122v-1192q0 -72 -50 -122t-122 -50zM768 1083l-428 -428h256v-340h344v340h256z" />
    <glyph glyph-name="arrow-up-bold-box-outline" unicode="&#xfc37;" arabic-form="isolated" 
d="M768 1083l428 -428h-256v-340h-344v340h-256zM1364 -113h-1192q-72 0 -122 50t-50 122v1192q0 72 50 122t122 50h1192q72 0 122 -50t50 -122v-1192q0 -72 -50 -122t-122 -50zM1364 59v1192h-1192v-1192h1192z" />
    <glyph glyph-name="cancel" unicode="&#xfc38;" arabic-form="isolated" 
d="M852 1507q364 -8 604 -248t248 -604q-8 -364 -248 -604t-604 -248q-364 8 -604 248t-248 604q8 364 248 604t604 248zM852 1339q-292 -8 -484 -200t-200 -484q0 -120 38 -226t106 -194l960 960q-88 68 -194 106t-226 38zM852 -29q292 8 484 200t200 484q0 120 -38 226
t-106 194l-960 -960q88 -68 194 -106t226 -38z" />
    <glyph glyph-name="file-account" unicode="&#xfc39;" arabic-form="isolated" 
d="M768 911h472l-472 468v-468zM172 1507h684l512 -512v-1024q-4 -72 -52 -120t-120 -48h-1024q-72 0 -120 48t-52 120v1368q4 72 52 120t120 48zM856 -29v88q-12 84 -130 126t-214 42t-212 -42t-128 -126v-88h684zM512 655q-72 0 -120 -50t-48 -122t48 -120t120 -48t122 48
t50 120t-50 122t-122 50z" />
    <glyph glyph-name="gesture-double-tap" unicode="&#xfc3a;" arabic-form="isolated" 
d="M424 997q4 36 28 60t60 24t60 -24t24 -60v-380l104 -12l420 -188q72 -36 72 -116v-372q0 -52 -36 -88t-92 -40h-552q-52 0 -88 40l-416 356l64 68q24 24 60 24h20l272 -144v852zM512 1337q144 -4 240 -100t100 -240q0 -96 -46 -174t-126 -122v104q84 76 88 192
q-4 108 -76 180t-182 72t-182 -72t-72 -180q4 -116 84 -192v-104q-76 44 -122 122t-50 174q4 144 100 240t244 100zM512 1509q216 -4 360 -150t152 -362q-4 -108 -44 -204t-116 -164l-84 36q72 60 114 146t42 186q-4 180 -124 302t-300 126q-184 -4 -304 -126t-124 -302
q0 -132 70 -236t186 -156v-92q-152 56 -246 186t-94 298q4 216 148 362t364 150z" />
    <glyph glyph-name="gesture-swipe-down" unicode="&#xfc3b;" arabic-form="isolated" 
d="M768 997q4 36 28 60t60 24t60 -24t24 -60v-380l104 -12l420 -188q72 -36 72 -116v-372q0 -52 -36 -88t-92 -40h-552q-52 0 -88 40l-416 356l64 68q24 24 60 24h20l272 -144v852zM0 997l256 -256l256 256h-168v512h-172v-512h-172z" />
    <glyph glyph-name="gesture-swipe-left" unicode="&#xfc3c;" arabic-form="isolated" 
d="M596 911q4 36 28 60t60 24t60 -24t24 -60v-380l104 -12l420 -188q72 -36 72 -116v-372q0 -52 -36 -88t-92 -40h-552q-52 0 -88 40l-416 356l64 68q24 24 60 24h20l272 -144v852zM0 1339l256 -256v168h512v172h-512v172z" />
    <glyph glyph-name="gesture-swipe-right" unicode="&#xfc3d;" arabic-form="isolated" 
d="M596 911q4 36 28 60t60 24t60 -24t24 -60v-380l104 -12l420 -188q72 -36 72 -116v-372q0 -52 -36 -88t-92 -40h-552q-52 0 -88 40l-416 356l64 68q24 24 60 24h20l272 -144v852zM768 1339l-256 256v-172h-512v-172h512v-168z" />
    <glyph glyph-name="gesture-swipe-up" unicode="&#xfc3e;" arabic-form="isolated" 
d="M768 997q4 36 28 60t60 24t60 -24t24 -60v-380l104 -12l420 -188q72 -36 72 -116v-372q0 -52 -36 -88t-92 -40h-552q-52 0 -88 40l-416 356l64 68q24 24 60 24h20l272 -144v852zM512 1253l-256 256l-256 -256h172v-512h172v512h168z" />
    <glyph glyph-name="gesture-tap" unicode="&#xfc3f;" arabic-form="isolated" 
d="M416 1083q4 36 28 60t60 24t60 -24t24 -60v-380l104 -12l420 -188q72 -36 72 -116v-372q0 -52 -36 -88t-92 -40h-552q-52 0 -88 40l-416 356l64 68q24 24 60 24h20l272 -144v852zM504 1423q144 -4 240 -100t100 -240q0 -96 -46 -174t-126 -122v104q84 76 88 192
q-4 108 -76 180t-182 72t-182 -72t-72 -180q4 -116 84 -192v-104q-76 44 -122 122t-50 174q4 144 100 240t244 100z" />
    <glyph glyph-name="gesture-two-double-tap" unicode="&#xfc40;" arabic-form="isolated" 
d="M1192 387v-544q0 -52 -36 -88t-92 -40h-552q-52 0 -88 40l-416 356l64 68q24 24 60 24h20l272 -144v852q4 36 28 60t60 24t60 -24t24 -60v172q0 36 24 60t60 24t60 -24t28 -60v-428l352 -156q32 -16 52 -46t20 -66zM680 1423q148 -4 244 -100t100 -240q-4 -100 -50 -176
t-122 -120v104q80 72 84 192q0 108 -72 180t-184 76q-88 -4 -154 -54t-90 -130q-80 -24 -130 -90t-50 -154q4 -116 84 -192v-104q-76 44 -122 122t-46 178t54 182t142 126q44 88 126 144t186 56zM680 1595q220 -8 364 -152t148 -360q0 -136 -60 -246t-164 -178l-92 44
q104 52 168 152t64 228q-4 180 -124 300t-304 124q-120 0 -218 -60t-154 -160q-104 -56 -164 -154t-60 -222q0 -132 70 -236t186 -156v-92q-152 56 -246 186t-94 298q0 140 66 254t178 182q68 112 182 178t254 70z" />
    <glyph glyph-name="gesture-two-tap" unicode="&#xfc41;" arabic-form="isolated" 
d="M1184 473v-544q0 -52 -36 -88t-92 -40h-552q-52 0 -88 40l-416 356l64 68q24 24 60 24h20l272 -144v852q4 36 28 60t60 24t60 -24t24 -60v172q0 36 24 60t60 24t60 -24t28 -60v-428l352 -156q32 -16 52 -46t20 -66zM844 873v104q28 28 48 60q36 56 36 132q0 108 -72 180
t-178 72t-178 -68l-12 -12q-20 -16 -32 -36t-20 -44l-8 -20q-80 -24 -130 -90t-50 -156t52 -154q16 -20 32 -36v-104q-76 44 -122 122t-46 178t54 182t142 126q44 88 126 144t186 56q148 -4 244 -100t100 -240q-4 -100 -50 -176t-122 -120v0z" />
    <glyph glyph-name="humble-bundle" unicode="&#xfc42;" arabic-form="isolated" 
d="M1272 131q-152 88 -26 684t154 684h-248q-4 -12 -58 -208t-110 -472h-212q8 112 4 220q-24 420 -198 444t-306 -100q-116 -100 -192 -256t-80 -300h112q0 20 70 174t250 178q148 -88 24 -684t-156 -684h248q8 12 74 236t118 540h204q-16 -164 -12 -332q24 -416 198 -432
t306 108q120 108 194 276t74 276h-116q4 -28 -68 -178t-248 -174z" />
    <glyph glyph-name="kickstarter" unicode="&#xfc43;" arabic-form="isolated" 
d="M500 899l280 408q80 116 208 116q104 0 178 -74t74 -174q0 -76 -40 -132l-252 -372l308 -392q48 -60 48 -136q0 -108 -74 -182t-178 -74q-112 0 -172 76l-380 472v-260q0 -112 -40 -176q-72 -112 -208 -112q-120 0 -186 80t-66 204v972q0 120 66 200t182 80t192 -80
q40 -48 52 -96q8 -28 8 -104v-244z" />
    <glyph glyph-name="netflix" unicode="&#xfc44;" arabic-form="isolated" 
d="M90 1507h340l252 -752l4 752h340v-1704q-160 28 -348 36l-248 732l-4 -736q-184 -8 -336 -32v1704z" />
    <glyph glyph-name="onenote" unicode="&#xfc45;" arabic-form="isolated" 
d="M0 1275l1028 144v-164h596q36 0 60 -24t24 -60v-340q0 -36 -24 -60t-60 -28h-84v-680h-512v-172l-1028 152v1232zM772 255v724l-172 -20v-364l-172 340l-168 -20v-596l128 -24v472l212 -492zM1028 487h340v88h-340v-88zM1028 743h340v88h-340v-88zM1028 999h340v88h-340
v-88zM1028 319v-88h340v88h-340z" />
    <glyph glyph-name="periscope" unicode="&#xfc46;" arabic-form="isolated" 
d="M684 1083q0 -72 -50 -122t-122 -50t-120 50t-48 122q-84 -112 -88 -256q4 -184 126 -304t302 -124q180 4 302 124t126 304q-4 180 -126 300t-302 124q-56 0 -104 -12q48 -20 76 -62t28 -94zM684 1507q292 -4 484 -198t200 -482q0 -136 -48 -252q-116 -296 -316 -528
t-320 -244q-120 12 -320 244t-316 528q-48 116 -48 252q8 288 200 482t484 198z" />
    <glyph glyph-name="uber" unicode="&#xfc47;" arabic-form="isolated" 
d="M852 1507q364 -8 604 -248t248 -604q-8 -364 -248 -604t-604 -248q-352 8 -590 236t-262 572h596v-168q4 -40 44 -44h424q40 4 44 44v424q-4 40 -44 44h-424q-40 -4 -44 -44v-168h-596q24 344 262 572t590 236z" />
    <glyph glyph-name="vector-radius" unicode="&#xfc48;" arabic-form="isolated" 
d="M0 1339h168v168h512v-168q364 -12 604 -252t252 -604h168v-512h-168v-168h-172v168h-172v512h172q-8 292 -200 484t-484 200v-172h-512v172h-168v172zM1364 315v-172h172v172h-172zM340 1339v-172h172v172h-172z" />
    <glyph glyph-name="xbox-controller-battery-alert" unicode="&#xfc49;" arabic-form="isolated" 
d="M1709 59v1024h-512v-1024h512zM1765 1251q48 0 80 -32t36 -80v-1140q-4 -48 -36 -80t-80 -32h-624q-48 0 -80 32t-36 80v252h-448q-120 -12 -202 -108t-202 -172q-140 -4 -170 220t214 764h20l36 68q12 12 136 58t220 -18h396v76q4 48 36 80t80 32h140v172h344v-172h140z
M857 995q-36 0 -60 -24t-24 -60t24 -60t60 -24t60 24t24 60t-24 60t-60 24zM1369 911h168v-428h-168v428zM1369 399h168v-172h-168v172z" />
    <glyph glyph-name="xbox-controller-battery-empty" unicode="&#xfc4a;" arabic-form="isolated" 
d="M1709 59v1024h-512v-1024h512zM1765 1251q48 0 80 -32t36 -80v-1140q-4 -48 -36 -80t-80 -32h-624q-48 0 -80 32t-36 80v252h-448q-120 -12 -202 -108t-202 -172q-140 -4 -170 220t214 764h20l36 68q12 12 136 58t220 -18h396v76q4 48 36 80t80 32h140v172h344v-172h140z
M857 995q-36 0 -60 -24t-24 -60t24 -60t60 -24t60 24t24 60t-24 60t-60 24z" />
    <glyph glyph-name="xbox-controller-battery-full" unicode="&#xfc4b;" arabic-form="isolated" 
d="M1765 1251q48 0 80 -32t36 -80v-1140q-4 -48 -36 -80t-80 -32h-624q-48 0 -80 32t-36 80v252h-448q-120 -12 -202 -108t-202 -172q-140 -4 -170 220t214 764h20l36 68q12 12 136 58t220 -18h396v76q4 48 36 80t80 32h140v172h344v-172h140zM857 995q-36 0 -60 -24
t-24 -60t24 -60t60 -24t60 24t24 60t-24 60t-60 24z" />
    <glyph glyph-name="xbox-controller-battery-low" unicode="&#xfc4c;" arabic-form="isolated" 
d="M1709 315v768h-512v-768h512zM1765 1251q48 0 80 -32t36 -80v-1140q-4 -48 -36 -80t-80 -32h-624q-48 0 -80 32t-36 80v252h-448q-120 -12 -202 -108t-202 -172q-140 -4 -170 220t214 764h20l36 68q12 12 136 58t220 -18h396v76q4 48 36 80t80 32h140v172h344v-172h140z
M857 995q-36 0 -60 -24t-24 -60t24 -60t60 -24t60 24t24 60t-24 60t-60 24z" />
    <glyph glyph-name="xbox-controller-battery-medium" unicode="&#xfc4d;" arabic-form="isolated" 
d="M1709 655v428h-512v-428h512zM1765 1251q48 0 80 -32t36 -80v-1140q-4 -48 -36 -80t-80 -32h-624q-48 0 -80 32t-36 80v252h-448q-120 -12 -202 -108t-202 -172q-140 -4 -170 220t214 764h20l36 68q12 12 136 58t220 -18h396v76q4 48 36 80t80 32h140v172h344v-172h140z
M857 995q-36 0 -60 -24t-24 -60t24 -60t60 -24t60 24t24 60t-24 60t-60 24z" />
    <glyph glyph-name="xbox-controller-battery-unknown" unicode="&#xfc4e;" arabic-form="isolated" 
d="M1765 1251q48 0 80 -32t36 -80v-1140q-4 -48 -36 -80t-80 -32h-624q-48 0 -80 32t-36 80v252h-448q-120 -12 -202 -108t-202 -172q-140 -4 -170 220t214 764h20l36 68q12 12 136 58t220 -18h396v76q4 48 36 80t80 32h140v172h344v-172h140zM857 995q-36 0 -60 -24
t-24 -60t24 -60t60 -24t60 24t24 60t-24 60t-60 24zM1469 995q-112 0 -180 -50t-64 -150v-4h164q0 40 24 60t60 20t60 -24t24 -64t-20 -70t-52 -50q-68 -44 -92 -78t-24 -102h168q0 40 12 64t44 44q56 32 94 80t38 112q0 96 -68 154t-188 58zM1369 399v-172h168v172h-168z
" />
    <glyph glyph-name="clipboard-plus" unicode="&#xfc4f;" arabic-form="isolated" 
d="M512 1255q4 108 76 180t180 72t180 -72t76 -180h340q72 -4 122 -52t50 -120v-1108q0 -72 -50 -122t-122 -50h-1192q-72 0 -122 50t-50 122v1108q0 72 50 120t122 52h340zM768 1339q-36 0 -60 -24t-24 -60t24 -60t60 -24t60 24t24 60t-24 60t-60 24zM852 571v256h-168
v-256h-256v-172h256v-256h168v256h256v172h-256z" />
    <glyph glyph-name="file-plus" unicode="&#xfc50;" arabic-form="isolated" 
d="M768 911h472l-472 468v-468zM172 1507h684l512 -512v-1024q-4 -72 -52 -120t-120 -48h-1024q-72 0 -120 48t-52 120v1368q4 72 52 120t120 48zM600 399v256h-172v-256h-256v-172h256v-256h172v256h256v172h-256z" />
    <glyph glyph-name="format-align-bottom" unicode="&#xfc51;" arabic-form="isolated" 
d="M852 911l216 212l120 -120l-420 -420l-420 420l120 120l216 -212v512h168v-512zM0 399h1536v-172h-1536v172zM0 59h852v-172h-852v172z" />
    <glyph glyph-name="format-align-middle" unicode="&#xfc52;" arabic-form="isolated" 
d="M852 1167l172 172l120 -124l-376 -376l-376 376l120 124l172 -172v340h168v-340zM0 739h1536v-168h-1536v168zM852 143v-340h-168v340l-172 -172l-120 124l376 376l376 -376l-120 -124z" />
    <glyph glyph-name="format-align-top" unicode="&#xfc53;" arabic-form="isolated" 
d="M852 399l216 -212l120 120l-420 420l-420 -420l120 -120l216 212v-512h168v512zM0 1423h1536v-172h-1536v172zM0 1083h852v-172h-852v172z" />
    <glyph glyph-name="format-list-checks" unicode="&#xfc54;" arabic-form="isolated" 
d="M128 1295h512v-512h-512v512zM300 1127v-172h168v172h-168zM812 1127h852v-172h-852v172zM812 443h852v-172h-852v172zM300 15l-300 300l120 120l180 -176l392 388l120 -120z" />
    <glyph glyph-name="format-quote-open" unicode="&#xfc55;" arabic-form="isolated" 
d="M424 1083l-168 -344h256v-512h-512v512l168 344h256zM1108 1083l-172 -344h256v-512h-512v512l172 344h256z" />
    <glyph glyph-name="grid-large" unicode="&#xfc56;" arabic-form="isolated" 
d="M168 1507h1368q72 0 120 -48t48 -120v-1368q0 -72 -48 -120t-120 -48h-1368q-68 0 -118 48t-50 120v1368q0 72 48 120t120 48zM168 1339v-600h600v600h-600zM168 -29h600v600h-600v-600zM1536 -29v600h-600v-600h600zM1536 1339h-600v-600h600v600z" />
    <glyph glyph-name="heart-off" unicode="&#xfc57;" arabic-form="isolated" 
d="M0 1357l112 108l1512 -1512l-108 -108l-304 304l-272 -248l-124 112q-332 292 -528 520t-200 464q0 120 52 220zM556 1465q112 0 212 -48t172 -128q72 80 172 128t212 48q200 -4 332 -136t136 -332q0 -164 -94 -318t-262 -322l-1072 1068q88 40 192 40z" />
    <glyph glyph-name="music" unicode="&#xfc58;" arabic-form="isolated" 
d="M1620 1421v-1068q-4 -124 -88 -210t-210 -86t-212 86t-86 212t86 210t210 88q72 0 128 -28v500l-852 -180v-760q-4 -128 -88 -212t-210 -84t-212 84t-86 210t86 212t210 86q72 0 128 -28v712z" />
    <glyph glyph-name="music-off" unicode="&#xfc59;" arabic-form="isolated" 
d="M0 1273l108 108l1428 -1428l-108 -108l-832 828v-444q-4 -128 -88 -212t-210 -84t-212 84t-86 210t86 212t210 86q72 0 128 -28v348zM1620 1465v-1068q-4 -132 -96 -216l-420 420q84 92 216 96q72 0 128 -28v500l-752 -160l-216 212z" />
    <glyph glyph-name="tab-plus" unicode="&#xfc5a;" arabic-form="isolated" 
d="M1364 59v852h-596v340h-596v-1192h1192zM1364 1423q72 0 122 -50t50 -122v-1192q0 -72 -50 -122t-122 -50h-1192q-72 0 -122 50t-50 122v1192q0 76 50 124t122 48h1192zM340 571h256v256h172v-256h256v-172h-256v-256h-172v256h-256v172z" />
    <glyph glyph-name="volume-plus" unicode="&#xfc5b;" arabic-form="isolated" 
d="M0 911h340l428 428v-1368l-428 428h-340v512zM940 739h256v256h168v-256h256v-168h-256v-256h-168v256h-256v168z" />
    <glyph glyph-name="volume-minus" unicode="&#xfc5c;" arabic-form="isolated" 
d="M0 911h340l428 428v-1368l-428 428h-340v512zM940 739h680v-168h-680v168z" />
    <glyph glyph-name="volume-mute" unicode="&#xfc5d;" arabic-form="isolated" 
d="M0 911h340l428 428v-1368l-428 428h-340v512zM1160 655l-220 220l120 120l220 -220l220 220l120 -120l-220 -220l220 -220l-120 -120l-220 220l-220 -220l-120 120z" />
    <glyph glyph-name="unfold-less-vertical" unicode="&#xfc5e;" arabic-form="isolated" 
d="M120 1047l392 -392l-392 -392l-120 120l272 272l-272 272zM1248 263l-392 392l392 392l120 -120l-272 -272l272 -272z" />
    <glyph glyph-name="unfold-more-vertical" unicode="&#xfc5f;" arabic-form="isolated" 
d="M1296 655l-272 272l120 120l392 -392l-392 -392l-120 120zM240 655l272 -272l-120 -120l-392 392l392 392l120 -120z" />
    <glyph glyph-name="taco" unicode="&#xfc60;" arabic-form="isolated" 
d="M1536 143h-1192q-148 4 -244 100t-100 240q8 292 200 484t484 200q136 0 256 -48q120 48 256 48q292 -8 484 -200t200 -484q-4 -144 -100 -240t-244 -100zM172 483q0 -72 50 -120t122 -48t120 48t48 120q4 156 64 286t164 222l-56 4q-216 -4 -362 -148t-150 -364z
M1536 315q72 0 122 48t50 120q-4 220 -150 364t-362 148q-216 -4 -362 -148t-150 -364q0 -92 -48 -168h900z" />
    <glyph glyph-name="square-outline" unicode="&#xfc61;" arabic-form="isolated" 
d="M0 1423h1536v-1536h-1536v1536zM172 1251v-1192h1192v1192h-1192z" />
    <glyph glyph-name="square" unicode="&#xfc62;" arabic-form="isolated" 
d="M0 1423v-1536h1536v1536h-1536z" />
    <glyph glyph-name="circle" unicode="&#xfc63;" arabic-form="isolated" 
d="M852 1507q-364 -8 -604 -248t-248 -604q8 -364 248 -604t604 -248q364 8 604 248t248 604q-8 364 -248 604t-604 248z" />
    <glyph glyph-name="circle-outline" unicode="&#xfc64;" arabic-form="final" 
d="M852 -29q-292 8 -484 200t-200 484q8 292 200 484t484 200q292 -8 484 -200t200 -484q-8 -292 -200 -484t-484 -200zM852 1507q-364 -8 -604 -248t-248 -604q8 -364 248 -604t604 -248q364 8 604 248t248 604q-8 364 -248 604t-604 248z" />
    <glyph glyph-name="alert-octagram" unicode="&#xfc65;" arabic-form="final" 
d="M0 307l144 348l-144 348l348 140l140 348l348 -144l348 144l140 -348l348 -140l-144 -348l144 -348l-348 -140l-140 -348l-348 144l-348 -144l-140 348zM920 227v172h-168v-172h168zM920 571v512h-168v-512h168z" />
    <glyph glyph-name="atom" unicode="&#xfc66;" arabic-form="final" 
d="M729 739q36 0 60 -24t24 -60t-24 -60t-60 -24t-60 24t-24 60t24 60t60 24zM65 1319q96 88 274 56t390 -172q212 140 390 172t270 -60t60 -270t-172 -390q140 -212 172 -390t-60 -270t-270 -60t-390 172q-212 -140 -390 -172t-270 60t-60 270t172 390q-140 212 -172 390
t56 274zM1033 959q76 -80 144 -164q88 140 114 246t-22 154t-154 22t-246 -114q84 -68 164 -144zM425 351q-76 80 -144 164q-88 -140 -114 -246t22 -154t154 -22t246 114q-84 68 -164 144zM185 1199q-44 -52 -18 -158t114 -246q68 84 146 162t162 146q-140 88 -246 114
t-158 -18zM549 475q88 -92 180 -164q92 72 182 162t162 182q-72 92 -162 182t-182 162q-92 -72 -182 -162t-162 -182q72 -92 164 -180zM1273 111q44 52 18 158t-114 246q-68 -84 -146 -162t-162 -146q140 -88 246 -114t158 18z" />
    <glyph glyph-name="ceiling-light" unicode="&#xfc67;" arabic-form="final" 
d="M344 909h256v428h168v-428h256l344 -684h-1368zM856 141q-4 -72 -52 -120t-120 -48t-120 48t-52 120h344z" />
    <glyph glyph-name="chart-bar-stacked" unicode="&#xfc68;" arabic-form="final" 
d="M1704 -113h-1704v1536h168v-1364h172v168h340v-168h172v256h340v-256h172v168h340v-340zM1364 483h340v-168h-340v168zM852 1167h340v-256h-340v256zM1192 399h-340v428h340v-428zM340 827h340v-172h-340v172zM680 315h-340v256h340v-256z" />
    <glyph glyph-name="chart-line-stacked" unicode="&#xfc69;" arabic-form="final" 
d="M1316 383l388 716v-1212h-1704v1536h168v-1364h220l376 644zM1704 1423v-40l-424 -644l-600 428l-340 -512v768h1364z" />
    <glyph glyph-name="decagram" unicode="&#xfc6a;" arabic-form="final" 
d="M1880 655l-208 236l28 316l-308 68l-160 272l-292 -124l-292 124l-160 -272l-308 -68l28 -312l-208 -240l208 -236l-28 -316l308 -72l160 -268l292 124l292 -124l160 272l308 68l-28 316z" />
    <glyph glyph-name="decagram-outline" unicode="&#xfc6b;" arabic-form="final" 
d="M1880 655l-208 -236l28 -316l-308 -68l-160 -272l-292 124l-292 -124l-160 268l-308 72l28 316l-208 236l208 240l-28 312l308 68l160 272l292 -124l292 124l160 -272l308 -68l-28 -316zM1652 655l-156 180l20 240l-236 48l-120 208l-220 -96l-220 96l-120 -208l-236 -48
l20 -240l-156 -180l156 -180l-20 -240l236 -48l120 -208l220 96l220 -96l120 208l236 52l-20 236z" />
    <glyph glyph-name="dice-multiple" unicode="&#xfc6c;" arabic-form="final" 
d="M1432 1423h-732q-44 0 -72 -30t-32 -74v-324h512v-512h324q44 4 74 32t30 72v732q0 44 -30 74t-74 30zM804 1111q-44 0 -74 30t-30 74t30 74t76 30t74 -30t28 -74t-28 -74t-76 -30zM1328 587q-44 0 -74 30t-30 76t28 74t74 30t76 -28t30 -76t-30 -74t-74 -32zM1328 1111
q-44 0 -74 30t-30 74t28 74t74 30t76 -30t30 -74t-30 -74t-74 -30zM104 827h732q44 -4 72 -32t32 -72v-732q-4 -44 -32 -74t-72 -30h-732q-44 0 -74 30t-30 74v732q0 44 30 72t74 32zM468 459q-44 0 -72 -30t-28 -74t28 -72t72 -28t74 28t30 72t-30 74t-74 30zM208 723
q-44 -4 -74 -32t-30 -72t30 -74t74 -30t74 30t30 74t-30 72t-74 32zM728 199q-44 0 -72 -30t-28 -74t28 -72t72 -28t74 28t30 72t-28 74t-72 30h-4z" />
    <glyph glyph-name="dice-d10" unicode="&#xfc6d;" arabic-form="final" 
d="M1668 759q36 -48 36 -104t-36 -104l-708 -708q-48 -44 -104 -44t-104 44l-708 708q-44 48 -44 104t44 104l708 708q48 44 104 44t104 -44zM1564 655l-708 708l-708 -708l708 -708zM716 331h-128v496l-152 -48v104l268 96h12v-648zM1020 995q92 0 154 -62t66 -154v-228
q-4 -92 -66 -154t-154 -62t-154 62t-66 154v228q4 92 66 154t154 62zM1020 875q-40 -4 -64 -28t-28 -64v-236q4 -40 28 -64t64 -24t66 24t26 64v236q0 40 -26 64t-66 28z" />
    <glyph glyph-name="folder-open" unicode="&#xfc6e;" arabic-form="final" 
d="M1448 -29h-1280q-72 4 -120 52t-48 120v1024q0 72 48 120t120 52h512l172 -172h596q72 0 122 -50t50 -122h-1452v-852l184 684h1456l-192 -728q-16 -56 -62 -90t-106 -38z" />
    <glyph glyph-name="guitar-acoustic" unicode="&#xfc6f;" arabic-form="final" 
d="M1416 1423h204v-172h-136l-360 -360q-48 72 -120 120zM768 995q144 -4 240 -100t100 -240q0 -120 -70 -210t-186 -122v-8q-4 -184 -124 -304t-300 -124q-184 4 -304 124t-124 304q4 180 124 300t304 124h8q32 116 122 186t210 70zM768 783q-56 0 -92 -36t-36 -92t36 -92
t92 -36t92 36t36 92t-36 92t-92 36zM336 463l-60 -60l240 -240l60 60z" />
    <glyph glyph-name="loading" unicode="&#xfc70;" arabic-form="final" 
d="M984 913v168q-364 -8 -604 -248t-248 -604h168q8 292 200 484t484 200z" />
    <glyph glyph-name="lock-reset" unicode="&#xfc71;" arabic-form="final" 
d="M1076 1507q364 -8 606 -250t250 -602q-8 -360 -250 -602t-606 -250q-224 0 -410 106t-302 282l136 108q92 -148 242 -236t338 -92q288 8 480 200t200 484q-8 292 -200 484t-480 200q-268 -8 -454 -174t-226 -426h236l-316 -316l-320 316h228q40 332 276 546t572 222z
M1332 807q32 -4 54 -26t22 -54v-392q0 -36 -22 -58t-58 -22h-472q-32 0 -54 22t-22 58v392q0 32 22 54t54 26v84q4 100 70 168t166 68t168 -68t72 -168v-84zM1092 1007q-48 0 -82 -32t-34 -84v-84h236v84q-4 52 -36 84t-84 32z" />
    <glyph glyph-name="ninja" unicode="&#xfc72;" arabic-form="final" 
d="M488 571q0 44 36 76q96 -20 180 -76q-4 -48 -34 -76t-74 -30t-74 28t-34 78zM1000 571q84 56 180 76q36 -32 34 -78t-32 -76t-74 -30t-74 30t-34 78zM852 911q-360 4 -676 -172l-8 -84q0 -160 72 -304q304 48 612 48t612 -48q72 144 72 304l-8 84q-316 176 -676 172z
M852 1507q364 -8 604 -248t248 -604q-8 -364 -248 -604t-604 -248q-364 8 -604 248t-248 604q8 364 248 604t604 248z" />
    <glyph glyph-name="octagram-outline" unicode="&#xfc73;" arabic-form="final" 
d="M0 307l144 348l-144 348l348 140l140 348l348 -144l348 144l140 -348l348 -140l-144 -348l144 -348l-348 -140l-140 -348l-348 144l-348 -144l-140 348zM224 911l104 -256l-104 -256l252 -104l104 -252l256 104l256 -104l104 252l252 104l-104 256l104 256l-252 104
l-104 252l-256 -104l-256 104l-104 -252z" />
    <glyph glyph-name="pencil-circle-outline" unicode="&#xfc74;" arabic-form="final" 
d="M424 403l520 520l176 -176l-520 -520h-176v176zM852 -29q292 8 484 200t200 484q-8 292 -200 484t-484 200q-292 -8 -484 -200t-200 -484q8 -292 200 -484t484 -200zM1252 883l-84 -88l-176 176l88 84q32 28 64 0l108 -108q28 -32 0 -64zM852 1507q364 -8 604 -248
t248 -604q-8 -364 -248 -604t-604 -248q-364 8 -604 248t-248 604q8 364 248 604t604 248z" />
    <glyph glyph-name="selection-off" unicode="&#xfc75;" arabic-form="final" 
d="M0 1423l108 108l1684 -1684l-108 -108l-128 128h-148v148l-1132 1132h-148v148zM296 1571h256v-168h-100l-168 168h12zM1832 1403v-256h-168v256h-256v168h256q72 0 120 -48t48 -120zM1664 291h168v-268l-168 168v100zM128 35v256h168v-256h256v-168h-256q-72 0 -120 48
t-48 120zM808 1571h344v-168h-344v168zM808 35h344v-168h-344v168zM1664 891h168v-344h-168v344zM128 891h168v-344h-168v344z" />
    <glyph glyph-name="set-all" unicode="&#xfc76;" arabic-form="final" 
d="M596 1251q136 0 256 -56q120 56 256 56q256 -4 424 -172t172 -424q-4 -256 -172 -424t-424 -172q-136 0 -256 56q-120 -56 -256 -56q-256 4 -424 172t-172 424q4 256 172 424t424 172zM552 655q4 -120 50 -224t126 -180l88 36q-84 68 -130 162t-46 206t46 206t130 162
l-88 36q-80 -76 -126 -180t-50 -224zM1152 655q-4 120 -50 224t-126 180l-88 -36q84 -68 130 -162t46 -206t-46 -206t-130 -162l88 -36q80 76 126 180t50 224z" />
    <glyph glyph-name="set-center" unicode="&#xfc77;" arabic-form="final" 
d="M596 1251q-256 -4 -424 -172t-172 -424q4 -256 172 -424t424 -172q136 0 256 56q120 -56 256 -56q256 4 424 172t172 424q-4 256 -172 424t-424 172q-136 0 -256 -56q-120 56 -256 56zM596 1083q44 0 84 -8q-80 -88 -124 -194t-44 -226t44 -226t124 -190q-40 -12 -84 -12
q-180 4 -302 126t-126 302q4 180 126 302t302 126zM1108 1083q180 -4 302 -126t126 -302q-4 -180 -126 -302t-302 -126q-44 0 -84 8q80 88 124 194t44 226t-44 226t-124 190q40 12 84 12z" />
    <glyph glyph-name="set-center-right" unicode="&#xfc78;" arabic-form="final" 
d="M1108 59q-136 0 -256 56q-120 -56 -256 -56q-256 4 -424 172t-172 424q4 256 172 424t424 172q136 0 256 -56q120 56 256 56q256 -4 424 -172t172 -424q-4 -256 -172 -424t-424 -172zM596 227l84 12q-80 84 -124 190t-44 226t44 226t124 194l-84 8q-180 -4 -302 -126
t-126 -302q4 -180 126 -302t302 -126zM1152 655q-4 120 -50 224t-126 180l-88 -36q84 -68 130 -162t46 -206t-46 -206t-130 -162l88 -36q80 76 126 180t50 224z" />
    <glyph glyph-name="set-left" unicode="&#xfc79;" arabic-form="final" 
d="M596 1251q-256 -4 -424 -172t-172 -424q4 -256 172 -424t424 -172q136 0 256 56q120 -56 256 -56q256 4 424 172t172 424q-4 256 -172 424t-424 172q-136 0 -256 -56q-120 56 -256 56zM1108 1083q180 -4 302 -126t126 -302q-4 -180 -126 -302t-302 -126q-44 0 -84 8
q80 88 124 194t44 226t-44 226t-124 190q40 12 84 12zM852 995q80 -60 126 -150t46 -190t-46 -190t-126 -150q-80 60 -126 150t-46 190t46 190t126 150z" />
    <glyph glyph-name="set-left-center" unicode="&#xfc7a;" arabic-form="final" 
d="M596 1251q136 0 256 -56q120 56 256 56q256 -4 424 -172t172 -424q-4 -256 -172 -424t-424 -172q-136 0 -256 56q-120 -56 -256 -56q-256 4 -424 172t-172 424q4 256 172 424t424 172zM1108 1083l-84 -12q80 -84 124 -190t44 -226t-44 -226t-124 -194l84 -8
q180 4 302 126t126 302q-4 180 -126 302t-302 126zM552 655q4 -120 50 -224t126 -180l88 36q-84 68 -130 162t-46 206t46 206t130 162l-88 36q-80 -76 -126 -180t-50 -224z" />
    <glyph glyph-name="set-left-right" unicode="&#xfc7b;" arabic-form="final" 
d="M596 1251q136 0 256 -56q120 56 256 56q256 -4 424 -172t172 -424q-4 -256 -172 -424t-424 -172q-136 0 -256 56q-120 -56 -256 -56q-256 4 -424 172t-172 424q4 256 172 424t424 172zM596 655q0 -144 70 -260t186 -184q116 68 186 184t70 260t-70 260t-186 184
q-116 -68 -186 -184t-70 -260z" />
    <glyph glyph-name="set-none" unicode="&#xfc7c;" arabic-form="final" 
d="M596 1251q-256 -4 -424 -172t-172 -424q4 -256 172 -424t424 -172q136 0 256 56q120 -56 256 -56q256 4 424 172t172 424q-4 256 -172 424t-424 172q-136 0 -256 -56q-120 56 -256 56zM596 1083q44 0 84 -8q-80 -88 -124 -194t-44 -226t44 -226t124 -190q-40 -12 -84 -12
q-180 4 -302 126t-126 302q4 180 126 302t302 126zM1108 1083q180 -4 302 -126t126 -302q-4 -180 -126 -302t-302 -126q-44 0 -84 8q80 88 124 194t44 226t-44 226t-124 190q40 12 84 12zM852 995q80 -60 126 -150t46 -190t-46 -190t-126 -150q-80 60 -126 150t-46 190
t46 190t126 150z" />
    <glyph glyph-name="set-right" unicode="&#xfc7d;" arabic-form="final" 
d="M1108 59q-136 0 -256 56q-120 -56 -256 -56q-256 4 -424 172t-172 424q4 256 172 424t424 172q136 0 256 -56q120 56 256 56q256 -4 424 -172t172 -424q-4 -256 -172 -424t-424 -172zM596 227l84 12q-80 84 -124 190t-44 226t44 226t124 194l-84 8q-180 -4 -302 -126
t-126 -302q4 -180 126 -302t302 -126zM852 315q80 60 126 150t46 190t-46 190t-126 150q-80 -60 -126 -150t-46 -190t46 -190t126 -150z" />
    <glyph glyph-name="shield-half-full" unicode="&#xfc7e;" arabic-form="final" 
d="M1536 739q-8 -364 -220 -648t-548 -376q-336 92 -548 376t-220 648v512l768 344l768 -344v-512zM768 -113q248 72 420 310t176 526v420l-596 264v-1520z" />
    <glyph glyph-name="sign-direction" unicode="&#xfc7f;" arabic-form="final" 
d="M640 655h-640l212 212l-212 216h640v340l84 84l84 -84v-340h428l212 -216l-212 -212h-428v-684q72 0 122 -48t50 -120h-512q0 72 50 120t122 48v684z" />
    <glyph glyph-name="sign-text" unicode="&#xfc80;" arabic-form="final" 
d="M684 1423l84 84l84 -84v-172h600q36 0 60 -24t24 -60v-852q0 -36 -24 -60t-60 -28h-600v-256q72 0 122 -48t50 -120h-512q0 72 50 120t122 48v256h-600q-36 4 -60 28t-24 60v852q0 36 24 60t60 24h600v172zM256 995v-168h1024v168h-1024zM256 655v-172h596v172h-596z" />
    <glyph glyph-name="signal-off" unicode="&#xfc81;" arabic-form="final" 
d="M1280 1509v-1124l256 -256v1380h-256zM108 1337l-108 -108l660 -660h-232v-596h256v576l168 -172v-404h256v148l320 -320l108 112zM852 997v-188l256 -256v444h-256zM0 229v-256h256v256h-256z" />
    <glyph glyph-name="square-root" unicode="&#xfc82;" arabic-form="final" 
d="M832 285l240 240l-240 244l120 120l240 -244l244 244l120 -120l-244 -244l244 -240l-120 -120l-244 240l-240 -240zM0 781h256l196 -460l228 888h1024v-172h-892l-244 -936h-208l-216 512h-144v168z" />
    <glyph glyph-name="sticker-emoji" unicode="&#xfc83;" arabic-form="final" 
d="M296 1507q-124 0 -210 -86t-86 -210v-1112q0 -124 86 -210t210 -86h896l512 512v896q0 124 -86 210t-210 86h-1112zM320 1339h1064q64 -4 106 -46t46 -106v-788h-128q-128 -4 -212 -88t-88 -212v-128h-788q-64 4 -106 46t-46 106v1064q4 64 46 106t106 46zM1060 1103
q-20 0 -40 -8q-60 -16 -90 -68t-14 -116q4 -20 16 -36l276 72q0 24 -4 44q-16 48 -54 78t-90 34zM524 955q-20 0 -40 -4q-60 -20 -90 -72t-14 -112q4 -20 20 -40l272 76q0 20 -4 40q-12 52 -52 82t-92 30zM1256 719l-780 -216q88 -96 208 -134t248 -4t214 128t110 226z" />
    <glyph glyph-name="summit" unicode="&#xfc84;" arabic-form="final" 
d="M1108 1423h172l424 -172l-424 -168v-272l424 -924h-1704l512 684l296 -404l300 644v612z" />
    <glyph glyph-name="sword-cross" unicode="&#xfc85;" arabic-form="final" 
d="M412 1477l1016 -1016l180 180l120 -120l-208 -208l272 -272q24 -28 24 -62t-24 -58l-64 -64q-24 -24 -58 -24t-62 24l-272 272l-208 -212l-120 120l180 184l-1016 1016v240h240zM1240 833l404 404v240h-240l-404 -404zM816 405l-240 244l-188 -188l-180 180l-120 -120
l208 -208l-272 -276q-24 -24 -24 -58t24 -62l64 -60q24 -24 58 -24t62 24l272 272l208 -212l120 120l-180 184z" />
    <glyph glyph-name="truck-fast" unicode="&#xfc86;" arabic-form="final" 
d="M236 525l-64 128h448l-52 128h-416l-64 128h664l-52 128h-624l-76 128h320q4 72 52 120t120 52h1024v-344h256l256 -340v-428h-172q0 -108 -72 -180t-182 -72t-182 72t-76 180h-340q-4 -108 -76 -180t-180 -72t-180 72t-76 180h-172v300h-84zM1600 97q56 4 92 40t36 90
t-36 90t-90 36t-90 -36t-36 -90t36 -90t88 -40zM1728 865h-212v-212h380zM748 97q56 4 92 40t36 90t-36 90t-92 36t-92 -36t-36 -90t36 -90t92 -40z" />
    <glyph glyph-name="yammer" unicode="&#xfc87;" arabic-form="final" 
d="M838 1180l-372 -952q0 -20 -74 -112t-262 -104q-36 0 -62 24t-26 60t26 60t62 24q96 8 136 52t40 56l32 84l-332 808q-12 36 2 68t48 44t66 0t44 -48l264 -640l248 640q16 36 46 48t64 0t48 -44t2 -68zM1262 1144q-24 0 -46 -16t-176 -132t-162 -152q36 -8 212 70t200 90
q44 16 44 68q0 28 -20 50t-52 22zM1326 252q-12 20 -36 32t-202 88t-210 68q8 -36 162 -152t178 -128q36 -32 80 -8q28 16 36 44t-8 56zM1470 712q-20 16 -48 12t-218 -28t-218 -52q28 -24 220 -44t220 -20q44 -8 72 36q16 24 8 52t-36 44z" />
    <glyph glyph-name="cast-off" unicode="&#xfc88;" arabic-form="final" 
d="M116 1571l-116 -128l100 -88q-32 -44 -36 -104v-256h172v236l1296 -1172h-356v-172h544l164 -148l116 128zM536 1423l188 -172h1048v-948l172 -156v1104q-4 76 -52 124t-120 48h-1236zM64 827v-172q328 -8 544 -224t224 -544h172q-12 400 -276 664t-664 276zM64 483v-168
q184 -4 304 -126t124 -302h172q-8 256 -176 424t-424 172zM64 143v-256h256q0 108 -72 180t-184 76z" />
    <glyph glyph-name="help-box" unicode="&#xfc89;" arabic-form="final" 
d="M684 143h168v172h-168v-172zM768 1167q-144 -4 -240 -100t-100 -240h168q4 72 52 120t120 48t120 -48t52 -120q-16 -112 -128 -174t-128 -254h168q16 132 128 206t128 222q-4 144 -100 240t-240 100zM172 1423h1192q72 0 122 -50t50 -122v-1192q0 -72 -50 -122t-122 -50
h-1192q-72 0 -122 50t-50 122v1192q0 72 50 122t122 50z" />
    <glyph glyph-name="timer-sand-full" unicode="&#xfc8a;" arabic-form="final" 
d="M46 1507v-512l340 -340l-340 -340v-512h1024v512l-340 340l340 340v512h-1024z" />
    <glyph glyph-name="waves" unicode="&#xfc8b;" arabic-form="final" 
d="M0 185q140 68 282 118t286 54q140 -12 284 -86t284 -86q144 12 286 86t282 86v-256q-140 -12 -282 -86t-286 -86q-140 12 -284 86t-284 86q-144 -4 -286 -54t-282 -118v256zM0 697q140 68 282 118t286 54q140 -12 284 -86t284 -86q144 12 286 86t282 86v-256
q-140 -12 -282 -86t-286 -86q-140 12 -284 86t-284 86q-144 -4 -286 -54t-282 -118v256zM0 1209q140 68 282 118t286 54q140 -12 284 -86t284 -86q144 12 286 86t282 86v-256q-140 -12 -282 -86t-286 -86q-140 12 -284 86t-284 86q-144 -4 -286 -54t-282 -118v256z" />
    <glyph glyph-name="alarm-bell" unicode="&#xfc8c;" arabic-form="final" 
d="M1108 87v-284h-852v284q200 -116 426 -116t426 116zM1704 1339q0 72 -48 120t-120 48q-40 0 -78 -18t-62 -54q-40 -60 -30 -126t70 -110q44 -32 100 -32h20q108 -292 34 -578t-310 -490q-44 -32 -88 -60v-152h88v108q200 148 312 364t112 468q0 192 -68 372q68 52 68 140
zM1364 827q-8 -292 -200 -484t-484 -200q-288 8 -482 200t-198 484q4 288 198 482t482 198q292 -4 484 -198t200 -482z" />
    <glyph glyph-name="alarm-light" unicode="&#xfc8d;" arabic-form="final" 
d="M384 1047l-180 180l120 120l180 -180zM980 1551v-256h-168v256h168zM1588 1227l-180 -180l-120 120l180 180zM256 739v-172h-256v172h256zM1536 739h256v-172h-256v172zM384 -73h1024q72 0 120 -48t52 -120h-1368q4 72 52 120t120 48zM896 1207q216 -4 362 -148t150 -364
v-680h-1024v680q4 220 150 364t362 148z" />
    <glyph glyph-name="android-head" unicode="&#xfc8e;" arabic-form="final" 
d="M512 633q-48 -4 -78 -34t-30 -74t30 -74t76 -30t76 30t30 74t-30 74t-74 34zM1192 633q-44 -4 -74 -34t-30 -74t30 -74t76 -30t76 30t30 74t-30 74t-78 34zM852 1017q192 -4 356 -80l184 184q28 28 62 28t60 -26t26 -60t-28 -62l-152 -152q160 -120 252 -298t92 -390
h-1704q0 212 92 390t252 298l-152 152q-28 28 -28 62t26 60t60 26t62 -28l184 -184q164 76 356 80z" />
    <glyph glyph-name="approval" unicode="&#xfc8f;" arabic-form="final" 
d="M1880 655l-208 236l28 316l-308 68l-160 272l-292 -124l-292 124l-160 -272l-308 -68l28 -312l-208 -240l208 -236l-28 -316l308 -72l160 -268l292 124l292 -124l160 272l308 68l-28 316zM768 227l-340 344l120 120l220 -220l564 560l120 -120z" />
    <glyph glyph-name="arrow-collapse-down" unicode="&#xfc90;" arabic-form="final" 
d="M1528 647l-676 -676l-676 676l120 120l472 -468v1208h168v-1208l472 472zM852 -29h-852v-168h1704v168h-852z" />
    <glyph glyph-name="arrow-collapse-left" unicode="&#xfc91;" arabic-form="final" 
d="M844 -21l-676 676l676 676l120 -120l-468 -472h1208v-168h-1208l472 -472zM168 655v852h-168v-1704h168v852z" />
    <glyph glyph-name="arrow-collapse-right" unicode="&#xfc92;" arabic-form="final" 
d="M860 1331l676 -676l-676 -676l-120 120l468 472h-1208v168h1208l-468 472zM1536 655v-852h168v1704h-168v-852z" />
    <glyph glyph-name="arrow-collapse-up" unicode="&#xfc93;" arabic-form="final" 
d="M176 663l676 676l676 -676l-120 -120l-472 468v-1208h-168v1208l-472 -468zM852 1339h852v168h-1704v-168h852z" />
    <glyph glyph-name="arrow-expand-down" unicode="&#xfc94;" arabic-form="final" 
d="M1704 1339v168h-1704v-168h768v-1212l-472 472l-120 -120l676 -676l676 676l-120 120l-472 -472v1212h768z" />
    <glyph glyph-name="arrow-expand-left" unicode="&#xfc95;" arabic-form="final" 
d="M1536 -197h168v1704h-168v-768h-1212l472 472l-120 120l-676 -676l676 -676l120 120l-472 472h1212v-768z" />
    <glyph glyph-name="arrow-expand-right" unicode="&#xfc96;" arabic-form="final" 
d="M168 1507h-168v-1704h168v768h1212l-472 -472l120 -120l676 676l-676 676l-120 -120l472 -472h-1212v768z" />
    <glyph glyph-name="arrow-expand-up" unicode="&#xfc97;" arabic-form="initial" 
d="M0 -29v-168h1704v168h-768v1212l472 -472l120 120l-676 676l-676 -676l120 -120l472 472v-1212h-768z" />
    <glyph glyph-name="book-secure" unicode="&#xfc98;" arabic-form="initial" 
d="M1196 1507h-512v-596l-212 128l-216 -128v596h-84q-72 0 -120 -48t-52 -120v-1368q4 -72 52 -120t120 -48h1024q72 0 120 48t52 120v1368q-4 72 -52 120t-120 48zM1196 -29h-684v344h88v84q0 108 72 180t182 72t182 -72t76 -180v-84h84v-344zM940 399v-84h-172v84
q4 36 28 60t60 24t60 -24t24 -60z" />
    <glyph glyph-name="book-unsecure" unicode="&#xfc99;" arabic-form="initial" 
d="M1196 1507h-512v-596l-212 128l-216 -128v596h-84q-72 0 -120 -48t-52 -120v-1368q4 -72 52 -120t120 -48h1024q72 0 120 48t52 120v1368q-4 72 -52 120t-120 48zM1196 -29h-684v344h88v168q0 112 72 184t182 72t182 -72t76 -184h-172q0 36 -24 60t-60 24t-60 -24
t-28 -60v-168h428v-344z" />
    <glyph glyph-name="bus-articulated-end" unicode="&#xfc9a;" arabic-form="initial" 
d="M1624 1165l-128 -128l128 -128l-128 -128l128 -128l-128 -128l128 -128h-768q-4 -108 -76 -180t-182 -72t-182 72t-72 180h-344v596q4 76 52 124t120 48h1452zM1368 1037h-300v-212h300v212zM940 1037h-340v-212h340v212zM472 1037h-344v-212h344v212zM600 525
q-56 0 -92 -36t-36 -92t36 -92t90 -36t90 36t36 92t-36 92t-88 36z" />
    <glyph glyph-name="bus-articulated-front" unicode="&#xfc9b;" arabic-form="initial" 
d="M0 1165l128 -128l-128 -128l128 -128l-128 -128l128 -128l-128 -128h172q4 -108 76 -180t180 -72t180 72t76 180h512q4 -108 76 -180t180 -72t180 72t76 180h172v596q-4 76 -52 124t-120 48h-1708zM256 1037h216v-212h-216v212zM600 1037h340v-212h-340v212zM1068 1037
h340v-212h-340v212zM1536 1037h216v-468l-216 168v300zM428 525q56 0 92 -36t36 -92t-36 -92t-92 -36t-92 36t-36 92t36 92t92 36zM1452 525q56 0 92 -36t36 -92t-36 -92t-92 -36t-92 36t-36 92t36 92t92 36z" />
    <glyph glyph-name="bus-double-decker" unicode="&#xfc9c;" arabic-form="initial" 
d="M172 1337q-72 -4 -120 -52t-52 -120v-940h172q4 -108 76 -180t180 -72t180 72t76 180h512q4 -108 76 -180t180 -72t180 72t76 180h172v256q-4 76 -52 124t-120 48h-172v212h344v300q-4 72 -52 120t-120 52h-1536zM128 1209h344v-216h-344v216zM600 1209h340v-216h-340
v216zM1068 1209h340v-216h-340v216zM1536 1209h216v-216h-216v216zM1068 865h340v-212h-340v212zM128 865h344v-212h-344v212zM600 865h340v-212h-340v212zM428 353q56 0 92 -36t36 -90t-36 -90t-92 -36t-92 36t-36 90t36 90t92 36zM1452 353q56 0 92 -36t36 -90t-36 -90
t-92 -36t-92 36t-36 90t36 90t92 36z" />
    <glyph glyph-name="bus-school" unicode="&#xfc9d;" arabic-form="initial" 
d="M172 1165q-72 0 -120 -48t-52 -124v-596h172q4 -108 76 -180t180 -72t180 72t76 180h512q4 -108 76 -180t180 -72t180 72t76 180h172v256q-4 72 -52 120t-120 52h-172v168q0 76 -48 124t-120 48h-1196zM1068 1037h340v-212h-340v212zM128 1037h344v-212h-344v212z
M600 1037h340v-212h-340v212zM428 525q56 0 92 -36t36 -92t-36 -92t-92 -36t-92 36t-36 92t36 92t92 36zM1452 525q56 0 92 -36t36 -92t-36 -92t-92 -36t-92 36t-36 92t36 92t92 36z" />
    <glyph glyph-name="bus-side" unicode="&#xfc9e;" arabic-form="initial" 
d="M172 1165q-72 0 -120 -48t-52 -124v-596h172q4 -108 76 -180t180 -72t180 72t76 180h512q4 -108 76 -180t180 -72t180 72t76 180h172v596q-4 76 -52 124t-120 48h-1536zM128 1037h344v-212h-344v212zM600 1037h340v-212h-340v212zM1068 1037h340v-212h-340v212z
M1536 1037h216v-468l-216 168v300zM428 525q56 0 92 -36t36 -92t-36 -92t-92 -36t-92 36t-36 92t36 92t92 36zM1452 525q56 0 92 -36t36 -92t-36 -92t-92 -36t-92 36t-36 92t36 92t92 36z" />
    <glyph glyph-name="camera-gopro" unicode="&#xfc9f;" arabic-form="initial" 
d="M1536 1251h-428q-72 0 -120 -48t-52 -120v-428q4 -72 52 -120t120 -52h428q72 4 120 52t48 120v428q0 72 -48 120t-120 48zM1320 611q-108 4 -180 76t-72 182t72 182t182 72t182 -72t72 -182t-72 -182t-184 -76zM1320 739q-52 4 -88 40t-36 90t36 90t90 36t90 -36t36 -90
t-36 -90t-92 -40zM852 399v852h-684q-72 0 -120 -48t-48 -120v-856q0 -72 48 -120t120 -48h1368q72 0 120 48t48 120v172h-852zM680 655h-512v428h512v-428z" />
    <glyph glyph-name="camera-metering-center" unicode="&#xfca0;" arabic-form="initial" 
d="M168 1339h1368q72 -4 120 -52t48 -120v-1024q0 -72 -48 -120t-120 -52h-1368q-72 4 -120 52t-48 120v1024q0 72 48 120t120 52zM168 1167v-1024h1368v1024h-1368zM852 783q56 0 92 -36t36 -92t-36 -92t-92 -36t-92 36t-36 92t36 92t92 36zM852 1039q140 -4 242 -86
t134 -214h-136q-28 76 -92 124t-148 48t-148 -48t-92 -124h-136q32 132 134 214t242 86zM852 271q-140 4 -242 86t-134 214h136q28 -76 92 -124t148 -48t148 48t92 124h136q-32 -132 -134 -214t-242 -86z" />
    <glyph glyph-name="camera-metering-matrix" unicode="&#xfca1;" arabic-form="initial" 
d="M168 1339h1368q72 -4 120 -52t48 -120v-1024q0 -72 -48 -120t-120 -52h-1368q-72 4 -120 52t-48 120v1024q0 72 48 120t120 52zM168 1167v-1024h1368v1024h-1368zM296 1039h472v-144q-56 -20 -96 -60t-60 -96h-316v300zM1408 1039v-300h-316q-20 56 -60 96t-96 60v144
h472zM1408 271h-472v144q56 20 96 60t60 96h316v-300zM296 271v300h316q20 -56 60 -96t96 -60v-144h-472zM852 783q56 0 92 -36t36 -92t-36 -92t-92 -36t-92 36t-36 92t36 92t92 36z" />
    <glyph glyph-name="camera-metering-partial" unicode="&#xfca2;" arabic-form="initial" 
d="M168 1339h1368q72 -4 120 -52t48 -120v-1024q0 -72 -48 -120t-120 -52h-1368q-72 4 -120 52t-48 120v1024q0 72 48 120t120 52zM168 1167v-1024h1368v1024h-1368zM852 1039q140 -4 242 -86t134 -214h-136q-28 76 -92 124t-148 48t-148 -48t-92 -124h-136q32 132 134 214
t242 86zM852 271q-140 4 -242 86t-134 214h136q28 -76 92 -124t148 -48t148 48t92 124h136q-32 -132 -134 -214t-242 -86z" />
    <glyph glyph-name="camera-metering-spot" unicode="&#xfca3;" arabic-form="initial" 
d="M168 1339h1368q72 -4 120 -52t48 -120v-1024q0 -72 -48 -120t-120 -52h-1368q-72 4 -120 52t-48 120v1024q0 72 48 120t120 52zM168 1167v-1024h1368v1024h-1368zM852 783q56 0 92 -36t36 -92t-36 -92t-92 -36t-92 36t-36 92t36 92t92 36z" />
    <glyph glyph-name="cannabis" unicode="&#xfca4;" arabic-form="initial" 
d="M640 -197v396q-28 -52 -98 -108t-198 -104q0 8 38 86t126 158q-84 -20 -210 -6t-298 90q8 8 138 56t314 32q-104 56 -220 194t-216 390q16 4 214 -92t362 -336q-108 332 -20 630t112 318q148 -348 150 -584t-54 -360q160 236 358 332t214 92q-100 -252 -216 -390
t-220 -194q184 16 314 -32t138 -56q-172 -76 -298 -90t-210 6q88 -80 126 -158t38 -86q-128 48 -198 104t-98 108v-396h-88z" />
    <glyph glyph-name="car-convertible" unicode="&#xfca5;" arabic-form="initial" 
d="M1280 1165l-84 -64l212 -276h-340v128h-128v-128h-768q-72 -4 -120 -52t-52 -120v-256h172q4 -108 76 -180t180 -72t180 72t76 180h512q4 -108 76 -180t180 -72t180 72t76 180h172v256q-4 72 -52 120t-120 52h-172zM428 525q56 0 92 -36t36 -92t-36 -92t-92 -36t-92 36
t-36 92t36 92t92 36zM1452 525q56 0 92 -36t36 -92t-36 -92t-92 -36t-92 36t-36 92t36 92t92 36z" />
    <glyph glyph-name="car-estate" unicode="&#xfca6;" arabic-form="initial" 
d="M172 1165h1108l256 -340h172q72 -4 120 -52t52 -120v-256h-172q-4 -108 -76 -180t-180 -72t-180 72t-76 180h-512q-4 -108 -76 -180t-180 -72t-180 72t-76 180h-172v596q4 76 52 124t120 48zM128 1037v-212h684v212h-684zM940 1037v-212h440l-164 212h-276zM428 525
q-56 0 -92 -36t-36 -92t36 -92t92 -36t92 36t36 92t-36 92t-92 36zM1452 525q-56 0 -92 -36t-36 -92t36 -92t92 -36t92 36t36 92t-36 92t-92 36z" />
    <glyph glyph-name="car-hatchback" unicode="&#xfca7;" arabic-form="initial" 
d="M1280 1165h-852l-428 -512v-256h172q4 -108 76 -180t180 -72t180 72t76 180h512q4 -108 76 -180t180 -72t180 72t76 180h172v256q-4 72 -52 120t-120 52h-172zM472 1037h340v-212h-512zM940 1037h300l164 -212h-464v212zM428 525q56 0 92 -36t36 -92t-36 -92t-92 -36
t-92 36t-36 92t36 92t92 36zM1452 525q56 0 92 -36t36 -92t-36 -92t-92 -36t-92 36t-36 92t36 92t92 36z" />
    <glyph glyph-name="car-pickup" unicode="&#xfca8;" arabic-form="initial" 
d="M1280 1165h-468v-340h-812v-428h172q4 -108 76 -180t180 -72t180 72t76 180h512q4 -108 76 -180t180 -72t180 72t76 180h172v256q-4 72 -52 120t-120 52h-172zM940 1037h300l164 -212h-464v212zM428 525q56 0 92 -36t36 -92t-36 -92t-92 -36t-92 36t-36 92t36 92t92 36z
M1452 525q56 0 92 -36t36 -92t-36 -92t-92 -36t-92 36t-36 92t36 92t92 36z" />
    <glyph glyph-name="car-side" unicode="&#xfca9;" arabic-form="initial" 
d="M1280 1165l256 -340h172q72 -4 120 -52t52 -120v-256h-172q-4 -108 -76 -180t-180 -72t-180 72t-76 180h-512q-4 -108 -76 -180t-180 -72t-180 72t-76 180h-172v256q4 72 52 120t120 52l256 340h852zM812 1037h-320l-160 -212h480v212zM940 1037v-212h440l-164 212h-276z
M428 525q-56 0 -92 -36t-36 -92t36 -92t92 -36t92 36t36 92t-36 92t-92 36zM1452 525q-56 0 -92 -36t-36 -92t36 -92t92 -36t92 36t36 92t-36 92t-92 36z" />
    <glyph glyph-name="car-sports" unicode="&#xfcaa;" arabic-form="initial" 
d="M940 1061h-428l-256 -216h-84q-72 0 -120 -48t-52 -120v-256h188q28 -80 92 -126t148 -46t148 46t92 126h544q28 -80 92 -126t148 -46t148 46t92 126h188v84q-4 68 -56 104t-116 68zM364 761l192 172h340l344 -172h-876zM428 633q56 0 92 -36t36 -92t-36 -92t-92 -36
t-92 36t-36 92t36 92t92 36zM1452 633q56 0 92 -36t36 -92t-36 -92t-92 -36t-92 36t-36 92t36 92t92 36z" />
    <glyph glyph-name="caravan" unicode="&#xfcab;" arabic-form="initial" 
d="M168 1337q-72 -4 -120 -52t-48 -120v-940h168q4 -108 76 -180t182 -72t182 72t72 180h1024v172h-256v768q0 72 -48 120t-120 52h-1112zM256 909h340v-256h-340v256zM852 909h340v-512h-340v512zM424 313q36 -4 60 -28t24 -60t-24 -60t-60 -24t-60 24t-24 60t24 60t60 28z
" />
    <glyph glyph-name="cctv" unicode="&#xfcac;" arabic-form="initial" 
d="M1376 1299q-48 4 -96 -24l-740 -428q-60 -36 -78 -102t18 -130l128 -220q36 -64 102 -82t130 18l152 88q36 -60 100 -88v-152q0 -72 48 -118t124 -50h440v168h-440v152q56 28 90 80t36 112t-30 108l216 128q64 36 82 102t-18 130l-128 220q-48 80 -136 88zM360 595
l-360 -60l296 -516l232 280z" />
    <glyph glyph-name="chart-donut" unicode="&#xfcad;" arabic-form="initial" 
d="M936 1505v-256q224 -36 366 -198t146 -394q0 -116 -40 -216l224 -132q72 160 72 348q-8 340 -222 574t-546 274zM852 61q-256 4 -424 172t-172 424q4 232 146 394t366 198v256q-332 -40 -546 -274t-222 -574q8 -364 248 -604t604 -248q212 0 390 94t298 254l-224 132
q-80 -108 -200 -166t-264 -58z" />
    <glyph glyph-name="chart-donut-variant" unicode="&#xfcae;" arabic-form="initial" 
d="M936 1505q332 -40 546 -274t222 -574q0 -188 -72 -348l-224 132q40 100 40 216q-4 232 -146 394t-366 198v256zM852 61q144 0 264 58t200 166l224 -132q-120 -160 -298 -254t-390 -94q-364 8 -604 250t-248 602q8 340 222 574t546 274v-256q-224 -36 -366 -198t-146 -394
q4 -256 172 -424t424 -172zM852 1169q216 -4 362 -150t150 -362q-4 -196 -122 -334t-306 -170v264q76 28 124 92t48 148q-4 108 -76 180t-180 76l-48 -4l-132 228q84 32 180 32zM340 657q0 120 50 220t138 176l128 -228q-60 -72 -60 -168q0 -84 48 -148t124 -92v-264
q-188 32 -306 170t-122 334z" />
    <glyph glyph-name="chart-line-variant" unicode="&#xfcaf;" arabic-form="initial" 
d="M128 99l512 512l340 -340l724 816l-120 124l-604 -684l-340 340l-640 -640z" />
    <glyph glyph-name="chili-hot" unicode="&#xfcb0;" arabic-form="initial" 
d="M1176 902l100 64q40 -20 66 -60t26 -88v-1004q-44 -16 -342 170t-342 746v88q0 44 22 84t62 60l124 -60l132 84zM856 1498q100 0 170 -64t86 -160q64 -20 112 -64t76 -104l-124 -76l-152 84l-132 -84l-144 72q56 124 188 172q-24 52 -80 56v168zM512 818
q16 -496 182 -698t330 -306q-40 -16 -340 170t-340 746v88q0 44 22 84t58 60l116 -56q-28 -40 -28 -88zM552 1030l-144 72q56 124 184 172q-20 52 -80 56v168q104 0 172 -64v-104q60 -4 80 -56q-64 -20 -116 -76t-96 -168zM172 818q12 -496 180 -698t332 -306
q-44 -16 -342 170t-342 746v88q0 44 24 84t60 60l112 -56q-24 -40 -24 -88zM208 1030l-140 72q52 124 184 172q-20 52 -80 56v168q100 0 172 -64v-104q56 -4 80 -56q-64 -20 -116 -76t-100 -168z" />
    <glyph glyph-name="chili-medium" unicode="&#xfcb1;" arabic-form="initial" 
d="M878 902l104 64q40 -20 64 -60t24 -88v-1004q-44 -16 -342 170t-342 746v88q0 44 24 84t60 60l124 -60l136 84zM558 1498q100 0 170 -64t86 -160q64 -20 114 -64t74 -104l-124 -76l-148 84l-136 -84l-140 72q52 124 184 172q-20 52 -80 56v168zM218 818q12 -496 178 -698
t334 -306q-44 -16 -342 170t-342 746v88q0 44 22 84t62 60l112 -56q-24 -40 -24 -88zM254 1030l-144 72q56 124 188 172q-24 52 -80 56v168q100 0 168 -64v-104q60 -4 80 -56q-60 -20 -114 -76t-98 -168z" />
    <glyph glyph-name="chili-mild" unicode="&#xfcb2;" arabic-form="initial" 
d="M706 902l104 64q40 -20 64 -60t24 -88v-1004q-40 -16 -340 170t-340 746v88q0 44 22 84t58 60l128 -60l132 84zM386 1498q100 0 172 -64t84 -160q64 -20 114 -64t78 -104l-128 -76l-148 84l-132 -84l-144 72q56 124 184 172q-20 52 -80 56v168z" />
    <glyph glyph-name="cloud-braces" unicode="&#xfcb3;" arabic-form="initial" 
d="M512 -29q-216 8 -362 152t-150 360q4 204 132 344t324 164q84 156 232 250t336 98q236 -4 408 -146t220 -366q168 -16 280 -136t116 -292q-4 -180 -124 -302t-304 -126h-1108zM1580 655h-44q-36 0 -60 24t-24 60v88q-4 72 -52 120t-120 48h-128v-168h128v-88
q0 -72 50 -120t122 -48q-72 -4 -122 -52t-50 -120v-84h-128v-172h128q72 0 120 50t52 122v84q0 36 24 60t60 24h44v172zM468 655v-172h44q36 0 60 -24t24 -60v-84q4 -72 52 -122t120 -50h128v172h-128v84q0 72 -50 120t-122 52q72 0 122 48t50 120v88h128v168h-128
q-72 0 -120 -48t-52 -120v-88q0 -36 -24 -60t-60 -24h-44z" />
    <glyph glyph-name="cloud-tags" unicode="&#xfcb4;" arabic-form="initial" 
d="M512 -29q-216 8 -362 152t-150 360q4 204 132 344t324 164q84 156 232 250t336 98q236 -4 408 -146t220 -366q168 -16 280 -136t116 -292q-4 -180 -124 -302t-304 -126h-1108zM776 963l-392 -392l392 -392l120 120l-272 272l272 272zM1272 963l-120 -120l272 -272
l-272 -272l120 -120l392 392z" />
    <glyph glyph-name="console-line" unicode="&#xfcb5;" arabic-form="initial" 
d="M896 143v256h684v-256h-684zM512 655l-512 512h360l424 -424q36 -40 36 -92t-36 -88l-420 -420h-364z" />
    <glyph glyph-name="corn" unicode="&#xfcb6;" arabic-form="initial" 
d="M768 655h-188q104 -64 188 -144v144zM424 739q24 336 140 550t288 218q172 -4 290 -222t138 -554q192 92 424 96q-324 -208 -410 -594t-442 -430q-340 44 -428 430t-424 594q232 -4 424 -88zM768 739v172h-236l-20 -172h256zM768 995v172h-168q-32 -76 -52 -172h220z
M768 1251v148q-72 -44 -128 -148h128zM852 1423v-172h84v-84h-84v-172h172v-84h-172v-172h256v-84h-256v-172h172v-84h-152q76 -92 122 -186t54 -174q68 108 106 272t38 364q-8 312 -104 526t-236 222z" />
    <glyph glyph-name="currency-chf" unicode="&#xfcb7;" arabic-form="initial" 
d="M172 1423h940v-172h-768v-512h684v-168h-684v-256h172v-172h-172v-256h-172v256h-168v172h168v1108z" />
    <glyph glyph-name="currency-cny" unicode="&#xfcb8;" arabic-form="initial" 
d="M474 -113v428h-428v168h428v28l-72 144h-356v172h272l-292 596h192l340 -700l340 700h192l-292 -596h272v-172h-356l-72 -144v-28h428v-168h-428v-428h-168z" />
    <glyph glyph-name="currency-eth" unicode="&#xfcb9;" arabic-form="initial" 
d="M558 1531l-532 -896l532 -320l532 320zM26 527l532 -748l532 748l-532 -320z" />
    <glyph glyph-name="currency-jpy" unicode="&#xfcba;" arabic-form="initial" 
d="M474 -113v428h-428v168h428v28l-72 144h-356v172h272l-292 596h192l340 -700l340 700h192l-292 -596h272v-172h-356l-72 -144v-28h428v-168h-428v-428h-168z" />
    <glyph glyph-name="currency-krw" unicode="&#xfcbb;" arabic-form="initial" 
d="M0 1423h168l116 -512h340l116 512h224l116 -512h340l116 512h168l-112 -512h112v-172h-152l-36 -168h188v-172h-228l-112 -512h-228l-112 512h-344l-112 -512h-228l-112 512h-228v172h188l-36 168h-152v172h112zM948 739h-192l-36 -168h264zM452 143l60 256h-116z
M588 739h-268l40 -168h188zM1252 143l56 256h-116zM1384 739h-268l40 -168h188zM852 1167l-56 -256h112z" />
    <glyph glyph-name="currency-sign" unicode="&#xfcbc;" arabic-form="initial" 
d="M1712 653q0 136 -44 266t-124 242l168 168l-176 184l-168 -172q-236 164 -508 164t-508 -168l-168 168l-184 -176l172 -168q-164 -236 -164 -508t168 -508l-168 -168l180 -180l172 168q232 -164 506 -164t506 164l172 -168l176 180l-168 168q80 112 120 242t40 266z
M860 57q-256 4 -424 172t-172 424q4 256 172 424t424 172q256 -4 424 -172t172 -424q-4 -256 -172 -424t-424 -172z" />
    <glyph glyph-name="currency-twd" unicode="&#xfcbd;" arabic-form="initial" 
d="M0 739h1536v-168h-512v-512h512v-172h-512q-72 0 -120 50t-52 122v512h-224l-396 -684l-148 84l348 600h-432v168zM172 1423h1192v-172h-1192v172z" />
    <glyph glyph-name="desktop-classic" unicode="&#xfcbe;" arabic-form="initial" 
d="M340 1507q-72 0 -120 -48t-52 -120v-684q4 -72 52 -120t120 -52h1024q72 4 120 52t52 120v684q-4 72 -52 120t-120 48h-1024zM340 1339h1024v-684h-1024v684zM168 399q-72 0 -120 -48t-48 -124v-256q0 -72 48 -120t120 -48h1368q72 0 120 48t48 120v256q0 76 -48 124
t-120 48h-1368zM512 227h1024v-256h-1024v256zM596 163v-128h340v128h-340zM1108 163v-128h340v128h-340z" />
    <glyph glyph-name="dip-switch" unicode="&#xfcbf;" arabic-form="initial" 
d="M84 1339h340q36 -4 60 -28t28 -60v-1192q-4 -36 -28 -60t-60 -28h-340q-36 4 -60 28t-24 60v1192q0 36 24 60t60 28zM680 1339h344q36 -4 60 -28t24 -60v-1192q0 -36 -24 -60t-60 -28h-344q-36 4 -60 28t-24 60v1192q0 36 24 60t60 28zM1280 1339h340q36 -4 60 -28
t24 -60v-1192q0 -36 -24 -60t-60 -28h-340q-36 4 -60 28t-28 60v1192q4 36 28 60t60 28zM168 143h172v428h-172v-428zM768 739h168v428h-168v-428zM1364 143h172v428h-172v-428z" />
    <glyph glyph-name="donkey" unicode="&#xfcc0;" arabic-form="initial" 
d="M1613 815l-4 8l-280 280v84q-4 40 -44 44q-16 0 -32 -16l-312 -284h-552q-92 -4 -144 -80l-228 -228q-20 -28 -16 -62t36 -58q48 -32 96 0l88 80v-504h256v340h424v-340h256v440q4 72 52 120l120 120l172 -84q20 -12 40 -12q40 4 66 30t26 62t-20 60z" />
    <glyph glyph-name="dots-horizontal-circle" unicode="&#xfcc1;" arabic-form="initial" 
d="M852 1507q364 -8 604 -248t248 -604q-8 -364 -248 -604t-604 -248q-364 8 -604 248t-248 604q8 364 248 604t604 248zM852 783q-56 0 -92 -36t-36 -92t36 -92t92 -36t92 36t36 92t-36 92t-92 36zM384 783q-56 0 -92 -36t-36 -92t36 -92t90 -36t90 36t36 92t-36 92t-88 36
zM1320 783q-52 0 -88 -36t-36 -92t36 -92t90 -36t90 36t36 92t-36 92t-92 36z" />
    <glyph glyph-name="dots-vertical-circle" unicode="&#xfcc2;" arabic-form="initial" 
d="M0 655q8 364 248 604t604 248q364 -8 604 -248t248 -604q-8 -364 -248 -604t-604 -248q-364 8 -604 248t-248 604zM724 655q0 -56 36 -92t92 -36t92 36t36 92t-36 92t-92 36t-92 -36t-36 -92zM724 187q0 -56 36 -92t92 -36t92 36t36 90t-36 90t-92 36t-92 -36t-36 -88z
M724 1123q0 -52 36 -88t92 -36t92 36t36 90t-36 90t-92 36t-92 -36t-36 -92z" />
    <glyph glyph-name="ear-hearing" unicode="&#xfcc3;" arabic-form="initial" 
d="M1196 -63q-40 0 -68 16q-44 20 -78 64t-68 140t-88 152t-114 100q-52 40 -102 88t-98 128q-68 128 -68 252q4 184 124 304t304 120t302 -120t122 -304h172q-4 256 -172 424t-424 172q-260 -4 -426 -172t-174 -424q4 -168 92 -332q60 -104 124 -166t118 -102t90 -78
t56 -98q40 -116 94 -188t142 -116q64 -28 140 -28q144 4 240 100t100 240h-172q0 -72 -48 -120t-120 -52zM396 1421l-120 120q-128 -128 -202 -298t-74 -366t74 -366t202 -298l120 120q-108 104 -166 244t-58 300t60 300t164 244zM724 877q4 -92 64 -152t150 -60t150 60
t60 152t-60 152t-150 60t-150 -60t-64 -152z" />
    <glyph glyph-name="elephant" unicode="&#xfcc4;" arabic-form="initial" 
d="M1492 355q-4 -36 -42 -36t-42 36v600q-8 124 -110 210t-234 86h-724q-144 -4 -240 -100t-100 -240v-852h340v340h428v-340h340v384q4 36 42 36t42 -36v-128q4 -112 76 -184t182 -72t182 72t72 184v168h-212v-128z" />
    <glyph glyph-name="eventbrite" unicode="&#xfcc5;" arabic-form="initial" 
d="M1704 1148q0 88 -50 156t-130 100q-132 24 -656 62t-624 42q-112 -12 -184 -100q-60 -76 -60 -172v-1152q0 -68 28 -128t84 -100q72 -56 164 -54t568 42l592 48q108 8 188 82t80 182v992zM1332 1040q-8 -16 -16 -36q-20 -52 -76 -48h-240q-152 0 -208 4q-20 0 -24 -20
q-16 -88 -36 -180h328h28q36 -8 50 -24t10 -54t-26 -74t-66 -36h-348q-16 4 -20 -16l-40 -192v-12h456q52 4 72 -48q12 -44 -8 -84t-60 -64q-20 -4 -44 -8l-560 -8q-44 -4 -80 20q-40 36 -32 88q16 76 80 386t88 422q4 52 44 84t92 28l288 -4l272 -8q100 -4 76 -116z" />
    <glyph glyph-name="food-croissant" unicode="&#xfcc6;" arabic-form="initial" 
d="M1704 101l-256 168l256 172v-340zM1108 441l340 512l256 -340l-340 -256zM256 269l-256 -168v340zM596 441l-256 -84l-340 256l256 340zM1024 1209l340 -172l-428 -596h-168l-428 596l340 172h344z" />
    <glyph glyph-name="forklift" unicode="&#xfcc7;" arabic-form="initial" 
d="M340 1337v-600h-172q-72 0 -120 -48t-48 -120v-344q0 -108 72 -180t182 -72t182 72t76 180h168q4 -108 76 -180t182 -72t182 72t72 180v344l-340 768h-512zM1280 1249v-1192h424v128h-296v1064h-128zM468 1209h316l280 -640h-596v640zM256 353q52 0 88 -36t36 -90
t-36 -90t-90 -36t-90 36t-36 90t36 90t92 36zM936 353q56 0 92 -36t36 -90t-36 -90t-90 -36t-90 36t-36 90t36 90t88 36z" />
    <glyph glyph-name="fuel" unicode="&#xfcc8;" arabic-form="initial" 
d="M0 1465h256q36 0 60 -24l180 -176l68 64q52 52 120 52h512q64 0 120 -52l84 -84q52 -56 52 -120v-1108q-4 -72 -52 -122t-120 -50h-852q-72 0 -122 50t-50 122v936q0 68 52 120l64 68l-152 156h-220v168zM684 1209v-168h512v168h-512zM716 697l-168 172h-120v-120
l168 -172v-272l-168 -168v-120h120l168 168h272l172 -168h120v120l-172 168v272l172 172v120h-120l-172 -172h-272zM768 529h172v-172h-172v172z" />
    <glyph glyph-name="gesture" unicode="&#xfcc9;" arabic-form="initial" 
d="M148 1091q44 48 84 80t60 24q32 -16 16 -56t-42 -76t-128 -204t-114 -332q0 -168 116 -256q48 -36 106 -46t118 10q68 20 130 82t130 154q80 100 174 192t174 100q100 -4 124 -52t24 -100q-236 -52 -346 -196t-108 -260t78 -190t192 -78t242 110t162 414h208v212h-212
q-4 116 -80 232t-264 124q-144 -4 -256 -88t-164 -152q-40 -52 -108 -132l-88 -100q-16 -20 -42 -46t-54 -26t-40 46t12 120t74 162t82 136q52 72 82 134t30 146q-8 136 -80 192t-136 52q-84 -4 -148 -44t-84 -64q-44 -44 -72 -80zM940 95q-20 0 -40 16t-24 48q0 44 56 118
t188 118q-20 -172 -76 -236t-104 -64z" />
    <glyph glyph-name="google-analytics" unicode="&#xfcca;" arabic-form="initial" 
d="M1364 1423q72 0 122 -50t50 -122v-1192q0 -72 -50 -122t-122 -50h-340v1364q0 72 50 122t122 50h168zM172 -113q-72 0 -122 50t-50 122v168q0 72 50 122t122 50h340v340q0 72 50 122t122 50h296v-1024h-808z" />
    <glyph glyph-name="google-assistant" unicode="&#xfccb;" arabic-form="initial" 
d="M512 1465q216 -4 360 -150t152 -362q-8 -216 -152 -362t-360 -150q-220 4 -364 150t-148 362q4 216 148 362t364 150zM1620 1037q36 0 60 -24t24 -60t-24 -60t-60 -24t-60 24t-24 60t24 60t60 24zM1320 869q92 -4 152 -64t60 -150t-60 -150t-150 -60t-150 60t-60 150
t60 150t148 64zM1320 357q112 -4 184 -76t72 -182t-72 -182t-182 -72t-182 72t-72 182t72 182t180 76z" />
    <glyph glyph-name="headphones-off" unicode="&#xfccc;" arabic-form="initial" 
d="M768 1573q-328 -8 -544 -226t-224 -542v-600q0 -80 44 -140l468 468v100h-340v172q4 252 172 420t424 176q128 0 238 -48t194 -136l120 124q-108 108 -248 168t-304 64zM1556 1357l-1512 -1512l108 -108l212 212h148v148l512 512v-660h256q108 4 180 76t76 180v600
q0 140 -48 268l176 176zM1352 937q12 -64 12 -132v-172h-316z" />
    <glyph glyph-name="high-definition" unicode="&#xfccd;" arabic-form="initial" 
d="M0 1083h168v-344h172v344h172v-856h-172v344h-172v-344h-168v856zM680 1083h256q112 -4 184 -76t72 -180v-344q0 -108 -72 -180t-184 -76h-256v856zM936 399q36 0 60 24t28 60v344q-4 36 -28 60t-60 24h-84v-512h84z" />
    <glyph glyph-name="home-assistant" unicode="&#xfcce;" arabic-form="initial" 
d="M1736 543h-152v-684h-600v284l240 240l60 -12q76 0 126 52t50 128t-50 126t-126 50t-126 -50t-54 -126l8 -60l-128 -132v468q44 24 70 66t26 94q-4 76 -54 126t-126 50t-126 -50t-54 -126q0 -52 26 -94t70 -66v-468l-128 132l8 60q-4 76 -54 126t-126 50t-126 -50
t-50 -126t50 -128t126 -52l60 12l240 -240v-284h-600v684h-148q-28 0 -48 2t-20 16t20 38t52 52l744 744q20 24 42 40t42 16t42 -16t42 -40l344 -340v84h168v-256l240 -236l48 -52q20 -24 20 -36t-20 -14t-48 -2zM516 627q32 0 54 -22t22 -54t-22 -54t-54 -22t-54 22t-22 54
t22 54t54 22zM1284 627q32 0 54 -22t22 -54t-22 -54t-54 -22t-54 22t-22 54t22 54t54 22zM900 1063q32 0 54 -22t22 -56t-22 -54t-54 -20t-54 20t-22 54t22 56t54 22z" />
    <glyph glyph-name="home-automation" unicode="&#xfccf;" arabic-form="initial" 
d="M852 1381l-852 -768h256v-684h1192v684h256zM852 913q152 -4 282 -58t230 -150l-104 -104q-76 80 -182 124t-226 44t-226 -44t-182 -124l-104 104q100 96 230 150t282 58zM852 629q92 -4 170 -36t138 -92l-104 -100q-80 80 -204 80t-204 -80l-104 100q60 60 138 92
t170 36zM852 341q60 0 102 -40t42 -100t-42 -100t-102 -40t-102 40t-42 100t42 100t102 40z" />
    <glyph glyph-name="home-circle" unicode="&#xfcd0;" arabic-form="initial" 
d="M1460 1259q-120 124 -276 188t-328 64t-328 -64t-278 -186t-186 -278t-64 -328t64 -328t186 -278t278 -186t328 -64t328 64t278 186t186 278t64 328t-64 328t-188 276zM1284 655v-512h-300v428h-256v-428h-300v512h-168l596 596l640 -596h-212z" />
    <glyph glyph-name="language-go" unicode="&#xfcd1;" arabic-form="initial" 
d="M800 1367q32 0 54 -20t22 -52t-22 -54t-54 -22t-52 22t-20 54t20 52t52 20zM376 1347q32 0 52 -22t20 -54t-20 -52t-52 -20t-54 20t-22 52t22 54t54 22zM1176 1495q52 0 88 -36t36 -88t-28 -86t-76 -46l-8 -12q60 -188 58 -358t-6 -182q52 -32 96 -64t32 -64
q-24 -28 -72 -16t-52 16q16 -436 -42 -556t-70 -108q8 -4 38 -58t6 -90q-40 -24 -92 16t-60 48q-8 -4 -134 -42t-250 -42q-116 4 -204 42t-92 42q-52 -48 -102 -70t-70 6q-8 36 26 90t38 58q-132 100 -126 374t18 310q-20 -20 -64 -42t-64 22q-4 48 58 76t70 28
q-24 232 -18 366t22 194q-44 8 -70 42t-26 86t36 88t88 36q32 0 60 -12q72 52 190 84t262 36q136 -4 248 -32t188 -76q28 20 68 20zM876 1475q-72 0 -120 -50t-48 -122t48 -120t120 -48t120 48t48 120t-48 122t-120 50zM448 1455q-72 -4 -120 -52t-48 -120t48 -120t120 -48
t122 48t50 120t-50 120t-122 52zM672 1047q-40 0 -66 -12t-26 -32t40 -32v-52q0 -20 20 -20h64q20 0 24 20v52q40 12 40 32t-26 32t-70 12z" />
    <glyph glyph-name="language-r" unicode="&#xfcd2;" arabic-form="initial" 
d="M852 1311q-360 -4 -602 -166t-250 -406q4 -212 200 -366t500 -194v-180h292v180q108 12 204 40l120 -220h328l-200 332q124 80 192 184t68 224q-8 244 -250 406t-602 166zM984 1091q272 0 444 -96t176 -296q0 -112 -54 -188t-150 -124q-12 4 -20 12q-24 12 -52 20l-28 8
q16 -4 126 42t126 230q-16 184 -132 226t-132 34h-588v-612q-164 48 -264 140t-100 212q4 164 188 276t460 116zM996 751h176q4 0 40 -10t40 -70q-4 -60 -40 -74t-40 -10h-176v164zM992 375h80q20 0 36 -16t32 -40q-68 -12 -148 -12v68z" />
    <glyph glyph-name="lava-lamp" unicode="&#xfcd3;" arabic-form="initial" 
d="M386 1423l-168 -1108h680l-168 1108h-344zM514 1187q28 0 46 -18t18 -44t-18 -44t-44 -18t-44 18t-18 44t18 44t42 18zM602 955q36 -4 60 -28t24 -60t-24 -60t-60 -24t-60 24t-24 60t24 60t60 28zM514 655q56 0 92 -36t36 -92t-36 -92t-90 -36t-90 36t-36 92t36 92t88 36
zM218 227l168 -168l-168 -172h680l-168 172l168 168h-680z" />
    <glyph glyph-name="led-strip" unicode="&#xfcd4;" arabic-form="initial" 
d="M0 959l1024 -1028l64 60l120 -120l120 120l-120 120l120 120l120 -120l120 120l-120 120l60 64l-1028 1024zM240 959l240 240l788 -784l-244 -244zM360 959l120 -124l124 124l-124 120zM544 775l120 -120l120 120l-120 120zM724 595l120 -120l120 120l-120 120zM904 415
l120 -120l120 120l-120 120z" />
    <glyph glyph-name="locker" unicode="&#xfcd5;" arabic-form="initial" 
d="M218 1507h680q72 0 122 -48t50 -120v-1368q0 -72 -50 -120t-122 -48h-680q-72 0 -122 48t-50 120v1368q0 72 50 120t122 48zM218 1339v-1368h680v1368h-680zM386 571h172v-344h-172v344zM386 1167h344v-128h-344v128zM386 911h344v-128h-344v128z" />
    <glyph glyph-name="locker-multiple" unicode="&#xfcd6;" arabic-form="initial" 
d="M172 1507h1536q72 0 120 -48t52 -120v-1368q-4 -72 -52 -120t-120 -48h-1536q-72 0 -120 48t-52 120v1368q4 72 52 120t120 48zM1024 1339v-1368h684v1368h-684zM172 1339v-1368h684v1368h-684zM344 571h168v-344h-168v344zM344 1167h340v-128h-340v128zM344 911h340
v-128h-340v128zM1196 571h172v-344h-172v344zM1196 1167h340v-128h-340v128zM1196 911h340v-128h-340v128z" />
    <glyph glyph-name="map-marker-outline" unicode="&#xfcd7;" arabic-form="initial" 
d="M596 1123q92 0 152 -60t60 -152t-60 -152t-152 -60t-152 60t-60 152t60 152t152 60zM596 1507q256 -4 424 -172t172 -424q-36 -364 -298 -722t-298 -386q-36 28 -298 386t-298 722q4 256 172 424t424 172zM596 1339q-180 -4 -302 -126t-126 -302q-12 -56 54 -232
t374 -596q308 420 374 596t54 232q-4 180 -126 302t-302 126z" />
    <glyph glyph-name="metronome" unicode="&#xfcd8;" arabic-form="initial" 
d="M684 1519l-292 -80l-384 -1440q-8 -16 -8 -40q4 -72 52 -120t120 -48h1024q72 0 120 48t52 120q0 24 -8 40l-116 436l-132 -132l16 -88h-324l244 244l-120 120l-364 -364h-324l300 1112h288l128 -464l136 140l-116 436zM620 1239v-832l128 128v704h-128zM1348 1003
l-240 -244l-60 60l-120 -120l240 -240l120 120l-60 60l240 244z" />
    <glyph glyph-name="metronome-tick" unicode="&#xfcd9;" arabic-form="initial" 
d="M684 1519l-292 -80l-388 -1452l-4 -28q4 -72 52 -120t120 -48h1024q72 0 120 48t52 120l-4 28l-388 1452zM540 1327h288l300 -1112h-360v428h-168v-428h-360zM600 1239v-340h-88v-172h344v172h-88v340h-168z" />
    <glyph glyph-name="micro-sd" unicode="&#xfcda;" arabic-form="initial" 
d="M344 1507q-72 0 -122 -48t-50 -120v-600l-172 -168v-600q4 -72 52 -120t120 -48h1024q72 0 120 48t52 120v1368q-4 72 -52 120t-120 48h-852zM428 1339h172v-344h-172v344zM684 1339h172v-344h-172v344zM940 1339h172v-344h-172v344z" />
    <glyph glyph-name="mixer" unicode="&#xfcdb;" arabic-form="initial" 
d="M312 1342l488 -660q20 -24 0 -52l-504 -676q-48 -52 -118 -54t-122 46t-56 114t36 126l352 472l-352 468q-40 56 -36 124t56 116l12 8q60 44 130 34t114 -66zM1392 1342q44 56 114 66t130 -34l12 -8q52 -48 56 -116t-36 -124l-352 -468l352 -472q40 -60 36 -126t-56 -114
t-122 -46t-118 54l-504 676q-20 28 0 52z" />
    <glyph glyph-name="movie-roll" unicode="&#xfcdc;" arabic-form="initial" 
d="M852 1507q364 -8 604 -248t248 -604q-8 -364 -248 -604t-604 -248q-364 8 -604 248t-248 604q8 364 248 604t604 248zM852 1339q-92 -4 -152 -64t-60 -150t60 -150t152 -60t152 60t60 150t-60 150t-152 64zM204 867q-28 -88 12 -164t126 -104t162 10t104 126t-12 162
t-126 102t-162 -10t-104 -122zM1500 867q-28 84 -104 122t-162 12t-126 -102t-12 -162t104 -126t162 -12t126 104t12 164zM452 103q76 -52 160 -38t136 88t40 158t-86 136t-158 40t-138 -86t-40 -158t86 -140zM1252 103q72 56 86 140t-40 158t-138 86t-156 -40t-86 -136
t38 -158t138 -88t158 38zM852 783q-56 0 -92 -36t-36 -92t36 -92t92 -36t92 36t36 92t-36 92t-92 36z" />
    <glyph glyph-name="mushroom" unicode="&#xfcdd;" arabic-form="initial" 
d="M852 1507q364 -8 604 -248t248 -604q0 -72 -48 -120t-120 -52h-1368q-72 4 -120 52t-48 120q8 364 248 604t604 248zM852 995q72 4 120 52t48 120t-48 120t-120 48t-120 -48t-48 -120t48 -120t120 -52zM1280 655q72 0 120 50t48 122t-48 120t-120 48t-122 -48t-50 -120
t50 -122t122 -50zM424 655q72 0 122 50t50 122t-50 120t-122 48t-120 -48t-48 -120t48 -122t120 -50zM1108 399l108 -380l8 -48q-4 -72 -52 -120t-120 -48h-400q-72 0 -120 48t-52 120l8 48l108 380h512z" />
    <glyph glyph-name="mushroom-outline" unicode="&#xfcde;" arabic-form="initial" 
d="M168 655h1368q-4 244 -146 422t-366 238q-12 -64 -60 -106t-112 -42t-112 42t-60 106q-224 -60 -366 -238t-146 -422zM852 1507q364 -8 604 -248t248 -604q0 -72 -48 -120t-120 -52h-1368q-72 4 -120 52t-48 120q8 364 248 604t604 248zM980 227h-256l-72 -256h400z
M1108 399l84 -300l24 -80l8 -48q-4 -72 -52 -120t-120 -48h-400l-40 4q-72 20 -106 78t-18 130l108 384h512zM1192 1083q72 -4 122 -52t50 -120t-50 -120t-122 -48t-120 48t-48 120t48 120t120 52zM512 1083q72 -4 120 -52t48 -120t-48 -120t-120 -48t-122 48t-50 120
t50 120t122 52z" />
    <glyph glyph-name="nintendo-switch" unicode="&#xfcdf;" arabic-form="medial" 
d="M684 -61h-248q-124 4 -210 90t-90 210v832q4 124 90 210t210 90h248v-1432zM436 1507q-188 -4 -310 -126t-126 -310v-832q4 -188 126 -310t310 -126h388v1704h-388zM264 995q0 -68 46 -112t114 -44t114 44t46 112t-46 114t-114 46t-114 -46t-46 -114zM1332 739
q72 0 120 -48t48 -122t-48 -122t-122 -48t-122 48t-48 122t48 122t124 48zM1268 -197q188 4 310 126t126 310v832q-4 188 -126 310t-310 126h-276v-1704h276z" />
    <glyph glyph-name="null" unicode="&#xfce0;" arabic-form="medial" 
d="M700 1507q120 0 226 -46t194 -130l144 184l136 -104l-172 -216q72 -112 114 -248t42 -292q-8 -360 -200 -602t-484 -250q-120 0 -226 46t-194 130l-144 -184l-136 104l172 216q-72 112 -114 248t-42 292q8 360 200 602t484 250zM700 1339q-216 -8 -362 -200t-150 -484
q4 -224 96 -396l728 936q-132 140 -312 144zM700 -29q216 8 362 200t150 484q-4 224 -96 396l-728 -936q132 -140 312 -144z" />
    <glyph glyph-name="passport" unicode="&#xfce1;" arabic-form="medial" 
d="M172 1507q-72 0 -120 -48t-52 -120v-1368q4 -72 52 -120t120 -48h1024q72 0 120 48t52 120v1368q-4 72 -52 120t-120 48h-1024zM684 1251q180 -4 302 -124t126 -300q-4 -184 -126 -304t-302 -124q-180 4 -302 124t-126 304q4 180 126 300t302 124zM684 1167
q-52 -80 -80 -172h160q-24 92 -80 172zM572 1147q-120 -40 -184 -152h124q24 80 60 152zM796 1147q36 -72 60 -152h124q-64 108 -184 152zM352 911q-8 -40 -8 -84t8 -88h144q-4 44 -4 86t4 86h-144zM584 911q-8 -40 -8 -84t8 -88h200q4 44 4 88t-4 84h-200zM872 911
q4 -44 4 -86t-4 -86h144q8 44 8 88t-8 84h-144zM388 655q64 -108 184 -152q-36 72 -60 152h-124zM604 655q28 -92 80 -172q56 80 80 172h-160zM856 655q-24 -80 -60 -152q120 44 184 152h-124zM256 227h856v-168h-856v168z" />
    <glyph glyph-name="periodic-table-co2" unicode="&#xfce2;" arabic-form="medial" 
d="M172 1125q-72 -4 -122 -52t-50 -120v-512q0 -72 50 -120t122 -52h256v172h-256v512h256v172h-256zM684 1125q-72 -4 -122 -52t-50 -120v-512q0 -72 50 -120t122 -52h168q72 4 122 52t50 120v512q0 72 -50 120t-122 52h-168zM684 953h168v-512h-168v512zM1108 825v-128
h256v-128h-128q-52 0 -88 -36t-40 -92v-256h384v128h-256v128h128q56 0 92 36t36 92v128q0 56 -36 92t-92 36h-256z" />
    <glyph glyph-name="pipe" unicode="&#xfce3;" arabic-form="medial" 
d="M1704 483h-168v-168h-512v256h168v168h-168v428q-4 72 -52 120t-120 52h-684v168h-168v-680h168v168h512v-256h-168v-168h168v-428q4 -72 52 -120t120 -52h684v-168h168v680z" />
    <glyph glyph-name="pipe-disconnected" unicode="&#xfce4;" arabic-form="medial" 
d="M1192 911v-172h-680v172h168v84h-512v-168h-168v680h168v-168h684q72 -4 120 -52t52 -120v-256h168zM680 399v-256q4 -72 52 -120t120 -52h684v-168h168v680h-168v-168h-512v84h168v172h-680v-172h168z" />
    <glyph glyph-name="power-socket-eu" unicode="&#xfce5;" arabic-form="medial" 
d="M468 783q56 0 92 -36t36 -92t-36 -92t-92 -36t-92 36t-36 92t36 92t92 36zM1236 783q56 0 92 -36t36 -92t-36 -92t-92 -36t-92 36t-36 92t36 92t92 36zM188 1507h1328q80 0 134 -54t54 -134v-1328q0 -80 -54 -134t-134 -54h-1328q-80 0 -134 54t-54 134v1328q0 80 54 134
t134 54zM852 1339q-292 -8 -484 -200t-200 -484q8 -292 200 -484t484 -200q292 8 484 200t200 484q-8 292 -200 484t-484 200z" />
    <glyph glyph-name="power-socket-uk" unicode="&#xfce6;" arabic-form="medial" 
d="M1064 507h300v-192h-300v192zM340 507h300v-192h-300v192zM768 1167h168v-340h-168v340zM188 1507q-80 0 -134 -54t-54 -134v-1328q0 -80 54 -134t134 -54h1328q80 0 134 54t54 134v1328q0 80 -54 134t-134 54h-1328zM852 1339q292 -8 484 -200t200 -484
q-8 -292 -200 -484t-484 -200q-292 8 -484 200t-200 484q8 292 200 484t484 200z" />
    <glyph glyph-name="power-socket-us" unicode="&#xfce7;" arabic-form="medial" 
d="M512 1083h168v-428h-168v428zM188 1507h1328q80 0 134 -54t54 -134v-1328q0 -80 -54 -134t-134 -54h-1328q-80 0 -134 54t-54 134v1328q0 80 54 134t134 54zM852 1339q-292 -8 -484 -200t-200 -484q8 -292 200 -484t484 -200q292 8 484 200t200 484q-8 292 -200 484
t-484 200zM1024 1039h168v-340h-168v340zM724 291q0 56 36 92t92 36t92 -36t36 -92v-64h-256v64z" />
    <glyph glyph-name="rice" unicode="&#xfce8;" arabic-form="medial" 
d="M1704 717h-196q-20 72 -52 138t-76 118l292 464l-144 92l-276 -436q-24 20 -48 34t-52 26l76 308l-164 44l-68 -292q-72 16 -144 16q-240 -4 -418 -146t-238 -366h-196q4 -264 144 -470t368 -314v-152h680v152q228 108 368 314t144 470zM852 1061q168 -4 296 -98
t180 -246h-952q52 152 180 246t296 98z" />
    <glyph glyph-name="ring" unicode="&#xfce9;" arabic-form="medial" 
d="M684 827l-340 476l136 204h408l136 -204zM984 1099l-104 -144q144 -60 228 -184t88 -288q-4 -216 -150 -360t-362 -152q-216 8 -362 152t-150 360q4 164 88 288t228 184l-104 144q-172 -84 -276 -246t-108 -370q8 -288 200 -482t484 -198q292 4 484 198t200 482
q-4 208 -108 370t-276 246z" />
    <glyph glyph-name="sass" unicode="&#xfcea;" arabic-form="medial" 
d="M852 1507q364 -8 604 -248t248 -604q-8 -364 -248 -604t-604 -248q-364 8 -604 248t-248 604q8 364 248 604t604 248zM680 371q20 -68 0 -128l-4 -16l-4 -8q-16 -32 -40 -60q-40 -40 -84 -54t-66 0t-12 60t58 94t96 78t52 30zM1388 1143q-36 116 -190 148t-338 -32
q-108 -36 -214 -94t-190 -138q-96 -92 -124 -166t-20 -106q32 -116 144 -200l188 -140q-28 -12 -122 -70t-138 -138q-32 -76 -10 -128t50 -60q88 -20 166 14t124 104t50 142t-20 120q52 16 132 8q108 -20 144 -68t30 -80t-22 -48t-28 -24t-10 -14t14 -4t44 26t36 80
q4 72 -58 130t-178 62q-96 -4 -136 -20l-4 8q-84 72 -174 142t-94 170q-8 40 50 130t290 214q204 92 342 84t170 -72q36 -92 -72 -208t-316 -148q-76 -4 -118 14t-54 30q-16 20 -20 16q-12 -12 -4 -30t34 -40t66 -36t124 -12t200 42q128 52 204 164t52 228z" />
    <glyph glyph-name="send-secure" unicode="&#xfceb;" arabic-form="medial" 
d="M1792 271v44q-4 88 -64 148t-150 60t-150 -60t-64 -148v-44q-36 0 -60 -24t-24 -60v-344q0 -36 24 -60t60 -24h428q36 0 60 24t24 60v344q0 36 -24 60t-60 24zM1704 271h-256v44q4 52 40 88t90 36t90 -36t36 -88v-44zM1792 783l-1792 -768v596l1280 172l-1280 172v596z
" />
    <glyph glyph-name="soy-sauce" unicode="&#xfcec;" arabic-form="medial" 
d="M722 1035q0 44 8 76l16 52h52l76 212h68v128h-768v-128h68l76 -212h52q24 -40 24 -128q-20 -96 -174 -348t-174 -512v-172q4 -92 150 -144t362 -52t362 52t150 144v172q-20 260 -174 512t-174 348zM558 395q-72 0 -120 50t-48 122t48 120t120 48t120 -48t48 -120
t-48 -122t-120 -50z" />
    <glyph glyph-name="standard-definition" unicode="&#xfced;" arabic-form="medial" 
d="M680 1083h256q112 -4 184 -76t72 -180v-344q0 -108 -72 -180t-184 -76h-256v856zM936 399q36 0 60 24t28 60v344q-4 36 -28 60t-60 24h-84v-512h84zM168 1083h344v-172h-344v-172h172q72 0 120 -48t52 -120v-172q-4 -72 -52 -120t-120 -52h-340v172h340v172h-172
q-72 0 -120 48t-48 120v172q0 72 48 120t120 52z" />
    <glyph glyph-name="surround-sound-2-0" unicode="&#xfcee;" arabic-form="medial" 
d="M1196 1083h168q72 -4 122 -52t50 -120v-512q0 -72 -50 -120t-122 -52h-168q-72 4 -122 52t-50 120v512q0 72 50 120t122 52zM1196 911v-512h168v512h-168zM512 227h-512v172l340 512h-340v172h340q72 -4 122 -52t50 -120q0 -56 -28 -96l-280 -416h308v-172zM768 227
q-36 4 -60 28t-24 60t24 60t60 24t60 -24t24 -60t-24 -60t-60 -28z" />
    <glyph glyph-name="surround-sound-3-1" unicode="&#xfcef;" arabic-form="medial" 
d="M768 227q-36 4 -60 28t-24 60t24 60t60 24t60 -24t24 -60t-24 -60t-60 -28zM1280 1083v-684h88v-172h-344v172h88v512h-88l88 172h168zM0 1083h344q72 -4 120 -52t48 -120v-512q0 -72 -48 -120t-120 -52h-344v172h344v172h-256v168h256v172h-344v172z" />
    <glyph glyph-name="surround-sound-5-1" unicode="&#xfcf0;" arabic-form="medial" 
d="M768 227q-36 4 -60 28t-24 60t24 60t60 24t60 -24t24 -60t-24 -60t-60 -28zM1280 1083v-684h88v-172h-344v172h88v512h-88l88 172h168zM172 571q-72 0 -120 48t-52 120v344h512v-172h-340v-172h172q72 0 120 -48t48 -120v-172q0 -72 -48 -120t-120 -52h-344v172h344v172
h-172z" />
    <glyph glyph-name="surround-sound-7-1" unicode="&#xfcf1;" arabic-form="medial" 
d="M596 227q-36 4 -60 28t-24 60t24 60t60 24t60 -24t24 -60t-24 -60t-60 -28zM1108 1083v-684h84v-172h-340v172h84v512h-84l84 172h172zM512 1083l-256 -856h-172l204 684h-288v172h512z" />
    <glyph glyph-name="television-classic" unicode="&#xfcf2;" arabic-form="medial" 
d="M524 1423l-120 -120l220 -220h-456q-72 -4 -120 -52t-48 -120v-852q0 -76 48 -124t120 -48h1368q72 0 120 48t48 124v852q0 72 -48 120t-120 52h-456l220 220l-120 120l-328 -328zM168 911h1112v-852h-1112v852zM1492 911q36 0 60 -24t24 -60t-24 -60t-60 -24t-60 24
t-24 60t24 60t60 24zM1492 655q36 0 60 -24t24 -60t-24 -60t-60 -24t-60 24t-24 60t24 60t60 24z" />
    <glyph glyph-name="textbox-password" unicode="&#xfcf3;" arabic-form="medial" 
d="M1280 1083h424v-856h-424v-168q0 -36 24 -60t60 -28h172v-168h-216q-36 0 -80 24t-48 60q-4 -36 -46 -60t-82 -24h-212v168h172q36 4 60 28t24 60v1192q0 36 -24 60t-60 28h-172v168h212q40 0 82 -24t46 -60q4 36 48 60t80 24h216v-168h-172q-36 -4 -60 -28t-24 -60v-168
zM0 1083h936v-172h-768v-512h768v-172h-936v856zM1536 399v512h-256v-512h256zM552 655q0 56 -36 92t-90 36t-90 -36t-36 -92t36 -92t90 -36t90 36t36 92zM936 751q-40 36 -90 32t-88 -44t-34 -90t42 -86t86 -36t84 32v192z" />
    <glyph glyph-name="thought-bubble" unicode="&#xfcf4;" arabic-form="medial" 
d="M128 101q52 -4 88 -40t36 -90t-36 -90t-90 -36t-90 36t-36 90t36 90t92 40zM552 357q92 -4 152 -64t60 -150t-60 -150t-150 -60t-150 60t-60 150t60 150t148 64zM1064 441q-76 0 -142 30t-114 86q-48 -56 -112 -86t-144 -30q-128 4 -218 80t-118 200q-96 36 -156 122
t-60 194q4 148 100 244t240 100q32 0 64 -8q96 88 236 92q76 0 142 -30t114 -86q48 56 112 86t144 30q128 -4 218 -80t118 -200q96 -36 156 -122t60 -194q-4 -148 -100 -244t-240 -100l-64 8q-96 -88 -236 -92z" />
    <glyph glyph-name="thought-bubble-outline" unicode="&#xfcf5;" arabic-form="isolated" 
d="M128 101q52 -4 88 -40t36 -90t-36 -90t-90 -36t-90 36t-36 90t36 90t92 40zM552 357q92 -4 152 -64t60 -150t-60 -150t-150 -60t-150 60t-60 150t60 150t148 64zM1064 441q-76 0 -142 30t-114 86q-48 -56 -112 -86t-144 -30q-128 4 -218 80t-118 200q-96 36 -156 122
t-60 194q4 148 100 244t240 100l64 -8q96 88 236 92q76 0 142 -30t114 -86q48 56 112 86t144 30q128 -4 218 -80t118 -200q96 -36 156 -122t60 -194q-4 -148 -100 -244t-240 -100l-64 8q-96 -88 -236 -92zM340 1209q-72 0 -120 -50t-48 -122t48 -120t120 -48q44 0 80 16
q-36 -44 -36 -104q0 -72 48 -120t124 -48t124 56l128 144l128 -144q52 -56 128 -56q68 0 114 40t58 104q48 -56 128 -60q72 0 120 50t48 122t-48 120t-120 48q-44 0 -80 -16q36 44 36 104q0 72 -48 120t-124 48t-124 -56l-132 -144l-124 144q-48 56 -128 56q-68 0 -114 -40
t-58 -104q-48 56 -128 60zM552 229q-36 -4 -60 -28t-24 -60t24 -60t60 -24t60 24t24 60t-24 60t-60 28z" />
    <glyph glyph-name="trackpad" unicode="&#xfcf6;" arabic-form="isolated" 
d="M168 1423h1368q72 0 120 -50t48 -122v-1192q0 -72 -48 -122t-120 -50h-1368q-72 0 -120 50t-48 122v1192q0 72 48 122t120 50zM168 1251v-680h1368v680h-1368zM168 59h600v340h-600v-340zM1536 59v340h-600v-340h600z" />
    <glyph glyph-name="ultra-high-definition" unicode="&#xfcf7;" arabic-form="isolated" 
d="M684 1083h172v-344h168v344h172v-856h-172v344h-168v-344h-172v856zM1368 1083h256q108 -4 180 -76t76 -180v-344q-4 -108 -76 -180t-180 -76h-256v856zM1624 399q36 0 60 24t24 60v344q0 36 -24 60t-60 24h-88v-512h88zM512 483q0 -108 -72 -180t-182 -72t-182 72
t-76 180v600h172v-600q0 -36 24 -60t60 -24t60 24t28 60v600h168v-600z" />
    <glyph glyph-name="van-passenger" unicode="&#xfcf8;" arabic-form="isolated" 
d="M172 1209q-72 -4 -120 -52t-52 -120v-684h172q4 -108 76 -180t180 -72t180 72t76 180h512q4 -108 76 -180t180 -72t180 72t76 180h172v344q-4 72 -52 120t-120 48l-256 344h-1280zM172 1081h340v-216h-340v216zM684 1081h340v-216h-340v216zM1196 1081h212l168 -216h-380
v216zM428 481q56 0 92 -36t36 -90t-36 -90t-92 -36t-92 36t-36 90t36 90t92 36zM1452 481q56 0 92 -36t36 -90t-36 -90t-92 -36t-92 36t-36 90t36 90t92 36z" />
    <glyph glyph-name="van-utility" unicode="&#xfcf9;" arabic-form="isolated" 
d="M172 1209q-72 -4 -120 -52t-52 -120v-684h172q4 -108 76 -180t180 -72t180 72t76 180h512q4 -108 76 -180t180 -72t180 72t76 180h172v344q-4 72 -52 120t-120 48l-256 344h-1280zM1196 1081h212l168 -216h-380v216zM428 481q56 0 92 -36t36 -90t-36 -90t-92 -36t-92 36
t-36 90t36 90t92 36zM1452 481q56 0 92 -36t36 -90t-36 -90t-92 -36t-92 36t-36 90t36 90t92 36z" />
    <glyph glyph-name="vanish" unicode="&#xfcfa;" arabic-form="isolated" 
d="M1108 571v168h428v-168h-428zM1008 1015l244 244l120 -120l-244 -244zM684 315h168v-428h-168v428zM684 1423h168v-428h-168v428zM164 171l244 244l120 -120l-244 -244zM164 1139l120 120l244 -244l-120 -120zM428 571h-428v168h428v-168zM1372 171l-120 -120l-244 244
l120 120z" />
    <glyph glyph-name="video-3d" unicode="&#xfcfb;" arabic-form="isolated" 
d="M0 1083h340q72 -4 120 -52t52 -120v-512q-4 -72 -52 -120t-120 -52h-340v172h340v172h-256v168h256v172h-340v172zM680 1083h256q112 -4 184 -76t72 -180v-344q0 -108 -72 -180t-184 -76h-256v856zM936 399q36 0 60 24t28 60v344q-4 36 -28 60t-60 24h-84v-512h84z" />
    <glyph glyph-name="wall" unicode="&#xfcfc;" arabic-form="isolated" 
d="M84 357h768v-428h-768v428zM0 869h512v-428h-512v428zM596 869h512v-428h-512v428zM1192 869h512v-428h-512v428zM936 357h684v-428h-684v428zM84 1381h684v-428h-684v428zM852 1381h768v-428h-768v428z" />
    <glyph glyph-name="xmpp" unicode="&#xfcfd;" arabic-form="isolated" 
d="M852 319q-148 152 -242 364t-98 440l-512 172q12 -364 230 -640t498 -440q-152 -112 -304 -116v-84q80 0 190 32t238 100q128 -68 238 -100t190 -32v84q-152 4 -304 116q280 164 498 440t230 640l-512 -172q0 -228 -96 -440t-244 -364z" />
    <glyph glyph-name="account-multiple-plus-outline" unicode="&#xfcfe;" arabic-form="isolated" 
d="M1152 1251q-128 0 -212 -86t-84 -212t84 -210t212 -88q96 0 172 56q72 -56 168 -56q128 4 212 88t84 210t-84 212t-212 86q-96 0 -168 -56q-72 56 -172 56zM1152 1123q72 0 120 -48t48 -120t-48 -122t-120 -50t-120 50t-48 122t48 120t120 48zM1492 1123q72 0 122 -48
t50 -120t-50 -122t-122 -50q-44 0 -84 24q40 64 40 146t-40 150q40 20 84 20zM256 995v-256h-256v-168h256v-256h172v256h256v168h-256v256h-172zM1152 571q-156 0 -346 -70t-210 -210v-232h1452v232q-16 140 -208 210t-348 70q-72 0 -168 -20q-96 20 -172 20zM1152 443
q164 -8 292 -60t136 -92v-104h-856v104q8 40 136 92t292 60zM1628 427q124 -24 206 -64t86 -72v-104h-212v104q-4 80 -80 136z" />
    <glyph glyph-name="account-plus-outline" unicode="&#xfcff;" arabic-form="isolated" 
d="M1196 1339q-144 -4 -240 -100t-96 -242t96 -242t240 -96t240 96t96 242t-96 242t-240 100zM1196 1175q76 0 126 -52t50 -128t-50 -126t-126 -50t-126 50t-50 126t50 128t126 52zM256 1083v-256h-256v-172h256v-256h172v256h256v172h-256v256h-172zM1196 571
q-192 0 -426 -86t-258 -258v-256h1368v256q-24 172 -258 258t-426 86zM1196 407q200 -4 356 -68t164 -112v-92h-1040v92q8 48 164 112t356 68z" />
    <glyph glyph-name="allo" unicode="&#xfd00;" arabic-form="isolated" 
d="M1704 656v-768q0 -64 -58 -82t-94 34l-132 180q-240 -216 -568 -216q-352 0 -602 250t-250 602t250 602t602 250t602 -250t250 -602z" />
    <glyph glyph-name="artist" unicode="&#xfd01;" arabic-form="isolated" 
d="M684 483q124 0 272 -36q-104 -112 -104 -260q0 -116 68 -216h-920v172q0 152 234 246t450 94zM1324 827h296v-172h-168v-468q0 -88 -64 -152t-152 -64t-150 64t-62 152t62 150t150 62q40 0 88 -20v448zM684 655q-140 0 -242 100t-102 240t102 242t242 102t240 -102
t100 -242t-100 -240t-240 -100z" />
    <glyph glyph-name="atlassian" unicode="&#xfd02;" arabic-form="isolated" 
d="M505 719q-12 16 -32 20t-32 -6t-20 -22l-416 -836q-16 -44 20 -68q12 -8 24 -4h584q28 0 44 24q92 208 44 458t-216 434zM813 1483q-160 -252 -176 -538t112 -554l280 -564q16 -24 44 -24h584q44 4 48 48q4 12 -4 24l-396 788q-344 692 -408 820q-8 16 -26 22t-34 -2
t-24 -20z" />
    <glyph glyph-name="azure" unicode="&#xfd03;" arabic-form="isolated" 
d="M940 1319l-552 -1180l-388 4l432 748zM1000 1223l704 -1232h-1300l792 144l-416 492z" />
    <glyph glyph-name="basketball" unicode="&#xfd04;" arabic-form="isolated" 
d="M28 431q76 28 160 28q172 0 300 -108l-268 -268q-136 156 -192 348zM1156 843q252 -188 544 -92q4 -28 4 -96q0 -132 -60 -294t-148 -262l-540 540zM576 259q136 -196 56 -428q-184 52 -320 164zM868 551l540 -540q-280 -244 -652 -204q28 84 28 184q0 80 -36 186
t-84 174zM580 443q-120 104 -276 134t-300 -18q-4 28 -4 96q0 132 60 294t148 262l568 -572zM1156 1019q-172 212 -80 460q80 -20 182 -78t166 -114zM1676 879q-76 -28 -160 -28q-140 0 -268 84l264 260q112 -140 164 -316zM868 731l-572 568q280 244 652 204
q-28 -84 -28 -180t42 -212t102 -184z" />
    <glyph glyph-name="battery-charging-wireless" unicode="&#xfd05;" arabic-form="isolated" 
d="M936 1339h-168v168h-512v-168h-172q-36 -4 -60 -28t-24 -60v-1364q0 -36 24 -60t60 -24h852q36 0 60 24t28 60v1364q-4 36 -28 60t-60 28zM1540 1259l-120 -120q200 -212 200 -484t-200 -484l120 -120q252 264 252 604t-252 604zM1300 1015l-120 -120q100 -104 100 -240
t-100 -240l120 -120q148 156 148 360t-148 360z" />
    <glyph glyph-name="battery-charging-wireless-10" unicode="&#xfd06;" arabic-form="isolated" 
d="M1540 1259l-120 -120q200 -212 200 -484t-200 -484l120 -120q252 264 252 604t-252 604zM1300 1015l-120 -120q100 -104 100 -240t-100 -240l120 -120q148 156 148 360t-148 360zM936 1339h-168v168h-512v-168h-172q-36 -4 -60 -28t-24 -60v-1364q0 -36 24 -60t60 -24
h852q36 0 60 24t28 60v1364q-4 36 -28 60t-60 28zM852 99h-684v1068h684v-1068z" />
    <glyph glyph-name="battery-charging-wireless-20" unicode="&#xfd07;" arabic-form="isolated" 
d="M1540 1259l-120 -120q200 -212 200 -484t-200 -484l120 -120q252 264 252 604t-252 604zM1300 1015l-120 -120q100 -104 100 -240t-100 -240l120 -120q148 156 148 360t-148 360zM936 1339h-168v168h-512v-168h-172q-36 -4 -60 -28t-24 -60v-1364q0 -36 24 -60t60 -24
h852q36 0 60 24t28 60v1364q-4 36 -28 60t-60 28zM852 227h-684v940h684v-940z" />
    <glyph glyph-name="battery-charging-wireless-30" unicode="&#xfd08;" arabic-form="isolated" 
d="M1540 1259l-120 -120q200 -212 200 -484t-200 -484l120 -120q252 264 252 604t-252 604zM1300 1015l-120 -120q100 -104 100 -240t-100 -240l120 -120q148 156 148 360t-148 360zM936 1339h-168v168h-512v-168h-172q-36 -4 -60 -28t-24 -60v-1364q0 -36 24 -60t60 -24
h852q36 0 60 24t28 60v1364q-4 36 -28 60t-60 28zM852 315h-684v852h684v-852z" />
    <glyph glyph-name="battery-charging-wireless-40" unicode="&#xfd09;" arabic-form="isolated" 
d="M1540 1259l-120 -120q200 -212 200 -484t-200 -484l120 -120q252 264 252 604t-252 604zM1300 1015l-120 -120q100 -104 100 -240t-100 -240l120 -120q148 156 148 360t-148 360zM936 1339h-168v168h-512v-168h-172q-36 -4 -60 -28t-24 -60v-1364q0 -36 24 -60t60 -24
h852q36 0 60 24t28 60v1364q-4 36 -28 60t-60 28zM852 443h-684v724h684v-724z" />
    <glyph glyph-name="battery-charging-wireless-50" unicode="&#xfd0a;" arabic-form="isolated" 
d="M1540 1259l-120 -120q200 -212 200 -484t-200 -484l120 -120q252 264 252 604t-252 604zM1300 1015l-120 -120q100 -104 100 -240t-100 -240l120 -120q148 156 148 360t-148 360zM936 1339h-168v168h-512v-168h-172q-36 -4 -60 -28t-24 -60v-1364q0 -36 24 -60t60 -24
h852q36 0 60 24t28 60v1364q-4 36 -28 60t-60 28zM852 571h-684v596h684v-596z" />
    <glyph glyph-name="battery-charging-wireless-60" unicode="&#xfd0b;" arabic-form="isolated" 
d="M1540 1259l-120 -120q200 -212 200 -484t-200 -484l120 -120q252 264 252 604t-252 604zM1300 1015l-120 -120q100 -104 100 -240t-100 -240l120 -120q148 156 148 360t-148 360zM936 1339h-168v168h-512v-168h-172q-36 -4 -60 -28t-24 -60v-1364q0 -36 24 -60t60 -24
h852q36 0 60 24t28 60v1364q-4 36 -28 60t-60 28zM852 691h-684v476h684v-476z" />
    <glyph glyph-name="battery-charging-wireless-70" unicode="&#xfd0c;" arabic-form="isolated" 
d="M1540 1259l-120 -120q200 -212 200 -484t-200 -484l120 -120q252 264 252 604t-252 604zM1300 1015l-120 -120q100 -104 100 -240t-100 -240l120 -120q148 156 148 360t-148 360zM936 1339h-168v168h-512v-168h-172q-36 -4 -60 -28t-24 -60v-1364q0 -36 24 -60t60 -24
h852q36 0 60 24t28 60v1364q-4 36 -28 60t-60 28zM852 827h-684v340h684v-340z" />
    <glyph glyph-name="battery-charging-wireless-80" unicode="&#xfd0d;" arabic-form="isolated" 
d="M1540 1259l-120 -120q200 -212 200 -484t-200 -484l120 -120q252 264 252 604t-252 604zM1300 1015l-120 -120q100 -104 100 -240t-100 -240l120 -120q148 156 148 360t-148 360zM936 1339h-168v168h-512v-168h-172q-36 -4 -60 -28t-24 -60v-1364q0 -36 24 -60t60 -24
h852q36 0 60 24t28 60v1364q-4 36 -28 60t-60 28zM852 911h-684v256h684v-256z" />
    <glyph glyph-name="battery-charging-wireless-90" unicode="&#xfd0e;" arabic-form="isolated" 
d="M1540 1259l-120 -120q200 -212 200 -484t-200 -484l120 -120q252 264 252 604t-252 604zM1300 1015l-120 -120q100 -104 100 -240t-100 -240l120 -120q148 156 148 360t-148 360zM936 1339h-168v168h-512v-168h-172q-36 -4 -60 -28t-24 -60v-1364q0 -36 24 -60t60 -24
h852q36 0 60 24t28 60v1364q-4 36 -28 60t-60 28zM852 1039h-684v128h684v-128z" />
    <glyph glyph-name="battery-charging-wireless-alert" unicode="&#xfd0f;" arabic-form="isolated" 
d="M936 1339h-168v168h-512v-168h-172q-36 -4 -60 -28t-24 -60v-1364q0 -36 24 -60t60 -24h852q36 0 60 24t28 60v1364q-4 36 -28 60t-60 28zM596 143h-172v172h172v-172zM596 483h-172v428h172v-428zM1540 1259l-120 -120q200 -212 200 -484t-200 -484l120 -120
q252 264 252 604t-252 604zM1300 1015l-120 -120q100 -104 100 -240t-100 -240l120 -120q148 156 148 360t-148 360z" />
    <glyph glyph-name="battery-charging-wireless-outline" unicode="&#xfd10;" arabic-form="isolated" 
d="M1540 1259l-120 -120q200 -212 200 -484t-200 -484l120 -120q252 264 252 604t-252 604zM1300 1015l-120 -120q100 -104 100 -240t-100 -240l120 -120q148 156 148 360t-148 360zM936 1339h-168v168h-512v-168h-172q-36 -4 -60 -28t-24 -60v-1364q0 -36 24 -60t60 -24
h852q36 0 60 24t28 60v1364q-4 36 -28 60t-60 28zM852 -29h-684v1196h684v-1196z" />
    <glyph glyph-name="bitcoin" unicode="&#xfd11;" arabic-form="final" 
d="M0 1251h300v256h168v-256h128v256h172v-256q344 -28 378 -256t-166 -276q272 -28 262 -322t-474 -338v-256h-172v256h-128v-256h-168v256h-300l44 168h84q36 4 60 28t24 60v680q0 36 -24 60t-60 28h-128v168zM468 1083v-344q24 -4 192 16t192 156q-24 136 -192 158
t-192 14zM468 611v-384q32 -4 236 26t236 166q-32 140 -236 170t-236 22z" />
    <glyph glyph-name="briefcase-outline" unicode="&#xfd12;" arabic-form="final" 
d="M1536 1125q72 0 120 -50t48 -122v-936q0 -72 -48 -122t-120 -50h-1368q-72 0 -120 50t-48 122v936q0 72 48 122t120 50h344v172q0 72 48 120t120 48h344q72 0 120 -48t48 -120v-172h344zM168 953v-936h1368v936h-1368zM1024 1125v172h-344v-172h344z" />
    <glyph glyph-name="cellphone-wireless" unicode="&#xfd13;" arabic-form="final" 
d="M1628 1259q116 -116 182 -272t66 -332t-66 -332t-182 -272l-120 120q96 96 148 218t52 266t-52 266t-148 218zM1388 1015q68 -68 108 -160t40 -200t-40 -200t-108 -160l-120 120q96 96 96 240t-96 240zM1024 827q72 -4 122 -52t50 -120t-50 -120t-122 -48t-120 48
t-48 120t48 120t120 52zM896 1595q92 -4 152 -64t64 -152v-384h-172v344h-768v-1280h768v256h172v-384q-4 -92 -64 -152t-152 -64h-680q-92 4 -152 64t-64 152v1448q4 92 64 152t152 64h680z" />
    <glyph glyph-name="clover" unicode="&#xfd14;" arabic-form="final" 
d="M852 723q212 188 320 312t108 244q-4 100 -70 164t-166 64q-116 0 -192 -84q-76 84 -196 84q-100 0 -164 -68t-68 -164q0 -116 108 -240t320 -312zM784 655q-188 212 -312 320t-244 108q-100 -4 -164 -70t-64 -166q0 -116 84 -192q-84 -76 -84 -196q0 -100 68 -164
t164 -68q116 0 240 108t312 320zM924 655q184 -212 308 -320t244 -108q100 4 164 70t64 166q0 116 -84 192q84 76 84 196q0 100 -68 164t-164 68q-116 0 -240 -108t-308 -320zM852 587q-212 -188 -320 -312t-108 -244q4 -100 70 -164t166 -64q116 0 192 84q76 -84 196 -84
q100 0 164 68t68 164q0 116 -108 240t-320 312z" />
    <glyph glyph-name="comment-question" unicode="&#xfd15;" arabic-form="final" 
d="M168 1507h1368q72 0 120 -48t48 -120v-1024q0 -72 -48 -122t-120 -50h-520l-316 -316q-28 -24 -60 -24h-44q-36 0 -60 24t-24 60v256h-344q-72 0 -120 50t-48 122v1024q0 72 48 120t120 48zM868 1211q-112 0 -184 -48t-64 -140h168q0 36 24 54t60 18t60 -22t24 -58
t-20 -64t-52 -48q-68 -40 -92 -70t-24 -94h168q0 36 12 58t44 42q60 28 98 74t38 102q0 88 -70 142t-190 54zM768 655v-172h168v172h-168z" />
    <glyph glyph-name="content-save-outline" unicode="&#xfd16;" arabic-form="final" 
d="M1024 1251v-340h-852v-852h368q-52 48 -82 112t-30 144q4 144 100 240t240 96t240 -96t100 -240q0 -80 -30 -144t-82 -112h368v952l-240 240h-100zM172 1083h680v168h-680v-168zM1196 1423l340 -340v-1024q0 -72 -50 -122t-122 -50h-1192q-76 0 -124 50t-48 122v1192
q0 72 50 122t122 50h1024zM768 483q-72 0 -120 -48t-48 -120t48 -122t120 -50t120 50t48 122t-48 120t-120 48z" />
    <glyph glyph-name="delete-restore" unicode="&#xfd17;" arabic-form="final" 
d="M768 483h168l-340 344l-340 -344h168v-340h344v340zM84 1083h1024v-1024q0 -68 -52 -120t-120 -52h-680q-68 0 -120 52t-52 120v1024zM1192 1339v-172h-1192v172h296l88 84h424l88 -84h296z" />
    <glyph glyph-name="door" unicode="&#xfd18;" arabic-form="final" 
d="M218 1423q-76 0 -124 -48t-48 -124v-1364h1024v1364q0 76 -48 124t-124 48h-680zM218 1251h680v-1192h-680v1192zM642 739v-168h172v168h-172z" />
    <glyph glyph-name="door-closed" unicode="&#xfd19;" arabic-form="final" 
d="M1192 739h172v-168h-172v168zM852 1423h596q76 0 124 -48t48 -124v-1192h84v-172h-1704v172h680v1192q4 76 52 124t120 48zM852 1251v-1192h596v1192h-596z" />
    <glyph glyph-name="door-open" unicode="&#xfd1a;" arabic-form="final" 
d="M852 1423q-72 0 -120 -48t-52 -124h-596v-1192h-84v-172h1704v172h-84v1192q0 76 -48 124t-124 48h-596zM852 1251h596v-1192h-596v1192zM256 739h168v-168h-168v168z" />
    <glyph glyph-name="fan-off" unicode="&#xfd1b;" arabic-form="final" 
d="M896 1507q-184 -4 -252 -138t-24 -326l488 -488q56 -12 110 -44t86 -88q88 -156 238 -124t166 312q-12 232 -210 282t-446 -78q-40 52 -104 76q12 64 44 122t96 90q156 92 122 240t-314 164zM108 1339l-108 -108l208 -212q-80 0 -144 -78t-64 -242q8 -228 206 -280
t446 76q40 -52 104 -80q-12 -60 -44 -116t-92 -92q-156 -92 -124 -240t312 -164q148 0 222 90t74 234l324 -324l108 108z" />
    <glyph glyph-name="file-percent" unicode="&#xfd1c;" arabic-form="final" 
d="M856 1507l512 -512v-1024q-4 -72 -52 -120t-120 -48h-1024q-72 0 -120 48t-52 120v1368q4 72 52 120t120 48h684zM288 -29l652 656l-116 112l-652 -652zM768 911h472l-472 468v-468zM300 739q-56 0 -92 -36t-36 -90t36 -90t92 -36t92 36t36 90t-36 90t-92 36zM812 227
q-56 0 -92 -36t-36 -90t36 -90t92 -36t92 36t36 90t-36 90t-92 36z" />
    <glyph glyph-name="finance" unicode="&#xfd1d;" arabic-form="final" 
d="M56 571h340v-856h-340v856zM652 483h344v-768h-344v768zM1252 911h340v-1196h-340v1196zM1252 1595h340v-344h-84v168l-688 -688l-336 340l-392 -392l-92 92l484 480l336 -336l596 592h-164v88z" />
    <glyph glyph-name="flash-circle" unicode="&#xfd1e;" arabic-form="final" 
d="M808 -29l416 832h-288v536l-424 -832h296v-536zM852 1507q352 0 602 -250t250 -602t-250 -602t-602 -250t-602 250t-250 602t250 602t602 250z" />
    <glyph glyph-name="floor-plan" unicode="&#xfd1f;" arabic-form="final" 
d="M596 1251v-424h-84v424h-340v-680h340v84h84v-428h-84v256h-340v-424h596v168h84v-168h512v168h172v-340h-1536v1536h1536v-1024h-172v428h-512v-428h-84v512h596v340h-768z" />
    <glyph glyph-name="forum-outline" unicode="&#xfd20;" arabic-form="final" 
d="M168 1507q-72 0 -120 -48t-48 -120v-1112l340 344h768q72 0 120 48t52 120v600q-4 72 -52 120t-120 48h-940zM168 1339h940v-600h-768l-172 -168v768zM1448 1167v-172h88v-852l-172 172h-852v84h-172v-84q0 -72 50 -122t122 -50h852l340 -340v1192q0 72 -48 122t-120 50
h-88z" />
    <glyph glyph-name="golf" unicode="&#xfd21;" arabic-form="final" 
d="M1324 143q56 0 92 -36t36 -92t-36 -92t-92 -36t-92 36t-36 92t36 92t92 36zM1112 1175l-512 -264v-772q184 -12 302 -56t122 -112q-4 -72 -148 -120t-362 -48t-362 48t-152 120q4 48 72 88t184 60v-148h172v1536z" />
    <glyph glyph-name="google-home" unicode="&#xfd22;" arabic-form="final" 
d="M228 1011q-72 0 -84 12l-36 -520q68 -40 176 -66t312 -14t424 88l-68 804q-112 -112 -332 -208q-196 -84 -336 -96h-56zM220 1219q-88 -76 -74 -104t126 -16q140 12 316 88q120 52 208 112t120 100t24 58t-80 18q-144 0 -360 -92q-184 -80 -280 -164zM1020 1487
q8 -16 8 -36l100 -1228q0 -220 -152 -346t-410 -126t-412 130t-154 350l60 892q0 32 28 72t52 64l28 24q124 104 300 180q120 52 234 78t204 16t114 -70z" />
    <glyph glyph-name="guy-fawkes-mask" unicode="&#xfd23;" arabic-form="final" 
d="M1536 571q-8 -328 -224 -544t-544 -224q-328 8 -544 224t-224 544l4 728q168 100 362 154t404 54t404 -52t362 -148v-736zM852 -21q224 36 366 198t146 394v632q-272 132 -592 136q-328 -4 -608 -144l8 -624q4 -232 146 -394t366 -198v164h168v-164zM684 315h-256
l-172 256l256 -88h84l88 88h168l88 -88h84l256 88l-172 -256h-256l-84 84zM256 907q84 84 212 84t216 -84q-88 -80 -216 -80t-212 80zM852 907q84 84 212 84t216 -84q-88 -80 -216 -80t-212 80z" />
    <glyph glyph-name="home-account" unicode="&#xfd24;" arabic-form="final" 
d="M852 1381l-852 -768h256v-684h1192v684h256zM852 889q80 0 134 -54t54 -136t-54 -136t-134 -54t-134 54t-54 136t54 136t134 54zM852 357q108 0 240 -48t144 -144v-64h-768v64q12 96 144 144t240 48z" />
    <glyph glyph-name="home-heart" unicode="&#xfd25;" arabic-form="final" 
d="M0 613l852 768l852 -768h-256v-684h-1192v684h-256zM852 101l60 56q168 148 266 262t102 230q-4 100 -70 166t-166 70q-56 0 -106 -24t-86 -68q-36 44 -86 68t-106 24q-100 -4 -166 -70t-70 -166q4 -116 102 -230t266 -262z" />
    <glyph glyph-name="hot-tub" unicode="&#xfd26;" arabic-form="final" 
d="M424 1381q72 -4 122 -52t50 -120t-50 -120t-122 -48t-120 48t-48 120t48 120t120 52zM780 697h924v-684q0 -72 -48 -120t-120 -48h-1368q-72 0 -120 48t-48 120v684h256v64q0 84 54 138t138 54v0q44 0 80 -16t64 -48l116 -132q32 -32 72 -60zM424 13v512h-168v-512h168z
M768 13v512h-172v-512h172zM1108 13v512h-172v-512h172zM1448 13v512h-168v-512h168zM1420 1221q64 -64 94 -146t18 -170l-8 -36h-160l8 48q16 104 -56 188l-8 4q-64 68 -94 150t-18 170l8 36h160l-8 -52q-16 -104 56 -188zM1080 1221q64 -64 94 -146t14 -170l-4 -36h-160
l8 48q16 104 -60 188l-4 4q-68 68 -96 150t-16 170l4 36h164l-8 -52q-20 -104 56 -188z" />
    <glyph glyph-name="hulu" unicode="&#xfd27;" arabic-form="final" 
d="M1280 587v-784h-408v688q-4 48 -36 80t-76 32h-248q-48 0 -78 -32t-34 -80v-688h-400v1704h408v-544q40 16 80 16h408q164 -4 272 -116t112 -276z" />
    <glyph glyph-name="ice-cream" unicode="&#xfd28;" arabic-form="final" 
d="M558 1507q144 -4 240 -100t100 -244q76 -16 124 -74t48 -134q-4 -92 -64 -152t-148 -64h-600q-88 4 -148 64t-64 152q0 76 48 134t124 78q4 144 100 240t240 100zM302 655h512l-172 -852h-168z" />
    <glyph glyph-name="image-off" unicode="&#xfd29;" arabic-form="final" 
d="M112 1509l-112 -108l172 -172v-1084q0 -72 50 -122t122 -50h1084l172 -172l108 112zM328 1509l1380 -1380v1208q0 76 -50 124t-122 48h-1208zM640 613l216 -256l84 108l232 -236h-828z" />
    <glyph glyph-name="karate" unicode="&#xfd2a;" arabic-form="final" 
d="M1408 1527q-64 36 -128 18t-102 -82t-20 -128t80 -102t128 -20t104 82t20 128t-82 104zM1604 839l-220 -380l-148 84l148 256l-132 112l-268 -464v-688h-172v732l-812 472l84 148l664 -384l208 352l-548 200l64 160l596 -216q48 -20 96 -44l72 -44q44 -24 84 -60z" />
    <glyph glyph-name="ladybug" unicode="&#xfd2b;" arabic-form="final" 
d="M684 1204q96 0 184 -24l140 244q16 28 50 38t66 -8t40 -52t-12 -66l-128 -220q160 -96 252 -252h-1184q92 156 252 252l-128 220q-20 32 -12 66t40 52t66 8t50 -38l140 -244q88 24 184 24zM1368 524q-8 -276 -180 -464t-440 -216v892h584q36 -100 36 -212zM0 524
q0 112 36 212h584v-892q-268 28 -440 216t-180 464z" />
    <glyph glyph-name="notebook" unicode="&#xfd2c;" arabic-form="final" 
d="M0 1083v168h172v88q0 72 48 120t120 48h512v-596l216 128l212 -128v596h84q72 0 120 -50t52 -118v-1368q-4 -68 -52 -118t-120 -50h-1024q-68 0 -118 50t-50 118v88h-172v168h172v344h-172v168h172v344h-172zM340 739h-168v-168h168v168zM340 1083v168h-168v-168h168z
M340 59v168h-168v-168h168z" />
    <glyph glyph-name="phone-return" unicode="&#xfd2d;" arabic-form="initial" 
d="M1536 1145v-428h-128v300h-480l208 -208l-92 -92l-360 364l360 364l92 -92l-208 -208h608zM496 925q36 36 20 84q-48 152 -48 308q0 36 -24 60t-60 24h-300q-36 0 -60 -24t-24 -60q16 -616 426 -1026t1026 -426q36 0 60 24t24 60v300q0 36 -24 60t-60 24q-156 0 -304 48
q-52 16 -88 -20l-188 -188q-180 96 -324 238t-236 326z" />
    <glyph glyph-name="poker-chip" unicode="&#xfd2e;" arabic-form="initial" 
d="M1880 655q-12 -400 -276 -664t-664 -276q-400 12 -664 276t-276 664q12 400 276 664t664 276q400 -12 664 -276t276 -664zM1024 1331q140 -16 258 -84t202 -180l148 88q-108 148 -264 240t-344 112v-176zM248 1155l148 -88q84 112 202 180t258 84v176q-188 -20 -344 -112
t-264 -240zM164 307l148 84q-56 128 -56 264t56 264l-148 84q-76 -168 -76 -348t76 -348zM856 -21q-140 16 -258 84t-202 180l-148 -88q108 -148 264 -240t344 -112v176zM1632 155l-148 88q-84 -112 -202 -180t-258 -84v-172q184 20 342 110t266 238zM1716 307
q76 168 76 348t-76 348l-148 -84q56 -128 56 -264t-56 -264zM1196 655l-256 428l-256 -428l256 -428z" />
    <glyph glyph-name="shape" unicode="&#xfd2f;" arabic-form="initial" 
d="M684 525v-684h-684v684h684zM768 1505l468 -768h-936zM1236 569q164 -4 272 -112t108 -272t-108 -272t-272 -108t-272 108t-108 272t108 272t272 112z" />
    <glyph glyph-name="shape-outline" unicode="&#xfd30;" arabic-form="initial" 
d="M684 525v-684h-684v684h684zM512 353h-340v-340h340v340zM768 1505l468 -768h-936zM768 1177l-164 -268h328zM1236 569q164 -4 272 -112t108 -272t-108 -272t-272 -108t-272 108t-108 272t108 272t272 112zM1236 397q-88 -4 -148 -64t-60 -150t60 -150t150 -60t150 60
t60 150t-60 150t-152 64z" />
    <glyph glyph-name="ship-wheel" unicode="&#xfd31;" arabic-form="initial" 
d="M84 739l172 -8q20 148 90 268t186 204l-96 148q-20 32 -10 66t42 52t64 8t52 -42l80 -152q124 52 272 52t272 -52l80 152q20 32 52 42t64 -8t42 -52t-10 -66l-96 -148q116 -84 186 -204t90 -268l172 8q36 0 60 -24t24 -60t-24 -60t-60 -24l-172 8q-20 -148 -90 -268
t-186 -204l96 -148q20 -32 10 -66t-42 -52t-64 -8t-52 42l-80 152q-124 -52 -272 -52t-272 52l-80 -152q-20 -32 -52 -42t-64 8t-42 52t10 66l96 148q-116 84 -186 204t-90 268l-172 -8q-36 0 -60 24t-24 60t24 60t60 24zM684 711q20 80 80 132l-140 216q-80 -60 -130 -146
t-66 -190zM936 911q40 0 76 -12l120 228q-92 40 -196 40t-196 -40l120 -228q36 12 76 12zM1188 711l256 12q-16 104 -66 190t-130 146l-140 -216q60 -52 80 -132zM1188 599q-20 -80 -80 -132l140 -216q80 60 130 146t66 190zM936 399q-40 0 -76 12l-120 -228q92 -40 196 -40
t196 40l-120 228q-36 -12 -76 -12zM684 599l-256 -12q16 -104 66 -190t130 -146l140 216q-60 52 -80 132z" />
    <glyph glyph-name="soccer-field" unicode="&#xfd32;" arabic-form="initial" 
d="M168 1339q-72 -4 -120 -52t-48 -120v-1024q0 -72 48 -120t120 -52h1368q72 4 120 52t48 120v1024q0 72 -48 120t-120 52h-1368zM168 1167h600v-180q-116 -32 -186 -122t-70 -210t70 -210t186 -122v-180h-600v172h256v680h-256v172zM936 1167h600v-172h-256v-680h256v-172
h-600v180q116 32 186 122t70 210t-70 210t-186 122v180zM168 827h88v-344h-88v344zM1448 827h88v-344h-88v344zM936 803q40 -24 64 -62t24 -86t-24 -86t-64 -62v296zM768 803v-296q-40 24 -64 62t-24 86t24 86t64 62z" />
    <glyph glyph-name="table-column" unicode="&#xfd33;" arabic-form="initial" 
d="M218 1507h680q72 0 122 -48t50 -120v-1368q0 -72 -50 -120t-122 -48h-680q-72 0 -122 48t-50 120v1368q0 72 50 120t122 48zM218 827v-344h680v344h-680zM218 315v-344h680v344h-680zM218 1339v-344h680v344h-680z" />
    <glyph glyph-name="table-of-contents" unicode="&#xfd34;" arabic-form="medial" 
d="M0 911h1196v172h-1196v-172zM0 571h1196v168h-1196v-168zM0 227h1196v172h-1196v-172zM1364 227h172v172h-172v-172zM1364 1083v-172h172v172h-172zM1364 571h172v168h-172v-168z" />
    <glyph glyph-name="table-row" unicode="&#xfd35;" arabic-form="medial" 
d="M1704 483q0 -72 -48 -120t-120 -48h-1368q-72 0 -120 48t-48 120v344q0 72 48 120t120 48h1368q72 0 120 -48t48 -120v-344zM168 483h344v344h-344v-344zM680 483h344v344h-344v-344zM1192 483h344v344h-344v-344z" />
    <glyph glyph-name="table-settings" unicode="&#xfd36;" arabic-form="medial" 
d="M340 -27h172v-172h-172v172zM684 -27h168v-172h-168v172zM1024 -27h172v-172h-172v172zM172 1509h1192q72 -4 122 -52t50 -120v-1024q0 -72 -50 -120t-122 -52h-1192q-72 4 -122 52t-50 120v1024q0 72 50 120t122 52zM172 1165v-340h512v340h-512zM852 1165v-340h512v340
h-512zM172 653v-340h512v340h-512zM852 653v-340h512v340h-512z" />
    <glyph glyph-name="television-box" unicode="&#xfd37;" arabic-form="medial" 
d="M172 1423h1192q72 0 122 -50t50 -122v-1192q0 -72 -50 -122t-122 -50h-1192q-72 0 -122 50t-50 122v1192q0 72 50 122t122 50zM1108 315l256 680h-212l-128 -384l-128 384h-724v-168h256v-512h168v512h152l192 -512h168z" />
    <glyph glyph-name="television-classic-off" unicode="&#xfd38;" arabic-form="medial" 
d="M0 1317l108 108l1512 -1512l-108 -112l-172 172h-1172q-72 0 -120 48t-48 124v852q0 64 42 112t106 60zM524 1509l328 -328l328 328l120 -120l-220 -220h456q72 -4 120 -52t48 -120v-852q0 -44 -20 -80l-404 404v528h-528l-172 172h44l-220 220zM168 997v-852h1004
l-856 852h-148zM1492 997q-36 0 -60 -24t-24 -60t24 -60t60 -24t60 24t24 60t-24 60t-60 24zM1492 741q-36 0 -60 -24t-24 -60t24 -60t60 -24t60 24t24 60t-24 60t-60 24z" />
    <glyph glyph-name="television-off" unicode="&#xfd39;" arabic-form="medial" 
d="M0 1421l108 108l1640 -1640l-108 -108l-256 256h-64v-172h-680v172h-428q-72 0 -120 48t-52 120v1024q4 64 40 108zM1748 205v1024h-1124l-172 172h1296q72 0 120 -50t52 -122v-1024q-4 -52 -34 -96t-78 -64l-160 160h100zM212 205h1000l-1000 1004v-1004z" />
    <glyph glyph-name="towing" unicode="&#xfd3a;" arabic-form="medial" 
d="M1196 827h460l-284 340h-176v-340zM1408 99q52 0 90 38t38 90t-38 90t-90 38t-90 -38t-38 -90t38 -90t90 -38zM428 99q56 0 92 38t36 90t-36 90t-92 38t-92 -38t-36 -90t36 -90t92 -38zM1452 1339l428 -512v-600h-216q0 -104 -76 -180t-180 -76t-180 76t-76 180h-468
q0 -104 -76 -180t-180 -76t-180 76t-76 180h-172v344h700l-528 416v-248h-172v512h88l936 -516v604h428z" />
    <glyph glyph-name="upload-multiple" unicode="&#xfd3b;" arabic-form="medial" 
d="M340 439v512h-340l596 600l596 -600h-340v-512h-512zM0 99v172h1192v-172h-1192zM1192 -73h-1192v-168h1192v168z" />
    <glyph glyph-name="video-4k-box" unicode="&#xfd3c;" arabic-form="final" 
d="M172 1423h1192q72 0 122 -50t50 -122v-1192q0 -72 -50 -122t-122 -50h-1192q-72 0 -122 50t-50 122v1192q0 72 50 122t122 50zM1288 399l-172 256l172 256h-148l-168 -256v256h-128v-512h128v256l168 -256h148zM756 527v128h-84v256h-128v-256h-128v256h-128v-384h256
v-128h128v128h84z" />
    <glyph glyph-name="video-input-antenna" unicode="&#xfd3d;" arabic-form="isolated" 
d="M940 1225q-256 -4 -424 -172t-172 -424h168q4 180 126 302t302 126q180 -4 302 -126t126 -302h168q-4 256 -172 424t-424 172zM1024 433q60 28 94 78t34 118q0 92 -60 152t-152 60t-152 -60t-60 -152q0 -64 34 -116t94 -80v-280l-292 -292l120 -120l256 256l256 -256
l120 120l-292 292v280zM940 1569q-400 -12 -664 -276t-276 -664h172q8 328 224 544t544 224q328 -8 544 -224t224 -544h172q-12 400 -276 664t-664 276z" />
    <glyph glyph-name=".notdef" horiz-adv-x="748" 
d="M68 0v1365h544v-1365h-544zM136 68h408v1229h-408v-1229z" />
    <glyph glyph-name=".null" horiz-adv-x="0" 
 />
    <glyph glyph-name="nonmarkingreturn" horiz-adv-x="682" 
 />
    <glyph glyph-name="SPACE" unicode=" " 
 />
    <glyph glyph-name="EXCLAMATION" unicode="!" 
d="M372 934v559h93h94v-559v-558h-94h-93v558zM372 97v93h93h94v-93v-93h-94h-93v93z" />
    <glyph glyph-name="QUOTATION" unicode="&#x22;" 
d="M186 1214v279h93h93v-279v-279h-93h-93v279zM559 1214v279h93h93v-279v-279h-93h-93v279z" />
    <glyph glyph-name="NUMBER" unicode="#" 
d="M559 841v93h-93h-94v-93v-93h94h93v93zM186 1307v186h93h93v-186v-186h94h93v186v186h93h93v-186v-186h93h93v-93v-94h-93h-93v-93v-93h93h93v-93v-93h-93h-93v-186v-186h-93h-93v186v186h-93h-94v-186v-186h-93h-93v186v186h-93h-93v93v93h93h93v93v93h-93h-93v94v93h93
h93v186z" />
    <glyph glyph-name="DOLLAR" unicode="$" 
d="M372 934v187h-93h-93v-187v-186h93h93v186zM372 1400v93h94h93v-93v-93h93h93v-93v-93h-93h-93v-187v-186h93h93v-93v-93h-93h-93v-186v-186h93h93v186v186h93h93v-186v-186h-93h-93v-94v-93h-93h-93v-93v-92h-93h-94v92v93h-93h-93v93v94h93h93v186v186h-93h-93v93v93
h-93h-93v186v187h93h93v93v93h93h93v93zM186 190h-93h-93v93v93h93h93v-93v-93zM745 1121h93h93v-93v-94h-93h-93v94v93z" />
    <glyph glyph-name="PERCENT" unicode="%" 
d="M186 1214v93h93h93v-93v-93h-93h-93v-93v-93h93h93v93v93h94h93v-93v-93h-93h-94v-94v-93h94h93v93v94h93h93v-94v-93h-93h-93v-93v-93h-93h-94v-93v-93h94h93v93v93h93h93v-93v-93h-93h-93v-93v-93h93h93v93v93h93h93v-93v-93h-93h-93v-93v-93h-93h-93v93v93h-93h-94v93
v93h-93h-93v93v93h93h93v93v93h-93h-93v93v94h-93h-93v93v93h93h93v93zM186 376v-186v-186h-93h-93v186v186h93h93zM745 935v186v186h93h93v-186v-186h-93h-93z" />
    <glyph glyph-name="AMPERSAND" unicode="&#x26;" 
d="M186 1214v93h187h186v-93v-93h-186h-187v-187v-186h93h93v93v94h94h93v93v93h93h93v-93v-93h-93h-93v-94v-93h-93h-94v-93v-93h-93h-93v-186v-186h187h186v93v93h-93h-94v93v93h94h93v-93v-93h93h93v-93v-93h-93h-93v-93v-93h-186h-187v93v93h-93h-93v186v186h93h93v93
v93h-93h-93v186v187h93h93v93zM745 190h93h93v-93v-93h-93h-93v93v93zM745 376v93v93h93h93v-93v-93h-93h-93z" />
    <glyph glyph-name="APOSTROPHE" unicode="'" 
d="M372 1213v279h93h93v-279v-280h-93h-93v280z" />
    <glyph glyph-name="LEFT" unicode="(" 
d="M559 1400v93h93h93v-93v-93h-93h-93v93zM559 3h-94h-93v187v186h-93h-93v279v279h93h93v187v186h93h94v-186v-187h-94h-93v-279v-279h93h94v-186v-187zM559 3h93h93v-93v-92h-93h-93v92v93z" />
    <glyph glyph-name="RIGHT" unicode=")" 
d="M186 1400v93h93h93v-93v-93h-93h-93v93zM372 3v187v186h93h94v279v279h-94h-93v187v186h93h94v-186v-187h93h93v-279v-279h-93h-93v-186v-187h-94h-93zM372 3v-93v-92h-93h-93v92v93h93h93z" />
    <glyph glyph-name="ASTERISK" unicode="*" 
d="M372 935v186h94h93v-186v-187h93h93v-93v-93h-93h-93v-186v-186h-93h-94v186v186h-93h-93v93v93h93h93v187zM186 748h-93h-93v94v93h93h93v-93v-94zM186 562v-93v-93h-93h-93v93v93h93h93zM745 562h93h93v-93v-93h-93h-93v93v93zM745 748v94v93h93h93v-93v-94h-93h-93z
" />
    <glyph glyph-name="PLUS" unicode="+" 
d="M372 935v186h94h93v-186v-187h186h186v-93v-93h-186h-186v-186v-186h-93h-94v186v186h-186h-186v93v93h186h186v187z" />
    <glyph glyph-name="COMMA" unicode="," 
d="M186 190v186h186h187v-279v-280h-94h-93v93v94h-93h-93v186zM372 -183v-93v-93h-93h-93v93v93h93h93z" />
    <glyph glyph-name="HYPHEN-MINUS" unicode="-" 
d="M0 654v93h465h466v-93v-93h-466h-465v93z" />
    <glyph glyph-name="FULL" unicode="." 
d="M186 189v185h186h186v-185v-187h-186h-186v187z" />
    <glyph glyph-name="SOLIDUS" unicode="/" 
d="M745 1307v186h93h93v-186v-186h-93h-93v186zM186 3v187v186h93h93v186v186h94h93v186v187h93h93v-187v-186h-93h-93v-186v-186h-93h-94v-186v-187h-93h-93zM186 3v-186v-186h-93h-93v186v186h93h93z" />
    <glyph glyph-name="DIGIT" unicode="0" 
d="M186 1214v93h280h279v-93v-93h-279h-280v-280v-279h93h93v-93v-93h-93h-93v-93v-93h280h279v279v279h-93h-93v93v94h93h93v93v93h93h93v-466v-465h-93h-93v-93v-93h-279h-280v93v93h-93h-93v465v466h93h93v93zM372 655v93h94h93v-93v-93h-93h-94v93z" />
    <glyph glyph-name="DIGIT" unicode="1" 
d="M372 1214v93h93h94v-652v-651h-94h-93v465v466h-93h-93v93v93h93h93v93zM186 935v-94v-93h-93h-93v93v94h93h93z" />
    <glyph glyph-name="DIGIT" unicode="2" 
d="M186 1214v93h280h279v-93v-93h-279h-280v93zM186 1121v-93v-93h-93h-93v93v93h93h93zM372 376v93v93h94h93v93v93h93h93v186v187h93h93v-187v-186h-93h-93v-93v-93h-93h-93v-93v-93h-93h-94zM372 376v-93v-93h280h279v-93v-93h-466h-465v93v93h93h93v93v93h93h93z" />
    <glyph glyph-name="DIGIT" unicode="3" 
d="M186 1214v93h280h279v-93v-93h-279h-280v93zM186 1121v-93v-93h-93h-93v93v93h93h93zM186 190h280h279v186v186h-186h-187v93v93h187h186v186v187h93h93v-187v-186h-93h-93v-93v-93h93h93v-186v-186h-93h-93v-93v-93h-279h-280v93v93zM186 190h-93h-93v93v93h93h93v-93
v-93z" />
    <glyph glyph-name="DIGIT" unicode="4" 
d="M559 748v187h-93h-94v-94v-93h-93h-93v-93v-93h187h186v186zM559 1214v93h93h93v-373v-372h93h93v-93v-93h-93h-93v-186v-186h-93h-93v186v186h-280h-279v186v186h93h93v93v94h93h93v93v93h94h93v93z" />
    <glyph glyph-name="DIGIT" unicode="5" 
d="M0 1028v279h465h466v-93v-93h-372h-373v-93v-93h280h279v-94v-93h-372h-373v280zM186 190h280h279v279v279h93h93v-279v-279h-93h-93v-93v-93h-279h-280v93v93zM186 190h-93h-93v93v93h93h93v-93v-93z" />
    <glyph glyph-name="DIGIT" unicode="6" 
d="M186 1214v93h280h279v-93v-93h-279h-280v93zM186 190h280h279v279v279h-279h-280v-279v-279zM186 190h-93h-93v465v466h93h93v-93v-93h280h279v-94v-93h93h93v-279v-279h-93h-93v-93v-93h-279h-280v93v93z" />
    <glyph glyph-name="DIGIT" unicode="7" 
d="M0 1214v93h465h466v-186v-186h-93h-93v93v93h-372h-373v93zM559 562v186v187h93h93v-187v-186h-93h-93zM559 562v-279v-279h-93h-94v279v279h94h93z" />
    <glyph glyph-name="DIGIT" unicode="8" 
d="M186 1214v93h280h279v-93v-93h-279h-280v-187v-186h280h279v186v187h93h93v-187v-186h-93h-93v-93v-93h-279h-280v-186v-186h280h279v186v186h93h93v-186v-186h-93h-93v-93v-93h-279h-280v93v93h-93h-93v186v186h93h93v93v93h-93h-93v186v187h93h93v93z" />
    <glyph glyph-name="DIGIT" unicode="9" 
d="M186 1214v93h280h279v-93v-93h-279h-280v-187v-186h280h279v186v187h93h93v-466v-465h-93h-93v186v186h-279h-280v93v93h-93h-93v186v187h93h93v93zM745 190v-93v-93h-279h-280v93v93h280h279z" />
    <glyph glyph-name="COLON" unicode=":" 
d="M372 748v187h187h186v-187v-186h-186h-187v186zM372 190v186h187h186v-186v-186h-186h-187v186z" />
    <glyph glyph-name="SEMICOLON" unicode=";" 
d="M186 748v187h186h187v-187v-186h-187h-186v186zM186 190v186h186h187v-280v-279h-94h-93v93v93h-93h-93v187zM372 -183v-93v-93h-93h-93v93v93h93h93z" />
    <glyph glyph-name="LESS-THAN" unicode="&#x3c;" 
d="M745 1214v93h93h93v-93v-93h-93h-93v93zM745 190h-93h-93v93v93h-94h-93v93v93h-93h-93v93v93h93h93v93v94h93h94v93v93h93h93v-93v-93h-93h-93v-94v-93h-94h-93v-93v-93h93h94v-93v-93h93h93v-93v-93zM745 190h93h93v-93v-93h-93h-93v93v93z" />
    <glyph glyph-name="EQUALS" unicode="=" 
d="M0 842v93h465h466v-93v-94h-466h-465v94zM0 469v93h465h466v-93v-93h-466h-465v93z" />
    <glyph glyph-name="GREATER-THAN" unicode="&#x3e;" 
d="M186 1214v93h93h93v-93v-93h-93h-93v93zM372 190v93v93h93h94v93v93h93h93v93v93h-93h-93v93v94h-94h-93v93v93h93h94v-93v-93h93h93v-94v-93h93h93v-93v-93h-93h-93v-93v-93h-93h-93v-93v-93h-94h-93zM372 190v-93v-93h-93h-93v93v93h93h93z" />
    <glyph glyph-name="QUESTION" unicode="?" 
d="M186 1214v93h280h279v-93v-93h-279h-280v93zM372 97v93h94h93v-93v-93h-93h-94v93zM186 1121v-93v-93h-93h-93v93v93h93h93zM559 562v93v93h93h93v186v187h93h93v-187v-186h-93h-93v-93v-93h-93h-93zM559 562v-93v-93h-93h-94v93v93h94h93z" />
    <glyph glyph-name="COMMERCIAL" unicode="@" 
d="M745 655v93h-93h-93v-93v-93h93h93v93zM186 1214v93h280h279v-93v-93h-279h-280v93zM186 190h-93h-93v465v466h93h93v-466v-465zM186 190h373h372v-93v-93h-372h-373v93v93zM745 1121h93h93v-373v-372h-279h-280v279v280h187h186v93v93z" />
    <glyph glyph-name="LATIN" unicode="A" 
d="M186 1400v93h280h279v-93v-93h-279h-280v-186v-187h280h279v187v186h93h93v-652v-651h-93h-93v372v372h-279h-280v-372v-372h-93h-93v651v652h93h93v93z" />
    <glyph glyph-name="LATIN" unicode="B" 
d="M0 748v745h373h372v-93v-93h-279h-280v-186v-187h280h279v187v186h93h93v-186v-187h-93h-93v-93v-93h-279h-280v-279v-279h280h279v279v279h93h93v-279v-279h-93h-93v-93v-93h-372h-373v744z" />
    <glyph glyph-name="LATIN" unicode="C" 
d="M186 1400v93h280h279v-93v-93h-279h-280v93zM745 190v-93v-93h-279h-280v93v93h-93h-93v558v559h93h93v-559v-558h280h279zM745 190v93v93h93h93v-93v-93h-93h-93zM745 1307h93h93v-93v-93h-93h-93v93v93z" />
    <glyph glyph-name="LATIN" unicode="D" 
d="M0 748v745h373h372v-93v-93h-279h-280v-559v-558h280h279v558v559h93h93v-559v-558h-93h-93v-93v-93h-372h-373v744z" />
    <glyph glyph-name="LATIN" unicode="E" 
d="M0 748v745h465h466v-93v-93h-372h-373v-186v-187h280h279v-93v-93h-279h-280v-279v-279h373h372v-93v-93h-466h-465v744z" />
    <glyph glyph-name="LATIN" unicode="F" 
d="M0 748v745h465h466v-93v-93h-372h-373v-186v-187h280h279v-93v-93h-279h-280v-372v-372h-93h-93v744z" />
    <glyph glyph-name="LATIN" unicode="G" 
d="M186 1400v93h280h279v-93v-93h-279h-280v93zM745 190v-93v-93h-279h-280v93v93h-93h-93v558v559h93h93v-559v-558h280h279zM745 190v279v279h-186h-187v93v93h280h279v-372v-372h-93h-93zM745 1307h93h93v-93v-93h-93h-93v93v93z" />
    <glyph glyph-name="LATIN" unicode="H" 
d="M0 748v745h93h93v-279v-280h280h279v280v279h93h93v-745v-744h-93h-93v372v372h-279h-280v-372v-372h-93h-93v744z" />
    <glyph glyph-name="LATIN" unicode="I" 
d="M186 1400v93h279h280v-93v-93h-93h-93v-559v-558h93h93v-93v-93h-280h-279v93v93h93h93v558v559h-93h-93v93z" />
    <glyph glyph-name="LATIN" unicode="J" 
d="M745 841v652h93h93v-652v-651h-93h-93v651zM186 190h280h279v-93v-93h-279h-280v93v93zM186 190h-93h-93v186v186h93h93v-186v-186z" />
    <glyph glyph-name="LATIN" unicode="K" 
d="M0 748v745h93h93v-279v-280h93h93v-93v-93h-93h-93v-372v-372h-93h-93v744zM745 376h-93h-93v93v93h-93h-94v93v93h94h93v-93v-93h93h93v-93v-93zM745 376h93h93v-186v-186h-93h-93v186v186zM745 1307v-93v-93h-93h-93v-93v-94h-93h-94v94v93h94h93v93v93h93h93z
M745 1307v93v93h93h93v-93v-93h-93h-93z" />
    <glyph glyph-name="LATIN" unicode="L" 
d="M0 748v745h93h93v-652v-651h373h372v-93v-93h-466h-465v744z" />
    <glyph glyph-name="LATIN" unicode="M" 
d="M0 748v745h93h93v-93v-93h93h93v-93v-93h-93h-93v-559v-558h-93h-93v744zM559 1121v-187v-186h-93h-94v186v187h94h93zM559 1121v93v93h93h93v93v93h93h93v-745v-744h-93h-93v558v559h-93h-93z" />
    <glyph glyph-name="LATIN" unicode="N" 
d="M0 748v745h93h93v-93v-93h93h93v-186v-187h-93h-93v-465v-465h-93h-93v744zM559 562h-93h-94v186v186h94h93v-186v-186zM559 562h93h93v466v465h93h93v-745v-744h-93h-93v93v93h-93h-93v186v186z" />
    <glyph glyph-name="LATIN" unicode="O" 
d="M186 1400v93h280h279v-93v-93h-279h-280v-559v-558h280h279v558v559h93h93v-559v-558h-93h-93v-93v-93h-279h-280v93v93h-93h-93v558v559h93h93v93z" />
    <glyph glyph-name="LATIN" unicode="P" 
d="M0 748v745h373h372v-93v-93h-279h-280v-186v-187h280h279v187v186h93h93v-186v-187h-93h-93v-93v-93h-279h-280v-372v-372h-93h-93v744z" />
    <glyph glyph-name="LATIN" unicode="Q" 
d="M186 1400v93h280h279v-93v-93h-279h-280v-559v-558h187h186v93v93h93h93v465v466h93h93v-466v-465h-93h-93v-93v-93h-93h-93v-94v-93h-186h-187v93v94h-93h-93v558v559h93h93v93zM372 469v93h94h93v-93v-93h-93h-94v93zM745 190h93h93v-186v-186h-93h-93v186v186z" />
    <glyph glyph-name="LATIN" unicode="R" 
d="M0 748v745h373h372v-93v-93h-279h-280v-186v-187h280h279v187v186h93h93v-186v-187h-93h-93v-186v-186h-93h-93v93v93h-186h-187v-372v-372h-93h-93v744zM745 562h93h93v-279v-279h-93h-93v279v279z" />
    <glyph glyph-name="LATIN" unicode="S" 
d="M186 1400v93h280h279v-93v-93h-279h-280v93zM186 190h280h279v279v279h-279h-280v93v93h-93h-93v187v186h93h93v-186v-187h280h279v-93v-93h93h93v-279v-279h-93h-93v-93v-93h-279h-280v93v93zM186 190h-93h-93v93v93h93h93v-93v-93zM745 1307h93h93v-93v-93h-93h-93v93
v93z" />
    <glyph glyph-name="LATIN" unicode="T" 
d="M0 1400v93h465h466v-93v-93h-186h-186v-652v-651h-93h-94v651v652h-186h-186v93z" />
    <glyph glyph-name="LATIN" unicode="U" 
d="M0 841v652h93h93v-652v-651h-93h-93v651zM745 190v-93v-93h-279h-280v93v93h280h279zM745 190v651v652h93h93v-652v-651h-93h-93z" />
    <glyph glyph-name="LATIN" unicode="V" 
d="M0 1121v372h93h93v-372v-373h-93h-93v373zM745 748v-186v-186h-93h-93v-186v-186h-93h-94v186v186h-93h-93v186v186h93h93v-186v-186h94h93v186v186h93h93zM745 748v373v372h93h93v-372v-373h-93h-93z" />
    <glyph glyph-name="LATIN" unicode="W" 
d="M0 934v559h93h93v-559v-558h-93h-93v558zM745 376v-186v-186h-93h-93v186v186h-93h-94v-186v-186h-93h-93v186v186h93h93v279v279h94h93v-279v-279h93h93zM745 376v558v559h93h93v-559v-558h-93h-93z" />
    <glyph glyph-name="LATIN" unicode="X" 
d="M0 1307v186h93h93v-186v-186h-93h-93v186zM186 562v93v93h93h93v93v93h-93h-93v94v93h93h93v-93v-94h94h93v-93v-93h-93h-94v-93v-93h-93h-93zM186 562v-279v-279h-93h-93v279v279h93h93zM745 562h-93h-93v93v93h93h93v-93v-93zM745 562h93h93v-279v-279h-93h-93v279v279
zM745 1121v-93v-94h-93h-93v94v93h93h93zM745 1121v186v186h93h93v-186v-186h-93h-93z" />
    <glyph glyph-name="LATIN" unicode="Y" 
d="M0 1307v186h93h93v-186v-186h-93h-93v186zM745 1121v-93v-94h-93h-93v-465v-465h-93h-94v465v465h-93h-93v94v93h93h93v-93v-94h94h93v94v93h93h93zM745 1121v186v186h93h93v-186v-186h-93h-93z" />
    <glyph glyph-name="LATIN" unicode="Z" 
d="M0 1400v93h465h466v-186v-186h-93h-93v93v93h-372h-373v93zM186 562v93v93h93h93v93v93h94h93v94v93h93h93v-93v-94h-93h-93v-93v-93h-93h-94v-93v-93h-93h-93zM186 562v-186v-186h373h372v-93v-93h-466h-465v279v279h93h93z" />
    <glyph glyph-name="LEFT" unicode="[" 
d="M372 655v838h280h279v-93v-93h-186h-186v-652v-652h186h186v-93v-92h-279h-280v837z" />
    <glyph glyph-name="REVERSE" unicode="\" 
d="M186 1307v186h93h93v-186v-186h-93h-93v186zM931 3h-93h-93v187v186h-93h-93v186v186h-94h-93v186v187h93h94v-187v-186h93h93v-186v-186h93h93v-186v-187zM931 3h93h93v-186v-186h-93h-93v186v186z" />
    <glyph glyph-name="RIGHT" unicode="]" 
d="M0 1400v93h279h280v-838v-837h-280h-279v92v93h186h186v652v652h-186h-186v93z" />
    <glyph glyph-name="CIRCUMFLEX" unicode="^" 
d="M372 1214v93h94h93v-93v-93h-93h-94v93zM186 935v93v93h93h93v-93v-93h-93h-93zM186 935v-93v-94h-93h-93v94v93h93h93zM745 935h-93h-93v93v93h93h93v-93v-93zM745 935h93h93v-93v-94h-93h-93v94v93z" />
    <glyph glyph-name="LOW" unicode="_" 
d="M0 -91v93h559h558v-93v-93h-558h-559v93z" />
    <glyph glyph-name="GRAVE" unicode="`" 
d="M186 1400v93h93h93v-93v-93h-93h-93v93zM559 1121h-94h-93v93v93h93h94v-93v-93zM559 1121h93h93v-93v-93h-93h-93v93v93z" />
    <glyph glyph-name="LATIN" unicode="a" 
d="M745 283v93h-279h-280v-93v-93h280h279v93zM186 842v93h280h279v-93v-94h-279h-280v94zM186 376v93v93h280h279v93v93h93h93v-372v-372h-372h-373v93v93h-93h-93v93v93h93h93z" />
    <glyph glyph-name="LATIN" unicode="b" 
d="M0 748v745h93h93v-372v-373h93h93v-93v-93h-93h-93v-186v-186h280h279v279v279h-186h-187v93v93h187h186v-93v-93h93h93v-279v-279h-93h-93v-93v-93h-372h-373v744z" />
    <glyph glyph-name="LATIN" unicode="c" 
d="M186 842v93h373h372v-93v-94h-372h-373v94zM186 190h-93h-93v279v279h93h93v-279v-279zM186 190h373h372v-93v-93h-372h-373v93v93z" />
    <glyph glyph-name="LATIN" unicode="d" 
d="M745 562v186h-279h-280v-279v-279h187h186v93v93h93h93v186zM745 1214v279h93h93v-745v-744h-93h-93v93v93h-93h-93v-93v-93h-186h-187v93v93h-93h-93v279v279h93h93v93v93h280h279v280z" />
    <glyph glyph-name="LATIN" unicode="e" 
d="M186 842v93h280h279v-93v-94h-279h-280v-93v-93h280h279v93v93h93h93v-186v-186h-372h-373v-93v-93h-93h-93v279v279h93h93v94zM186 190h373h372v-93v-93h-372h-373v93v93z" />
    <glyph glyph-name="LATIN" unicode="f" 
d="M372 1400v93h187h186v-93v-93h-186h-187v93zM372 1307v-186v-187h187h186v-93v-93h-186h-187v-372v-372h-93h-93v651v652h93h93z" />
    <glyph glyph-name="LATIN" unicode="g" 
d="M745 562v186h-279h-280v-279v-279h187h186v93v93h93h93v186zM186 842v93h373h372v-559v-559h-93h-93v186v187h-93h-93v-94v-93h-186h-187v93v94h-93h-93v279v279h93h93v94zM745 -183v-93v-93h-279h-280v93v93h280h279z" />
    <glyph glyph-name="LATIN" unicode="h" 
d="M0 748v745h93h93v-372v-373h93h93v-93v-93h-93h-93v-279v-279h-93h-93v744zM745 748h-186h-187v93v93h187h186v-93v-93zM745 748h93h93v-372v-372h-93h-93v372v372z" />
    <glyph glyph-name="LATIN" unicode="i" 
d="M372 1214v93h93h94v-93v-93h-94h-93v93zM186 841v94h186h187v-373v-372h93h93v-93v-93h-186h-187v372v372h-93h-93v93z" />
    <glyph glyph-name="LATIN" unicode="j" 
d="M372 1214v93h93h94v-93v-93h-94h-93v93zM186 841v94h186h187v-559v-559h-94h-93v466v465h-93h-93v93zM372 -183v-93v-93h-186h-186v93v93h186h186z" />
    <glyph glyph-name="LATIN" unicode="k" 
d="M0 748v745h93h93v-465v-466h93h93v93v93h94h93v-186v-186h-186h-187v-186v-186h-93h-93v744zM745 190h-93h-93v93v93h93h93v-93v-93zM745 190h93h93v-93v-93h-93h-93v93v93zM559 748v93v93h93h93v-93v-93h-93h-93z" />
    <glyph glyph-name="LATIN" unicode="l" 
d="M186 1400v93h186h187v-652v-651h-94h-93v558v559h-93h-93v93zM559 190h186h186v-93v-93h-186h-186v93v93z" />
    <glyph glyph-name="LATIN" unicode="m" 
d="M0 469v466h373h372v-93v-94h-93h-93v-372v-372h-93h-94v372v372h-93h-93v-372v-372h-93h-93v465zM745 748h93h93v-372v-372h-93h-93v372v372z" />
    <glyph glyph-name="LATIN" unicode="n" 
d="M0 469v466h373h372v-93v-94h-279h-280v-372v-372h-93h-93v465zM745 748h93h93v-372v-372h-93h-93v372v372z" />
    <glyph glyph-name="LATIN" unicode="o" 
d="M186 842v93h280h279v-93v-94h-279h-280v-279v-279h280h279v279v279h93h93v-279v-279h-93h-93v-93v-93h-279h-280v93v93h-93h-93v279v279h93h93v94z" />
    <glyph glyph-name="LATIN" unicode="p" 
d="M0 283v652h93h93v-93v-94h93h93v-93v-93h-93h-93v-186v-186h280h279v279v279h-186h-187v94v93h187h186v-93v-94h93h93v-279v-279h-93h-93v-94v-93h-279h-280v-186v-186h-93h-93v652z" />
    <glyph glyph-name="LATIN" unicode="q" 
d="M745 562v186h-279h-280v-279v-279h187h186v93v93h93h93v186zM186 842v93h373h372v-652v-652h-93h-93v279v280h-93h-93v-94v-93h-186h-187v93v94h-93h-93v279v279h93h93v94z" />
    <glyph glyph-name="LATIN" unicode="r" 
d="M0 469v466h93h93v-93v-94h93h93v-93v-93h-93h-93v-279v-279h-93h-93v465zM745 748h-186h-187v94v93h187h186v-93v-94zM745 748h93h93v-93v-93h-93h-93v93v93z" />
    <glyph glyph-name="LATIN" unicode="s" 
d="M186 842v93h280h279v-93v-94h-279h-280v94zM745 190v93v93h-279h-280v93v93h-93h-93v93v93h93h93v-93v-93h280h279v-93v-93h93h93v-93v-93h-93h-93zM745 190v-93v-93h-372h-373v93v93h373h372z" />
    <glyph glyph-name="LATIN" unicode="t" 
d="M186 1214v279h93h93v-279v-280h187h186v-93v-93h-186h-187v-279v-279h-93h-93v279v279h-93h-93v93v93h93h93v280zM372 190h187h186v-93v-93h-186h-187v93v93z" />
    <glyph glyph-name="LATIN" unicode="u" 
d="M0 562v373h93h93v-373v-372h-93h-93v372zM559 190v-93v-93h-186h-187v93v93h187h186zM559 190v93v93h93h93v279v280h93h93v-466v-465h-93h-93v93v93h-93h-93z" />
    <glyph glyph-name="LATIN" unicode="v" 
d="M0 748v187h93h93v-187v-186h-93h-93v186zM745 562v-186v-186h-93h-93v-93v-93h-93h-94v93v93h-93h-93v186v186h93h93v-186v-186h94h93v186v186h93h93zM745 562v186v187h93h93v-187v-186h-93h-93z" />
    <glyph glyph-name="LATIN" unicode="w" 
d="M0 562v373h93h93v-373v-372h-93h-93v372zM745 190v-93v-93h-93h-93v93v93h-93h-94v-93v-93h-93h-93v93v93h93h93v279v279h94h93v-279v-279h93h93zM745 190v372v373h93h93v-373v-372h-93h-93z" />
    <glyph glyph-name="LATIN" unicode="x" 
d="M0 842v93h93h93v-93v-94h-93h-93v94zM186 190v93v93h93h93v93v93h-93h-93v93v93h93h93v-93v-93h94h93v-93v-93h-93h-94v-93v-93h-93h-93zM186 190v-93v-93h-93h-93v93v93h93h93zM745 190h-93h-93v93v93h93h93v-93v-93zM745 190h93h93v-93v-93h-93h-93v93v93zM745 748v-93
v-93h-93h-93v93v93h93h93zM745 748v94v93h93h93v-93v-94h-93h-93z" />
    <glyph glyph-name="LATIN" unicode="y" 
d="M0 562v373h93h93v-373v-372h-93h-93v372zM745 -183v186v187h-93h-93v-94v-93h-186h-187v93v94h187h186v93v93h93h93v279v280h93h93v-559v-559h-93h-93zM745 -183v-93v-93h-279h-280v93v93h280h279z" />
    <glyph glyph-name="LATIN" unicode="z" 
d="M0 842v93h465h466v-93v-94h-93h-93v-93v-93h-93h-93v93v93h-280h-279v94zM372 376v93v93h94h93v-93v-93h-93h-94zM372 376v-93v-93h280h279v-93v-93h-466h-465v93v93h93h93v93v93h93h93z" />
    <glyph glyph-name="LEFT" unicode="{" 
d="M559 1586v93h186h186v-93v-93h-186h-186v93zM559 -182h-93h-94v372v372h-186h-186v93v93h186h186v373v372h94h93v-372v-373h-93h-94v-93v-93h94h93v-372v-372zM559 -182h186h186v-94v-93h-186h-186v93v94z" />
    <glyph glyph-name="VERTICAL" unicode="|" 
d="M372 654v838h93h93v-838v-838h-93h-93v838z" />
    <glyph glyph-name="RIGHT" unicode="}" 
d="M0 1586v93h186h186v-93v-93h-186h-186v93zM372 -182v372v372h94h93v93v93h-93h-94v373v372h94h93v-372v-373h186h186v-93v-93h-186h-186v-372v-372h-93h-94zM372 -182v-94v-93h-186h-186v93v94h186h186z" />
    <glyph glyph-name="TILDE" unicode="~" 
d="M186 842v93h93h93v-93v-94h-93h-93v94zM186 748v-93v-93h-93h-93v93v93h93h93zM745 562v-93v-93h-93h-93v93v93h-93h-94v93v93h94h93v-93v-93h93h93zM745 562v93v93h93h93v-93v-93h-93h-93z" />
    <glyph glyph-name="NO-BREAK" unicode="&#xa0;" 
 />
    <glyph glyph-name="INVERTED" unicode="&#xa1;" 
d="M372 1400v93h93h94v-93v-93h-94h-93v93zM372 562v559h93h94v-559v-558h-94h-93v558z" />
    <glyph glyph-name="CENT" unicode="&#xa2;" 
d="M372 469v279h-93h-93v-279v-279h93h93v279zM372 1028v93h94h93v-93v-93h186h186v-93v-94h-186h-186v-279v-279h186h186v-94v-93h-186h-186v-93v-92h-93h-94v92v93h-93h-93v93v94h-93h-93v279v279h93h93v94v93h93h93v93z" />
    <glyph glyph-name="POUND" unicode="&#xa3;" 
d="M372 1400v93h187h186v-93v-93h-186h-187v93zM186 190v186v186h-93h-93v93v93h93h93v280v279h93h93v-279v-280h94h93v-93v-93h-93h-94v-186v-186h-93h-93zM186 190v-93v-93h-93h-93v93v93h93h93zM745 190v-93v-93h-186h-187v93v93h187h186zM745 190v93v93h93h93v-93v-93
h-93h-93zM745 1307h93h93v-93v-93h-93h-93v93v93z" />
    <glyph glyph-name="CURRENCY" unicode="&#xa4;" 
d="M559 469v93h-93h-94v-93v-93h94h93v93zM0 842v93h93h93v-93v-94h-93h-93v94zM186 190v279v279h280h279v-279v-279h-279h-280zM186 190v-93v-93h-93h-93v93v93h93h93zM745 190h93h93v-93v-93h-93h-93v93v93zM745 748v94v93h93h93v-93v-94h-93h-93z" />
    <glyph glyph-name="YEN" unicode="&#xa5;" 
d="M0 1307v186h93h93v-186v-186h-93h-93v186zM745 1121v-93v-94h-93h-93v-93v-93h186h186v-93v-93h-186h-186v-93v-93h186h186v-93v-93h-186h-186v-186v-186h-93h-94v186v186h-186h-186v93v93h186h186v93v93h-186h-186v93v93h186h186v93v93h-93h-93v94v93h93h93v-93v-94h94
h93v94v93h93h93zM745 1121v186v186h93h93v-186v-186h-93h-93z" />
    <glyph glyph-name="BROKEN" unicode="&#xa6;" 
d="M372 1121v372h93h94v-372v-373h-94h-93v373zM372 190v372h93h94v-372v-372h-94h-93v372z" />
    <glyph glyph-name="SECTION" unicode="&#xa7;" 
d="M372 1400v93h280h279v-93v-93h-279h-280v93zM372 562h187h186v93v93h-186h-187v-93v-93zM372 562h-93h-93v372v373h93h93v-186v-187h187h186v-93v-93h93h93v-372v-373h-93h-93v187v186h-186h-187v93v93zM745 3v-93v-92h-279h-280v92v93h280h279z" />
    <glyph glyph-name="DIAERESIS" unicode="&#xa8;" 
d="M186 1400v93h93h93v-93v-93h-93h-93v93zM559 1400v93h93h93v-93v-93h-93h-93v93z" />
    <glyph glyph-name="COPYRIGHT" unicode="&#xa9;" 
d="M186 1214v93h280h279v-93v-93h-279h-280v-187v-186h93h93v-93v-93h-93h-93v-186v-186h280h279v465v466h93h93v-466v-465h-93h-93v-93v-93h-279h-280v93v93h-93h-93v465v466h93h93v93zM372 841v94h94h93v-94v-93h-93h-94v93zM372 562h94h93v-93v-93h-93h-94v93v93z" />
    <glyph glyph-name="FEMININE" unicode="&#xaa;" 
d="M745 1028v93h-186h-187v-187v-186h93h94v93v94h93h93v93zM372 1214v93h280h279v-373v-372h-93h-93v93v93h-93h-93v-93v-93h-94h-93v93v93h-93h-93v186v187h93h93v93zM186 283v93h373h372v-93v-93h-372h-373v93z" />
    <glyph glyph-name="LEFT-POINTING" unicode="&#xab;" 
d="M372 1028v93h94h93v-93v-93h-93h-94v93zM931 1028v93h93h93v-93v-93h-93h-93v93zM372 376h-93h-93v93v93h-93h-93v93v93h93h93v94v93h93h93v-93v-94h-93h-93v-93v-93h93h93v-93v-93zM372 376h94h93v-93v-93h-93h-94v93v93zM931 376h-93h-93v93v93h-93h-93v93v93h93h93v94
v93h93h93v-93v-94h-93h-93v-93v-93h93h93v-93v-93zM931 376h93h93v-93v-93h-93h-93v93v93z" />
    <glyph glyph-name="NOT" unicode="&#xac;" 
d="M186 655v93h373h372v-186v-186h-93h-93v93v93h-279h-280v93z" />
    <glyph glyph-name="SOFT" unicode="&#xad;" 
d="M186 654v93h373h372v-93v-93h-372h-373v93z" />
    <glyph glyph-name="REGISTERED" unicode="&#xae;" 
d="M186 1214v93h280h279v-93v-93h-279h-280v-93v-93h187h186v-94v-93h-93h-94v-186v-186h-93h-93v-93v-93h280h279v465v466h93h93v-466v-465h-93h-93v-93v-93h-279h-280v93v93h-93h-93v465v466h93h93v93z" />
    <glyph glyph-name="MACRON" unicode="&#xaf;" 
d="M0 1399v93h465h466v-93v-93h-466h-465v93z" />
    <glyph glyph-name="DEGREE" unicode="&#xb0;" 
d="M372 1214v93h93h94v-93v-93h-94h-93v-93v-93h93h94v93v93h93h93v-93v-93h-93h-93v-93v-94h-94h-93v94v93h-93h-93v93v93h93h93v93z" />
    <glyph glyph-name="PLUS-MINUS" unicode="&#xb1;" 
d="M372 935v186h94h93v-186v-187h186h186v-93v-93h-186h-186v-186v-186h186h186v-93v-93h-466h-465v93v93h186h186v186v186h-186h-186v93v93h186h186v187z" />
    <glyph glyph-name="SUPERSCRIPT" unicode="&#xb2;" 
d="M372 1400v93h187h186v-93v-93h-186h-187v93zM372 1307v-93v-93h-93h-93v93v93h93h93zM559 934v94v93h93h93v93v93h93h93v-93v-93h-93h-93v-93v-94h-93h-93zM559 934v-93v-93h186h186v-93v-93h-372h-373v93v93h93h93v93v93h93h94z" />
    <glyph glyph-name="SUPERSCRIPT" unicode="&#xb3;" 
d="M186 1400v93h280h279v-93v-93h-279h-280v93zM745 748v93v93h-186h-187v94v93h187h186v93v93h93h93v-93v-93h-93h-93v-93v-94h93h93v-93v-93h-93h-93zM745 748v-93v-93h-279h-280v93v93h280h279z" />
    <glyph glyph-name="ACUTE" unicode="&#xb4;" 
d="M559 1400v93h93h93v-93v-93h-93h-93v93zM559 1307v-93v-93h-94h-93v93v93h93h94z" />
    <glyph glyph-name="MICRO" unicode="&#xb5;" 
d="M0 376v559h93h93v-280v-279h93h93v-93v-93h-93h-93v-186v-186h-93h-93v558zM745 190v-94v-93h-186h-187v93v94h187h186zM745 190v372v373h93h93v-373v-372h-93h-93z" />
    <glyph glyph-name="PILCROW" unicode="&#xb6;" 
d="M186 1214v93h373h372v-652v-651h-93h-93v558v559h-93h-93v-559v-558h-93h-94v279v279h-93h-93v93v93h-93h-93v186v187h93h93v93z" />
    <glyph glyph-name="MIDDLE" unicode="&#xb7;" 
d="M372 654v93h93h93v-93v-93h-93h-93v93z" />
    <glyph glyph-name="CEDILLA" unicode="&#xb8;" 
d="M559 -89v93h93h93v-93v-93h-93h-93v93zM559 -182v-94v-93h-94h-93v93v94h93h94z" />
    <glyph glyph-name="SUPERSCRIPT" unicode="&#xb9;" 
d="M372 1400v93h93h94v-372v-373h93h93v-93v-93h-280h-279v93v93h93h93v186v187h-93h-93v93v93h93h93v93z" />
    <glyph glyph-name="MASCULINE" unicode="&#xba;" 
d="M372 1214v93h187h186v-93v-93h-186h-187v-187v-186h187h186v186v187h93h93v-187v-186h-93h-93v-93v-93h-186h-187v93v93h-93h-93v186v187h93h93v93zM186 283v93h373h372v-93v-93h-372h-373v93z" />
    <glyph glyph-name="RIGHT-POINTING" unicode="&#xbb;" 
d="M0 1028v93h93h93v-93v-93h-93h-93v93zM559 1028v93h93h93v-93v-93h-93h-93v93zM186 376v93v93h93h93v93v93h-93h-93v94v93h93h93v-93v-94h94h93v-93v-93h-93h-94v-93v-93h-93h-93zM186 376v-93v-93h-93h-93v93v93h93h93zM745 376v93v93h93h93v93v93h-93h-93v94v93h93h93
v-93v-94h93h93v-93v-93h-93h-93v-93v-93h-93h-93zM745 376v-93v-93h-93h-93v93v93h93h93z" />
    <glyph glyph-name="VULGAR" unicode="&#xbc;" 
d="M186 1400v93h93h93v-372v-373h94h93v-93v-93h-280h-279v93v93h93h93v186v187h-93h-93v93v93h93h93v93zM931 283v93h-93h-93v-93v-93h93h93v93zM931 655v93h93h93v-465v-465h-93h-93v92v93h-279h-280v93v94h94h93v93v93h93h93v93v93h93h93v93z" />
    <glyph glyph-name="VULGAR" unicode="&#xbd;" 
d="M186 1400v93h93h93v-372v-373h94h93v-93v-93h-280h-279v93v93h93h93v186v187h-93h-93v93v93h93h93v93zM931 190v186v186h-93h-93v-93v-93h-93h-93v93v93h93h93v93v93h93h93v-93v-93h93h93v-186v-186h-93h-93zM931 190v-94v-93h93h93v-93v-92h-279h-279v92v93h93h93v93v94
h93h93z" />
    <glyph glyph-name="VULGAR" unicode="&#xbe;" 
d="M0 1400v93h186h186v-93v-93h-186h-186v93zM745 283v93h-93h-93v-93v-93h93h93v93zM745 655v93h93h93v-465v-465h-93h-93v92v93h-279h-280v93v94h93h93v93v93h94h93v93v93h93h93v93zM372 748v93v93h-93h-93v94v93h93h93v93v93h94h93v-93v-93h-93h-94v-93v-94h94h93v-93
v-93h-93h-94zM372 748v-93v-93h-186h-186v93v93h186h186z" />
    <glyph glyph-name="INVERTED" unicode="&#xbf;" 
d="M372 1214v93h94h93v-93v-93h-93h-94v93zM372 841v94h94h93v-94v-93h-93h-94v93zM745 190v-93v-93h-279h-280v93v93h-93h-93v186v186h93h93v93v93h93h93v-93v-93h-93h-93v-186v-186h280h279zM745 190v93v93h93h93v-93v-93h-93h-93z" />
    <glyph glyph-name="LATIN" unicode="&#xc0;" 
d="M186 1586v93h93h93v-93v-93h-93h-93v93zM186 1120v-186v-186h280h279v186v186h-279h-280zM186 1120v94v93h93h93v93v93h94h93v-93v-93h93h93v-93v-94h93h93v-558v-558h-93h-93v279v279h-279h-280v-279v-279h-93h-93v558v558h93h93z" />
    </font>
</defs>
</svg>
